<svg width="320" height="320" xmlns="http://www.w3.org/2000/svg">
  <defs>
    <style>
      .cls-1,.cls-16,.cls-30,.cls-31,.cls-32,.cls-34,.cls-35,.cls-36,.cls-37,.cls-9{fill:none}.cls-1{clip-rule:evenodd}.cls-2{fill:#e5dfda}.cls-10,.cls-28,.cls-3,.cls-33,.cls-5{fill:#fff}.cls-3,.cls-8,.cls-9{stroke:#828282}.cls-16,.cls-28,.cls-3,.cls-30,.cls-31,.cls-32,.cls-33,.cls-34,.cls-35,.cls-36,.cls-5,.cls-8,.cls-9{stroke-linecap:round;stroke-linejoin:round}.cls-16,.cls-28,.cls-3,.cls-5,.cls-8,.cls-9{stroke-width:2px}.cls-4,.cls-8{fill:#ededed}.cls-16,.cls-32,.cls-33,.cls-5{stroke:#e5dcd6}.cls-6{fill:#8e8e8e}.cls-7{fill:#ff2e63}.cls-11{fill:#ff80aa}.cls-12{fill:#c49a6c}.cls-13{fill:#b7885a}.cls-14{fill:#222}.cls-15{fill:#7c5b3a}.cls-17{fill:#e5dcd6}.cls-18{fill:#828282}.cls-19{fill:#d6184f}.cls-20{fill:#ffdbc0}.cls-21{fill:#edc9b0}.cls-22{fill:#b28d74}.cls-23{fill:#41cc8d}.cls-24{fill:#1e965c}.cls-25{fill:#424242}.cls-26{fill:#686868}.cls-27{fill:#ce926a}.cls-28{stroke:#333}.cls-29{clip-path:url(#clip-path)}.cls-30,.cls-34{stroke:#b28d74}.cls-30{stroke-width:.7px}.cls-31,.cls-35,.cls-36{stroke:#fff}.cls-31{stroke-width:1.39px}.cls-32,.cls-33{stroke-width:1.83px}.cls-34,.cls-35{stroke-width:.78px}.cls-36,.cls-37{stroke-width:1.56px}.cls-37{stroke:#1e965c;stroke-miterlimit:10}
    </style>
    <clipPath id="clip-path">
      <path id="svg_1"
            d="m255.93,228.12l-0.4,-0.28a0.31,0.31 0 0 1 -0.13,-0.25l0,-1.44a0.3,0.3 0 0 1 0.13,-0.25l0.4,-0.28a0.08,0.08 0 0 1 0.13,0.06l0,2.37a0.08,0.08 0 0 1 -0.13,0.07z"
            class="cls-1"/>
    </clipPath>
  </defs>
  <title>Talk</title>
  <g>
    <title>background</title>
    <rect fill="none" id="canvas_background" height="402" width="582" y="-1" x="-1"/>
  </g>
  <g>
    <title>Layer 1</title>
    <ellipse id="svg_2" ry="9.54" rx="38.16" cy="302.45" cx="276.08" class="cls-2"/>
    <ellipse id="svg_3" ry="21.85" rx="119.71" cy="244.69" cx="194.39" class="cls-2"/>
    <path id="svg_4"
          d="m29.16,235.32a6.09,6.09 0 0 1 -6.07,-6.07l0,-171.69a6.09,6.09 0 0 1 6.07,-6.07l235.06,0a6.09,6.09 0 0 1 6.07,6.07l0,171.69a6.09,6.09 0 0 1 -6.07,6.07"
          class="cls-3"/>
    <rect id="svg_5" ry="5" rx="5" height="160" width="222.82" y="63" x="35.12" class="cls-4"/>
    <path id="svg_6" d="m43.89,75.26l203.36,0l0,20.8l-203.36,0l0,-20.8z" class="cls-5"/>
    <rect id="svg_9" ry="7.78" rx="7.78" height="16.18" width="274.17" y="235.77" x="9.61" class="cls-8"/>
    <circle id="svg_10" r="2.91" cy="58.96" cx="146.02" class="cls-7"/>
    <path id="svg_11" d="m123.1,236.44l0,5.39l46.52,0l0,-5.39" class="cls-9"/>
    <path id="svg_12" d="m44.15,163.45l98.79,0l0,50.87l-98.79,0l0,-50.87z" class="cls-10"/>
    <path id="svg_13" d="m101.05,199.82l-19,0s-11.55,0 -14.77,14.24l46.24,0a20.14,20.14 0 0 0 -12.47,-14.24z"
          class="cls-11"/>
    <path id="svg_14"
          d="m96.76,163.66c-4.49,0.26 -9,0.41 -13.47,0.26a19.55,19.55 0 0 0 -12.47,18.21c0,10.8 8.75,23.46 19.55,23.46s19.56,-12.65 19.57,-23.45a19.55,19.55 0 0 0 -13.18,-18.48z"
          class="cls-12"/>
    <path id="svg_15"
          d="m106.38,170.9l0.09,1.41a34,34 0 0 1 -2.82,16.25c-2.26,5 -6.22,8.42 -10.6,11.52a82,82 0 0 1 -7.36,4.7a14.33,14.33 0 0 0 4.68,0.81c10.8,0 19.56,-12.65 19.57,-23.45a19.46,19.46 0 0 0 -3.56,-11.24z"
          class="cls-13"/>
    <path id="svg_16"
          d="m111.31,178.9a4.44,4.44 0 0 0 -3,-7.58a4.43,4.43 0 0 0 -4.31,-7a4.49,4.49 0 0 0 0.25,-1.16c-8.5,0.6 -17,1.21 -25.51,0.5a4.39,4.39 0 0 0 -0.19,1.22l0,0.35a4.44,4.44 0 0 0 -5.66,6.09l-0.07,0a4.44,4.44 0 0 0 -2.82,7.88a4.44,4.44 0 1 0 6.55,5.58a4.44,4.44 0 0 0 7,-0.42a4.44,4.44 0 0 0 7.32,0a4.44,4.44 0 0 0 7.32,0a4.44,4.44 0 0 0 7,0.42a4.44,4.44 0 1 0 6.09,-5.87l0.03,-0.01z"
          class="cls-14"/>
    <path id="svg_17"
          d="m92.11,197.54l-4.41,-0.36a0.84,0.84 0 0 1 -0.57,-0.4a0.83,0.83 0 0 1 -0.1,-0.69l2.57,-7.92a0.74,0.74 0 0 1 0.93,-0.48a0.73,0.73 0 0 1 0.47,0.92l-2.27,7l3.44,0.14c0.41,0 0.72,0.53 0.7,0.94s-0.37,0.85 -0.76,0.85zm-12.97,-6.88a0.73,0.73 0 0 1 -0.47,-1.3c1.4,-1.18 4.8,-2.7 7.68,0a0.74,0.74 0 0 1 -1,1.08c-2.65,-2.46 -5.61,0 -5.73,0.08a0.73,0.73 0 0 1 -0.48,0.14zm16.17,0a0.73,0.73 0 0 1 -0.47,-1.3c1.4,-1.18 4.8,-2.7 7.68,0a0.74,0.74 0 0 1 -1,1.08c-2.65,-2.46 -5.61,0 -5.73,0.08a0.73,0.73 0 0 1 -0.48,0.14z"
          class="cls-15"/>
    <path id="svg_18"
          d="m76.25,177c-0.41,0 -0.72,-0.22 -0.71,-0.63a9.11,9.11 0 0 1 7,-9a0.76,0.76 0 0 1 0.29,1.49c-0.23,0 -5.56,1.1 -5.78,7.51c-0.05,0.4 -0.41,0.63 -0.8,0.63z"
          class="cls-10"/>
    <path id="svg_19"
          d="m90.57,202.49a5.86,5.86 0 0 1 -3.8,-1.45a0.67,0.67 0 0 1 0.94,-1c0.11,0.1 2.55,2.39 6,-0.06a0.67,0.67 0 1 1 0.78,1.09a6.59,6.59 0 0 1 -3.92,1.42z"
          class="cls-15"/>
    <path id="svg_20" d="m44.15,163.45l98.79,0l0,50.87l-98.79,0l0,-50.87z" class="cls-16"/>
    <path id="svg_21" d="m154.88,101.27l98.79,0l0,50.87l-98.79,0l0,-50.87z" class="cls-10"/>
    <circle id="svg_22" r="6.9" cy="110.86" cx="221.13" class="cls-17"/>
    <circle id="svg_23" r="6.9" cy="112.51" cx="230.91" class="cls-17"/>
    <circle id="svg_24" r="6.9" cy="108.87" cx="240.88" class="cls-17"/>
    <path id="svg_25"
          d="m231.06,111.41a6.9,6.9 0 0 0 6.9,-6.9a6.82,6.82 0 0 0 -0.85,-3.25l-12.11,0a6.82,6.82 0 0 0 -0.85,3.25a6.9,6.9 0 0 0 6.91,6.9z"
          class="cls-17"/>
    <path id="svg_26" d="m183.27,118.67l28.45,0l0,23.71l-28.45,0l0,-23.71z" class="cls-14"/>
    <path id="svg_27"
          d="m177,130.93l-9.18,-11.79l-13.82,18.45c0,0.18 -0.05,0.36 -0.08,0.54a55.9,55.9 0 0 1 0.91,13.81c3,0.35 6.13,-0.81 9.14,-0.23c6.61,0.52 13.24,0.92 19.92,1l0.07,0l0,-17.2l-6.96,-4.58z"
          class="cls-4"/>
    <path id="svg_28"
          d="m192,152.77c8.5,-0.1 17,-0.33 25.51,-0.58l0,-3.93l-9.25,-10.07l-21.81,0l-8.93,14.35c2.11,0.08 4.21,0.15 6.33,0.18q4.06,0.06 8.15,0.05z"
          class="cls-7"/>
    <path id="svg_29" d="m197.27,152.68l0.06,-10.39l-1.33,0l-0.06,10.42l1.33,-0.03z" class="cls-11"/>
    <path id="svg_30"
          d="m199.32,149.3l-0.1,0a0.67,0.67 0 0 1 -0.46,-0.3l-2.55,-4a0.67,0.67 0 0 1 0.22,-0.93l1.84,-1.12a0.67,0.67 0 0 1 0.9,0.18l2.55,3.58a0.67,0.67 0 0 1 -0.12,0.91l-1.84,1.53a0.67,0.67 0 0 1 -0.44,0.15zm-0.95,-3.1l1.1,1.43l0.78,-0.65l-1.16,-1.22l-0.72,0.44z"
          class="cls-18"/>
    <path id="svg_31" d="m223,152c-3.85,-12 -16.24,-14.25 -16.24,-14.25l4.32,14.58l11.92,-0.33z" class="cls-7"/>
    <path id="svg_32"
          d="m218.85,152.16l4.15,-0.16c-3.85,-12 -16.24,-14.25 -16.24,-14.25l0.31,1.06a30.88,30.88 0 0 1 11.78,13.35z"
          class="cls-19"/>
    <path id="svg_33"
          d="m180.63,152.64l2.47,-4.6l5.06,-10.18s-1.11,0.22 -5.06,0.69a19.23,19.23 0 0 0 -14.86,13.45q6.18,0.46 12.39,0.64z"
          class="cls-7"/>
    <path id="svg_34"
          d="m214.06,122.58c0,9.86 -8,21.41 -17.86,21.41s-17.85,-11.56 -17.85,-21.42a17.86,17.86 0 1 1 35.71,0l0,0.01z"
          class="cls-20"/>
    <path id="svg_35"
          d="m201.29,105.45c2.56,3.35 1.52,7.5 3.2,11.42c2.35,5.46 3.68,12.75 1.37,18.2c-2,4.81 -3,6.38 -7.5,8.71c8.84,-1.52 15.69,-12.09 15.69,-21.22a17.86,17.86 0 0 0 -12.76,-17.11z"
          class="cls-21"/>
    <path id="svg_36"
          d="m196.31,141.35a5.86,5.86 0 0 1 -3.8,-1.45a0.67,0.67 0 0 1 0.94,-1c0.11,0.1 2.55,2.39 6,-0.06a0.67,0.67 0 1 1 0.78,1.09a6.59,6.59 0 0 1 -3.92,1.42z"
          class="cls-22"/>
    <path id="svg_37"
          d="m174.08,144.9l10.52,0l0.4,-25.54l3,5.41l19.46,0l2.48,-5.85l0.2,26l11.36,0s4.12,-32.4 -11,-43.65l-25.6,0c-16.29,11.24 -10.82,43.63 -10.82,43.63z"
          class="cls-14"/>
    <path id="svg_38"
          d="m193,130.47a0.67,0.67 0 0 1 -0.47,-0.2c-2.32,-2.32 -5.3,0 -5.43,0.05a0.67,0.67 0 0 1 -0.83,-1.06c1.39,-1.09 4.67,-2.47 7.2,0.06a0.67,0.67 0 0 1 -0.47,1.15zm13.4,0a0.67,0.67 0 0 1 -0.47,-0.2c-2.32,-2.32 -5.3,0 -5.43,0.05a0.67,0.67 0 0 1 -0.83,-1.06c1.39,-1.09 4.67,-2.47 7.2,0.06a0.67,0.67 0 0 1 -0.47,1.15zm-10.26,6.28a4,4 0 0 1 -1.37,-0.24a0.67,0.67 0 0 1 -0.39,-0.81l0.78,-2.67a0.67,0.67 0 1 1 1.29,0.38l-0.58,2a1.93,1.93 0 0 0 1,-0.12a0.67,0.67 0 0 1 0.55,1.23a3.1,3.1 0 0 1 -1.28,0.23z"
          class="cls-22"/>
    <path id="svg_39"
          d="m178.15,127.22c-0.35,0 -0.65,0 -0.67,-0.38c0,-0.14 -0.72,-14.32 10.94,-21.43a0.69,0.69 0 0 1 0.92,0.29a0.71,0.71 0 0 1 -0.22,1c-11,6.68 -10.3,20 -10.3,20.1c0,0.37 -0.26,0.48 -0.63,0.48l-0.04,-0.06z"
          class="cls-10"/>
    <path id="svg_40" d="m235.3,129.21l-7.74,8.73l15.57,0l-7.83,-8.73z" class="cls-23"/>
    <path id="svg_41" d="m234.96,133.71l-8.5,9.6l17.11,0l-8.61,-9.6z" class="cls-23"/>
    <path id="svg_42" d="m234.88,138.82l-9.34,10.52l18.77,0.01l-9.43,-10.53z" class="cls-23"/>
    <path id="svg_43" d="m243.19,151.64l-8.19,-9.19l-8.48,9.55q8.33,-0.27 16.67,-0.36z" class="cls-23"/>
    <path id="svg_44" d="m154.88,101.27l98.79,0l0,50.87l-98.79,0l0,-50.87z" class="cls-16"/>
    <path id="svg_45" d="m44.94,101.58l98.79,0l0,50.87l-98.79,0l0,-50.87z" class="cls-10"/>
    <path id="svg_46"
          d="m104.31,152.26c3.79,0 7.59,-0.23 11.39,-0.43c-2.12,-16.28 -14.88,-19.49 -14.88,-19.49l-12.59,0c-13,4.66 -15.16,15 -15.36,20.29c10.48,-0.07 20.96,-0.3 31.44,-0.37z"
          class="cls-23"/>
    <path id="svg_47"
          d="m104.53,131a0.5,0.5 0 0 0 -0.33,-0.24c-0.21,0 -0.76,-0.14 -9.68,6l-8.77,-7.11a0.44,0.44 0 0 0 -0.71,0.4l1.43,9.89a0.44,0.44 0 0 0 0.43,0.37l0.14,0l7.45,-2.53l7.32,2.53l0.14,0a0.44,0.44 0 0 0 0.42,-0.3c1.74,-5.5 2.46,-8.53 2.16,-9.01z"
          class="cls-24"/>
    <path id="svg_48" d="m95.3,152.35l0,-15.23l-1.6,0l0,15.26l1.6,-0.03z" class="cls-24"/>
    <circle id="svg_49" r="1.12" cy="142.26" cx="96.73" class="cls-10"/>
    <circle id="svg_50" r="1.12" cy="148.59" cx="96.73" class="cls-10"/>
    <path id="svg_51"
          d="m101.6,101.27l-11.49,0a16.75,16.75 0 0 0 -11.01,15.73c0,9.25 7.5,20.1 16.76,20.1s16.76,-10.84 16.76,-20.1a16.75,16.75 0 0 0 -11.02,-15.73z"
          class="cls-20"/>
    <path id="svg_52"
          d="m112.12,113.61l-0.65,-1.44a0.44,0.44 0 0 0 -0.39,-0.26l-27.46,-0.16a0.37,0.37 0 0 0 -0.24,0.07l-4.62,3.08a0.44,0.44 0 0 0 -0.15,0.56l0.82,1.6a0.43,0.43 0 0 0 0.28,0.22a0.44,0.44 0 0 0 0.35,-0.07l2.53,-2.42l0.68,1.27a0.36,0.36 0 0 0 0.09,0.2l0.95,1.3a0.49,0.49 0 0 0 0.34,0.21a0.48,0.48 0 0 0 0.34,-0.22l2.25,-3l2.43,3.06a0.42,0.42 0 0 0 0.33,0.15a0.44,0.44 0 0 0 0.34,-0.15l2.45,-2.61l3,2.41a0.44,0.44 0 0 0 0.57,0l2.67,-2.48c3.2,3.08 3.21,3.07 3.54,2.93a0.44,0.44 0 0 0 0.21,-0.19c0.21,-0.27 1.83,-2 3,-3.17c2.62,3.06 3,3.4 3.3,3.4l0.1,0a0.46,0.46 0 0 0 0.32,-0.26c0.13,-0.24 1.4,-2 2.54,-3.58a0.44,0.44 0 0 0 0.08,-0.45z"
          class="cls-21"/>
    <path id="svg_53"
          d="m101.63,101.27l-2,0c4.54,5 8.46,12 7.95,18.32c-0.49,6 0.22,10.68 -8.41,17c7.67,-2.17 13.44,-11.51 13.44,-19.63a16.75,16.75 0 0 0 -10.98,-15.69z"
          class="cls-21"/>
    <path id="svg_54"
          d="m81.35,101.27a29.4,29.4 0 0 0 -5,12.93a0.45,0.45 0 0 0 0,0.2l1.18,3.22a0.46,0.46 0 0 0 0.38,0.3a0.47,0.47 0 0 0 0.44,-0.2l2,-2.9l2.2,2.79c0.09,0.1 0.22,0.38 0.35,0.38c0.14,0 0.27,-0.28 0.35,-0.39l2.75,-3.33l1.81,3.06a0.44,0.44 0 0 0 0.36,0.2a0.48,0.48 0 0 0 0.39,-0.17l2.61,-2.92l2.24,3.38a0.41,0.41 0 0 0 0.35,0.19a0.45,0.45 0 0 0 0.34,-0.13l3.42,-3.55l2.65,3.46a0.46,0.46 0 0 0 0.72,0l3.41,-3.89l2.7,3.73a0.46,0.46 0 0 0 0.37,0.19a0.48,0.48 0 0 0 0.38,-0.19l2.61,-3.5l2.56,3.5a0.47,0.47 0 0 0 0.82,-0.15l0.85,-3.13a0.47,0.47 0 0 0 0,-0.17a29.69,29.69 0 0 0 -5.14,-12.93l-28.1,0.02z"
          class="cls-25"/>
    <path id="svg_55"
          d="m85.5,101.27a11,11 0 0 0 -3.23,5.8a0.87,0.87 0 0 0 0.66,1l0.19,0a0.87,0.87 0 0 0 0.85,-0.68a9.08,9.08 0 0 1 4.46,-6.19l-2.93,0.07z"
          class="cls-10"/>
    <path id="svg_56"
          d="m95.64,133.39a5.86,5.86 0 0 1 -3.8,-1.45a0.67,0.67 0 0 1 0.94,-1c0.11,0.1 2.55,2.39 6,-0.06a0.67,0.67 0 1 1 0.78,1.09a6.59,6.59 0 0 1 -3.92,1.42zm3.77,-13.23a0.67,0.67 0 0 1 0.47,0.2c2.32,2.32 5.3,0 5.43,-0.05a0.67,0.67 0 0 1 0.83,1.06c-1.39,1.09 -4.67,2.47 -7.2,-0.06a0.67,0.67 0 0 1 0.47,-1.15zm-13.41,-0.01a0.67,0.67 0 0 1 0.47,0.2c2.32,2.32 5.3,0 5.43,-0.05a0.67,0.67 0 0 1 0.83,1.06c-1.39,1.09 -4.67,2.47 -7.2,-0.06a0.67,0.67 0 0 1 0.47,-1.15zm22.88,8.65a4,4 0 0 1 -1.37,-0.24a0.67,0.67 0 0 1 -0.39,-0.81l0.78,-2.67a0.67,0.67 0 1 1 1.29,0.38l-0.58,2a1.93,1.93 0 0 0 1,-0.12a0.67,0.67 0 0 1 0.55,1.23a3.1,3.1 0 0 1 -1.28,0.23z"
          class="cls-22"/>
    <path id="svg_57" d="m44.94,101.58l98.79,0l0,50.87l-98.79,0l0,-50.87z" class="cls-16"/>
    <path id="svg_58" d="m153.8,163.19l98.79,0l0,50.87l-98.79,0l0,-50.87z" class="cls-10"/>
    <path id="svg_59"
          d="m222.09,213.77c-2.64,-5.19 -7.05,-10.92 -13,-14.28l-17.09,1.34s-7.58,2 -12.68,13.44c14.54,-0.22 28.79,-0.08 42.77,-0.5z"
          class="cls-18"/>
    <path id="svg_60"
          d="m207.12,208.9a2.86,2.86 0 0 1 0.13,0.74c3.25,-1 6.51,-2.32 8.84,-4.64c-0.55,-0.57 -1.12,-1.13 -1.72,-1.67c-1.29,0.55 -2.65,1 -4.06,1.58c-1.57,0.65 -3,1.46 -4.5,2.07a3.91,3.91 0 0 1 1.31,1.92zm-9.02,0.1a3.11,3.11 0 0 1 0.49,-1.06a16.56,16.56 0 0 1 -11,-4.56a23.86,23.86 0 0 0 -4.3,4.35a4.21,4.21 0 0 1 0.44,0.3c3.94,3.16 9.33,3.45 14.44,3a4.11,4.11 0 0 1 -0.07,-2.03z"
          class="cls-26"/>
    <path id="svg_61"
          d="m192.86,201.37c0,1.35 -0.5,3.22 -0.2,4.54s0.83,1.43 2.1,2a23,23 0 0 0 7.91,1.73a9.92,9.92 0 0 0 7.5,-3a20.69,20.69 0 0 0 1,-4.14c0,-0.2 0.07,-0.41 0.1,-0.61a28,28 0 0 0 -2.87,-1.89l-15.56,1.19c0.01,0.05 0.02,0.12 0.02,0.18z"
          class="cls-20"/>
    <path id="svg_62"
          d="m192.67,203.54c4.94,3.16 12.36,2.7 18,0.29l0.24,-0.14c0.08,-0.48 0.15,-0.91 0.22,-1.24s0.07,-0.41 0.1,-0.61a28,28 0 0 0 -2.83,-1.84l-15.56,1.19l0,0.19a18.79,18.79 0 0 1 -0.17,2.16z"
          class="cls-21"/>
    <path id="svg_63"
          d="m209.42,196.38l-2.08,0.39a5.88,5.88 0 0 1 -0.11,4.88c-1.39,3.05 -4.23,6.08 -7.8,6a8.3,8.3 0 0 1 -7.86,-7.26a2.3,2.3 0 0 1 0,-0.69l-3,-1.39s-4.8,2.47 -4,5.73c0,0 0.94,4.16 9.5,7.09a15,15 0 0 0 12.16,-1.46s8.45,-4.11 8.68,-7.94c0.03,0 -0.2,-2.98 -5.49,-5.35z"
          class="cls-18"/>
    <path id="svg_64"
          d="m216.89,183.91c0,9.86 -8,21.41 -17.86,21.41s-17.85,-11.56 -17.85,-21.42a17.86,17.86 0 1 1 35.71,0l0,0.01z"
          class="cls-20"/>
    <path id="svg_65"
          d="m204.8,167c9.85,12.31 8.71,21.42 4.53,31a25.57,25.57 0 0 1 -3,5.14c6.24,-3.8 10.59,-12 10.6,-19.26a17.86,17.86 0 0 0 -12.13,-16.88z"
          class="cls-21"/>
    <path id="svg_66"
          d="m202.06,164.5q-2,0.08 -4,0.09c-4.87,0.67 -17.62,3.72 -17.62,17.38c0,0 2.93,4.84 9.35,2c0,0 10.7,-12.39 18.58,-7.66c0.29,0.17 2.7,8.45 2.7,8.45l6.64,-0.45s1.07,-18.38 -15.65,-19.81z"
          class="cls-27"/>
    <path id="svg_67" d="m217.31,176.28c3.88,0 7.06,2.37 7.06,5.27l0,5c0,2.9 -3.18,5.27 -7.06,5.27l0,-15.54z"
          class="cls-14"/>
    <path id="svg_68"
          d="m217.31,192.49a0.67,0.67 0 0 1 -0.67,-0.67l0,-15.54a0.67,0.67 0 0 1 0.67,-0.67c4.26,0 7.73,2.67 7.73,5.94l0,5c-0.04,3.28 -3.47,5.94 -7.73,5.94zm0.69,-15.49l0,14.15c3.21,-0.24 5.72,-2.2 5.72,-4.57l0,-5c-0.02,-2.4 -2.53,-4.36 -5.72,-4.58zm-36.23,-0.72c-3.88,0 -7.06,2.37 -7.06,5.27l0,5c0,2.9 3.18,5.27 7.06,5.27l0,-15.54z"
          class="cls-14"/>
    <path id="svg_69"
          d="m181.77,192.49c-4.26,0 -7.73,-2.67 -7.73,-5.94l0,-5c0,-3.28 3.47,-5.94 7.73,-5.94a0.67,0.67 0 0 1 0.67,0.67l0,15.54a0.67,0.67 0 0 1 -0.67,0.67zm-0.67,-15.49c-3.21,0.24 -5.72,2.2 -5.72,4.57l0,5c0,2.37 2.51,4.33 5.72,4.57l0,-14.14z"
          class="cls-14"/>
    <path id="svg_70"
          d="m188.32,164.07a20,20 0 0 0 -10.39,17.3a1,1 0 1 0 2,0c0,-7.7 5.13,-14.29 12.35,-16.94q-1.97,-0.12 -3.96,-0.36zm21.88,-0.07q-2.12,0.16 -4.23,0.3c7.41,2.56 12.73,9.23 12.73,17.07a1,1 0 0 0 2,0a20,20 0 0 0 -10.5,-17.37z"
          class="cls-14"/>
    <path id="svg_71"
          d="m199.28,193.9a1.45,1.45 0 0 1 -1.18,-0.49c-0.75,-0.91 0,-2.5 0.25,-3a0.67,0.67 0 0 1 1.19,0.63a2.72,2.72 0 0 0 -0.4,1.49l0.12,0a2.46,2.46 0 0 0 0.71,-0.13a0.67,0.67 0 1 1 0.39,1.28a3.72,3.72 0 0 1 -1.08,0.22zm-0.14,-2.63zm-7.42,-2.78a0.67,0.67 0 0 1 -0.57,-1a3.71,3.71 0 0 1 2.57,-1.74a2.93,2.93 0 0 1 2.46,1.31a0.67,0.67 0 0 1 -1,0.84a1.71,1.71 0 0 0 -1.34,-0.81a2.44,2.44 0 0 0 -1.52,1.11a0.67,0.67 0 0 1 -0.6,0.29zm10.74,0a0.67,0.67 0 0 1 -0.57,-1a3.71,3.71 0 0 1 2.57,-1.74a2.93,2.93 0 0 1 2.46,1.31a0.67,0.67 0 0 1 -1,0.84a1.71,1.71 0 0 0 -1.34,-0.81a2.44,2.44 0 0 0 -1.52,1.11a0.67,0.67 0 0 1 -0.6,0.29zm-3.06,10.82a13.2,13.2 0 0 1 -7,-2.2a0.67,0.67 0 0 1 0.79,-1.09c0.26,0.19 6.43,4.54 12,-0.33a0.67,0.67 0 1 1 0.88,1a9.91,9.91 0 0 1 -6.67,2.62z"
          class="cls-22"/>
    <path id="svg_72" d="m204.77,174.2s-7.32,5.12 -7.56,9.51c0,0 -3.66,-3.41 -1.71,-10.24l9.27,0.73z" class="cls-27"/>
    <path id="svg_73" d="m209.33,176a45,45 0 0 0 -6.61,6.39s-0.89,-5.63 1.91,-9.32l4.7,2.93z" class="cls-27"/>
    <path id="svg_74"
          d="m217.58,212.67a11.52,11.52 0 0 1 3.46,-2.85l0.82,-0.45c1.65,-0.9 3.36,-1.84 4.19,-3.61a4.8,4.8 0 0 0 -0.08,-4.16a8.58,8.58 0 0 0 -3.52,-3.15a8.75,8.75 0 0 1 -2.87,-2.32a6.75,6.75 0 0 1 -0.81,-4.34a0.67,0.67 0 0 0 -0.63,-0.71a0.66,0.66 0 0 0 -0.71,0.62a8.26,8.26 0 0 0 1,5.18a9.87,9.87 0 0 0 3.28,2.71a7.5,7.5 0 0 1 3,2.62a3.43,3.43 0 0 1 0.06,3c-0.65,1.38 -2.16,2.21 -3.62,3l-0.84,0.47a12.59,12.59 0 0 0 -4,3.42c-0.13,0.18 -0.22,0.37 -0.34,0.56l1.61,0.01z"
          class="cls-14"/>
    <circle id="svg_75" r="0.85" cy="210.64" cx="195.71" class="cls-14"/>
    <circle id="svg_76" r="0.85" cy="210.64" cx="203.22" class="cls-14"/>
    <path id="svg_77"
          d="m183.05,178.46a0.7,0.7 0 0 1 -0.64,-0.75a8.46,8.46 0 0 1 6.47,-8.17a0.66,0.66 0 1 1 0.25,1.3a7.06,7.06 0 0 0 -5.37,6.94a0.71,0.71 0 0 1 -0.71,0.68z"
          class="cls-10"/>
    <path id="svg_78" d="m153.8,163.19l98.79,0l0,50.87l-98.79,0l0,-50.87z" class="cls-16"/>
    <path id="svg_79"
          d="m279.67,70.59l-55.62,0a5.94,5.94 0 0 0 -5.9,6.07l0,27.14a5.8,5.8 0 0 0 5.9,5.9l2,0l-1.54,10.94l14.69,-10.94l40.47,0a5.8,5.8 0 0 0 5.9,-5.9l0,-27.14a5.94,5.94 0 0 0 -5.9,-6.07zm-268.67,63.41l46.2,0a5.94,5.94 0 0 1 5.9,6.07l0,23.73a5.8,5.8 0 0 1 -5.9,5.9l-2,0l1.54,10.94l-14.69,-10.94l-31.05,0a5.8,5.8 0 0 1 -5.9,-5.9l0,-23.8a5.94,5.94 0 0 1 5.9,-6z"
          class="cls-28"/>
    <rect id="svg_80" ry="8" rx="8" height="135.63" width="72.81" y="169.16" x="231.41" class="cls-4"/>
    <path id="svg_81" d="m240.14,185.5l52.97,0l0,88.44l-52.97,0l0,-88.44z" class="cls-10"/>
    <rect id="svg_82" ry="8" rx="8" height="135.63" width="72.81" y="169.16" x="230.82" class="cls-9"/>
    <path id="svg_83"
          d="m240.9,223.69a13.48,13.48 0 0 1 8.77,-14.09l7.24,0s8.8,2.94 8.55,14.68l0,5.38l-24.61,0l0.05,-5.97z"
          class="cls-23"/>
    <path id="svg_84"
          d="m259.69,208.77a0.3,0.3 0 0 0 -0.2,-0.15c-0.13,0 -0.45,-0.09 -5.79,3.58l-5.25,-4.2a0.26,0.26 0 0 0 -0.42,0.24l0.86,5.92a0.26,0.26 0 0 0 0.26,0.22l0.08,0l4.46,-1.51l4.38,1.51l0.21,0a0.26,0.26 0 0 0 0.13,-0.15c1.02,-3.34 1.46,-5.15 1.28,-5.46z"
          class="cls-24"/>
    <path id="svg_85" d="m264.52,200.41c0,5.54 -4.49,12 -10,12s-10,-6.49 -10,-12a10,10 0 0 1 20,0z" class="cls-20"/>
    <path id="svg_86"
          d="m264.22,198.39l-0.39,-0.86a0.26,0.26 0 0 0 -0.24,-0.15l-16.43,-0.1a0.22,0.22 0 0 0 -0.15,0l-2.76,1.84a0.26,0.26 0 0 0 -0.09,0.34l0.49,1a0.26,0.26 0 0 0 0.17,0.13a0.26,0.26 0 0 0 0.21,0l1.52,-1.44l0.41,0.76a0.22,0.22 0 0 0 0.05,0.12l0.57,0.7c0,0.06 0.13,0 0.21,0l0.21,0l1.34,-1.73l1.45,1.85a0.26,0.26 0 0 0 0.2,0.1a0.26,0.26 0 0 0 0.2,-0.08l1.47,-1.61l1.81,1.45a0.26,0.26 0 0 0 0.34,0l1.6,-1.48c1.92,1.84 1.92,1.84 2.11,1.75a0.26,0.26 0 0 0 0.13,-0.11c0.13,-0.16 1.09,-1.17 1.8,-1.89c1.57,1.83 1.82,2 2,2l0.06,0a0.27,0.27 0 0 0 0.19,-0.16c0.08,-0.14 0.84,-1.21 1.52,-2.14a0.26,0.26 0 0 0 0,-0.29z"
          class="cls-21"/>
    <path id="svg_87"
          d="m256.35,190.56c2.88,3 5.48,7.46 5.16,11.41c-0.29,3.6 0.13,6.39 -5,10.19c4.59,-1.3 8,-6.88 8,-11.74a10,10 0 0 0 -8.16,-9.86z"
          class="cls-21"/>
    <path id="svg_88"
          d="m252.38,208.94a4.33,4.33 0 0 0 4.05,0m-2.25,-7.83l-1.52,5.61l1.96,0m-6.33,-4.49a3.33,3.33 0 0 0 3.83,0m3.99,0a3.33,3.33 0 0 0 3.83,0"
          class="cls-30"/>
    <path id="svg_89"
          d="m254.23,186.81c-10.13,0 -11.39,11.81 -11.4,11.93a0.27,0.27 0 0 0 0,0.12l0.71,1.93a0.28,0.28 0 0 0 0.23,0.18a0.28,0.28 0 0 0 0.26,-0.12l1.2,-1.74l1.31,1.53a0.27,0.27 0 0 0 0.21,0.08a0.27,0.27 0 0 0 0.21,-0.08l1.64,-1.93l1.08,1.87a0.28,0.28 0 0 0 0.45,0l1.56,-1.74l1.34,2a0.28,0.28 0 0 0 0.21,0.12a0.28,0.28 0 0 0 0.2,-0.09l2,-2.13l1.59,2.06a0.28,0.28 0 0 0 0.43,0l2,-2.33l1.62,2.23a0.28,0.28 0 0 0 0.22,0.12a0.29,0.29 0 0 0 0.23,-0.11l1.56,-2.1l1.53,2.09a0.28,0.28 0 0 0 0.28,0.11a0.28,0.28 0 0 0 0.22,-0.2l0.51,-1.87a0.28,0.28 0 0 0 0,-0.1c0.11,-0.02 -1.27,-11.83 -11.4,-11.83z"
          class="cls-14"/>
    <path id="svg_90" d="m251.1,190a5.88,5.88 0 0 0 -4.22,4.56" class="cls-31"/>
    <path id="svg_91" d="m240.23,185.6l26.42,0l0,44.52l-26.42,0" class="cls-32"/>
    <circle id="svg_92" r="6.15" cy="289.37" cx="267.86" class="cls-33"/>
    <path id="svg_93"
          d="m292.73,230c-0.77,-5.54 -1.59,-13.25 -7.94,-16.72l-10.51,0s-6.34,0 -8.16,16.46c8.49,-1.1 18.11,0.26 26.61,0.26z"
          class="cls-11"/>
    <path id="svg_94" d="m289.27,205.32c0,5.47 -4.44,11.88 -9.91,11.88s-9.9,-6.41 -9.9,-11.88a9.91,9.91 0 1 1 19.81,0z"
          class="cls-12"/>
    <path id="svg_95"
          d="m287.46,199.62l0,0.72a17.21,17.21 0 0 1 -1.43,8.23a15,15 0 0 1 -5.37,5.84a41.53,41.53 0 0 1 -3.73,2.38a7.25,7.25 0 0 0 2.37,0.41c5.47,0 9.91,-6.41 9.91,-11.88a9.85,9.85 0 0 0 -1.75,-5.7z"
          class="cls-13"/>
    <path id="svg_96"
          d="m275.53,194.34a2.25,2.25 0 0 0 -2.14,2.25l0,0.18a2.25,2.25 0 0 0 -2.86,3.08a2.25,2.25 0 0 0 -1.43,4a2.25,2.25 0 1 0 3.32,2.83a2.25,2.25 0 0 0 3.54,-0.21a2.25,2.25 0 0 0 3.71,0a2.25,2.25 0 0 0 3.71,0a2.25,2.25 0 0 0 3.54,0.21a2.25,2.25 0 1 0 3.08,-3a2.25,2.25 0 0 0 -1.5,-3.84a2.24,2.24 0 0 0 -2.19,-3.55a2.25,2.25 0 0 0 -3.36,-2.66a2.24,2.24 0 0 0 -0.34,-0.73l-3.68,0s-0.07,0.07 -0.09,0.12a2.3,2.3 0 0 0 -0.28,-0.12l-1.7,0a2.25,2.25 0 0 0 -1.33,1.44z"
          class="cls-14"/>
    <path id="svg_97"
          d="m280.24,213.72l-2.23,-0.2a0.44,0.44 0 0 1 -0.29,-0.21a0.43,0.43 0 0 1 0,-0.35l1.3,-4a0.38,0.38 0 0 1 0.47,-0.25a0.37,0.37 0 0 1 0.24,0.47l-1.15,3.53l1.74,0.07c0.21,0 0.36,0.29 0.36,0.49s-0.24,0.45 -0.44,0.45zm-6.57,-3.52a0.37,0.37 0 0 1 -0.24,-0.66a2.91,2.91 0 0 1 3.89,0a0.37,0.37 0 0 1 -0.51,0.55a2.2,2.2 0 0 0 -2.9,0a0.37,0.37 0 0 1 -0.24,0.11zm8.19,0a0.37,0.37 0 0 1 -0.24,-0.66a2.91,2.91 0 0 1 3.89,0a0.37,0.37 0 0 1 -0.51,0.55a2.2,2.2 0 0 0 -2.9,0a0.37,0.37 0 0 1 -0.24,0.11z"
          class="cls-15"/>
    <path id="svg_98"
          d="m272.2,203.25c-0.21,0 -0.37,-0.1 -0.36,-0.31a4.61,4.61 0 0 1 3.52,-4.53a0.39,0.39 0 0 1 0.15,0.76a3.76,3.76 0 0 0 -2.93,3.8c-0.01,0.19 -0.18,0.28 -0.38,0.28z"
          class="cls-10"/>
    <path id="svg_99"
          d="m279.68,215.82a5.58,5.58 0 0 1 -2,-0.36l0.07,0a0.59,0.59 0 0 1 0,-1.18a0.8,0.8 0 0 1 0.31,0.07a4.37,4.37 0 0 0 3.06,0a0.59,0.59 0 0 1 0.39,1.11a5.69,5.69 0 0 1 -1.83,0.36zm-1.86,-0.36zm0,0z"
          class="cls-15"/>
    <path id="svg_100" d="m266.67,185.6l26.42,0l0,44.53l-26.42,0l0,-44.53z" class="cls-32"/>
    <circle id="svg_101" r="2.26" cy="194.69" cx="277.89" class="cls-14"/>
    <circle id="svg_102" r="2.26" cy="193.69" cx="280.52" class="cls-14"/>
    <path id="svg_103"
          d="m289.76,249.61a0.29,0.29 0 0 0 -0.32,0.08l-2.05,2.41a0.29,0.29 0 0 0 0,0.4l0.91,0.91a0.29,0.29 0 0 0 0.21,0.09l0.1,0a0.29,0.29 0 0 0 0.19,-0.25c0,-0.34 0.08,-0.76 0.12,-1.13l0.15,0.31a0.29,0.29 0 0 0 0.56,-0.08c0.1,-0.68 0.32,-2.29 0.32,-2.45a0.29,0.29 0 0 0 -0.19,-0.29zm-15.7,1.27a0.29,0.29 0 0 0 -0.16,-0.16l-2.45,-0.95a0.29,0.29 0 0 0 -0.4,0.3l0.24,2.76a0.3,0.3 0 0 0 0.41,0.25l0.3,-0.12l0.39,0.79a0.32,0.32 0 0 0 0.26,0.19a0.31,0.31 0 0 0 0.26,-0.2l1.14,-2.63a0.29,0.29 0 0 0 0.01,-0.23z"
          class="cls-27"/>
    <path id="svg_104"
          d="m293,260.6a18,18 0 0 0 -6.59,-6.42l-10.06,0.74s-8.57,2.31 -9.94,18.48a6.41,6.41 0 0 1 0.25,0.92a5.89,5.89 0 0 1 2.38,-0.47c7.65,0 15.31,0.21 23,0.19c1.39,-3.46 0.96,-10.23 0.96,-13.44z"
          class="cls-18"/>
    <path id="svg_105"
          d="m285.24,259.6a1.68,1.68 0 0 1 0.07,0.44a12.42,12.42 0 0 0 5.21,-2.74c-0.32,-0.34 -0.66,-0.67 -1,-1c-0.76,0.33 -1.56,0.59 -2.4,0.93s-1.76,0.86 -2.65,1.22a2.3,2.3 0 0 1 0.77,1.15zm-5.31,0.05a1.83,1.83 0 0 1 0.29,-0.62a9.76,9.76 0 0 1 -6.5,-2.69a14.06,14.06 0 0 0 -2.54,2.56l0.26,0.18c2.32,1.86 4.38,1.49 7.39,1.25c-0.12,-0.4 1.01,-0.33 1.1,-0.68z"
          class="cls-26"/>
    <path id="svg_106"
          d="m276.84,255.16a14,14 0 0 0 -0.12,2.67c0.17,0.71 0.49,0.84 1.24,1.16a13.56,13.56 0 0 0 4.66,1a5.85,5.85 0 0 0 4.42,-1.77a12.2,12.2 0 0 0 0.58,-2.44c0,-0.12 0,-0.24 0.06,-0.36a16.49,16.49 0 0 0 -1.69,-1.09l-9.17,0.7s0.02,0.09 0.02,0.13z"
          class="cls-20"/>
    <path id="svg_107"
          d="m276.73,256.44c5.19,3.36 7.26,2.17 10.6,0.75c0,0 0.12,-0.64 0.17,-0.67c0,-0.28 0.09,-0.54 0.13,-0.73s0,-0.24 0.06,-0.36a16.49,16.49 0 0 0 -1.69,-1.09l-9.17,0.7l0,0.11a11.07,11.07 0 0 1 -0.1,1.29z"
          class="cls-21"/>
    <path id="svg_108"
          d="m286.6,252.22l-1.23,0.23a3.46,3.46 0 0 1 -0.07,2.88c-0.82,1.8 -2.49,3.58 -4.59,3.53a4.89,4.89 0 0 1 -4.63,-4.28a1.36,1.36 0 0 1 0,-0.4l-1.75,-0.82s-2.83,1.45 -2.36,3.38c0,0 0.55,2.45 5.6,4.18a8.81,8.81 0 0 0 7.17,-0.86s5,-2.42 5.11,-4.68c0.01,-0.01 -0.13,-1.77 -3.25,-3.16z"
          class="cls-18"/>
    <path id="svg_109"
          d="m291,244.86c0,5.81 -4.72,12.62 -10.53,12.62s-10.47,-6.81 -10.47,-12.62a10.52,10.52 0 0 1 21,0z"
          class="cls-20"/>
    <path id="svg_110"
          d="m283.88,234.9c5.81,7.25 5.13,12.63 2.67,18.29a15.07,15.07 0 0 1 -1.79,3a14.08,14.08 0 0 0 6.24,-11.33a10.53,10.53 0 0 0 -7.12,-9.96z"
          class="cls-21"/>
    <path id="svg_111"
          d="m276.17,247.17s1.09,-1.74 2.32,-0.22m4.01,0.22s1.09,-1.74 2.32,-0.22m-7.05,6.38s3,2.18 5.67,-0.16"
          class="cls-34"/>
    <path id="svg_112"
          d="m269.25,243.76a0.18,0.18 0 0 0 0,0.12a3.74,3.74 0 0 0 3.27,2.38a9.37,9.37 0 0 0 2.61,-1.07a0.29,0.29 0 0 0 0.1,-0.08a22,22 0 0 1 2.68,-2.52a5,5 0 0 0 1.29,2.41a0.29,0.29 0 0 0 0.49,-0.2c0.08,-1.47 1.69,-3.15 2.82,-4.16a9.85,9.85 0 0 0 -0.15,3.43a0.29,0.29 0 0 0 0.52,0.13a22.11,22.11 0 0 1 3.07,-3.08c0.44,1.28 1.63,5.23 1.64,5.27a0.3,0.3 0 0 0 0.3,0.21l3.92,-0.26a0.28,0.28 0 0 0 0.27,-0.27c0,-0.23 0.22,-6.54 -3.12,-10.07a11.81,11.81 0 0 0 -8.28,-3.45s-11.15,0.56 -11.43,11.21z"
          class="cls-27"/>
    <circle id="svg_113" r="0.75" cy="260.62" cx="278.52" class="cls-14"/>
    <circle id="svg_114" r="0.75" cy="260.62" cx="282.95" class="cls-14"/>
    <path id="svg_115" d="m278,268.27c0,-0.19 -0.77,-5.67 0.47,-7.52l0.09,-0.13m4.52,0.22a12.25,12.25 0 0 1 1.4,7"
          class="cls-35"/>
    <path id="svg_116" d="m276.79,236.6a4.89,4.89 0 0 0 -3.74,4.63" class="cls-36"/>
    <path id="svg_117"
          d="m291.17,249.82a5.44,5.44 0 0 0 2.11,-0.43q0.13,-4.4 0.2,-8.81a5.4,5.4 0 0 0 -2.31,-0.51a0.27,0.27 0 0 0 -0.26,0.29l0,9.16a0.27,0.27 0 0 0 0.26,0.3zm-21.17,-9.74a5.42,5.42 0 0 0 -3.27,1l0,0.07c0,2.41 -0.19,4.81 -0.43,7.2a5.22,5.22 0 0 0 3.69,1.43c0.16,0 0.41,-0.13 0.41,-0.29l0,-9.16c0,-0.12 -0.25,-0.25 -0.4,-0.25z"
          class="cls-14"/>
    <path id="svg_118" d="m292.38,241.64l0,3.22" class="cls-35"/>
    <rect id="svg_119" ry="1.11" rx="1.11" height="10.61" width="2.61" y="239.65" x="268.83" class="cls-18"/>
    <rect id="svg_120" ry="1.11" rx="1.11" height="10.61" width="2.61" y="239.65" x="290.07" class="cls-18"/>
    <path id="svg_121"
          d="m267.76,244.12a0.75,0.75 0 0 1 -0.75,-0.75c0,-7 5.15,-10.7 10,-11.81c5.81,-1.34 13.3,0.59 16.39,6.9a0.75,0.75 0 1 1 -1.35,0.66c-2.75,-5.6 -9.48,-7.31 -14.71,-6.1c-4.25,1 -8.79,4.22 -8.79,10.35a0.75,0.75 0 0 1 -0.79,0.75z"
          class="cls-14"/>
    <path id="svg_122"
          d="m289,236.27a2,2 0 0 1 -1,-0.27a13,13 0 0 0 -7.13,-2a13.71,13.71 0 0 0 -7.31,2a2,2 0 0 1 -2.13,-3.27a17.46,17.46 0 0 1 9.44,-2.66a16.9,16.9 0 0 1 9.26,2.66a2,2 0 0 1 -1.07,3.59l-0.06,-0.05z"
          class="cls-14"/>
    <path id="svg_123" d="m280.22,247.5l-0.73,3.81l1.75,0" class="cls-34"/>
    <path id="svg_124" d="m266.67,230.12l26.42,0l0,44.53l-26.42,0l0,-44.53z" class="cls-32"/>
    <path id="svg_125" d="m253.68,212.8l0,16.81" class="cls-37"/>
    <path id="svg_126" d="m240.23,230.12l0,-44.52" class="cls-32"/>
    <path id="svg_127" d="m245.96,245.4l14.83,0l0,12.36l-14.83,0l0,-12.36z" class="cls-14"/>
    <path id="svg_128"
          d="m240.39,273.44l0,0.16a3.48,3.48 0 0 0 2.42,-1.63c1.29,-1.83 4.32,-0.08 3,1.77l0.5,0l0,-19.56l-3.59,-2.38l-2.32,-3c0,2.39 -0.12,4.76 -0.26,7.14c0.14,4.92 0.16,9.85 0.2,14.78a10.71,10.71 0 0 1 0.05,2.72z"
          class="cls-4"/>
    <path id="svg_129"
          d="m259,255.58l-11.38,0l-5,8.06l-0.55,10.16c3.44,0 6.88,-0.1 10.33,-0.1a5.11,5.11 0 0 1 2,0.38c3.15,-0.12 6.29,-0.19 9.4,-0.08l0,-13.17l-4.8,-5.25z"
          class="cls-7"/>
    <path id="svg_130" d="m253.24,274.13l-0.7,-0.19l0.05,-16.23l0.7,0.84l-0.05,15.58z" class="cls-11"/>
    <path id="svg_131"
          d="m254.33,260.81l-0.05,0a0.35,0.35 0 0 1 -0.24,-0.16l-1.33,-2.08a0.35,0.35 0 0 1 0.11,-0.49l1,-0.59a0.35,0.35 0 0 1 0.47,0.1l1.33,1.86a0.35,0.35 0 0 1 -0.06,0.47l-1,0.8a0.35,0.35 0 0 1 -0.23,0.09zm-0.49,-1.62l0.57,0.74l0.4,-0.34l-0.6,-0.64l-0.37,0.24z"
          class="cls-18"/>
    <path id="svg_132"
          d="m266.93,263.77c-1.61,-7.08 -8.72,-8.4 -8.72,-8.4l2.29,7.72c1.86,5.89 0.29,9.57 -0.43,10.84c2,0 4,0 6,0.18a18,18 0 0 0 1.22,-7.18c-0.15,-1.05 -0.29,-2.1 -0.36,-3.16z"
          class="cls-7"/>
    <path id="svg_133"
          d="m266.93,263.77c-1.61,-7.08 -8.72,-8.4 -8.72,-8.4l0.16,0.55a16.71,16.71 0 0 1 7.73,13.1a16.38,16.38 0 0 1 0.75,2.67a21.71,21.71 0 0 0 0.43,-4.75c-0.14,-1.05 -0.28,-2.11 -0.35,-3.17z"
          class="cls-19"/>
    <path id="svg_134"
          d="m240.39,273.44l0,0.37l9.38,-0.09a9.66,9.66 0 0 0 -0.56,-3.33s-8.44,0.43 -4.79,-6.92l1.48,-2.76l2.64,-5.3s-0.58,0.11 -2.64,0.36a10.12,10.12 0 0 0 -5.68,3.25c0.08,3.9 0.1,7.8 0.13,11.71a10.71,10.71 0 0 1 0.04,2.71z"
          class="cls-7"/>
    <path id="svg_135" d="m262,247.44c0,5.14 -4.17,11.16 -9.31,11.16s-9.3,-6 -9.3,-11.16a9.31,9.31 0 0 1 18.61,0z"
          class="cls-20"/>
    <path id="svg_136"
          d="m255.35,238.52c1.33,1.74 0.79,3.91 1.67,6c1.22,2.85 1.92,6.64 0.71,9.49c-1.06,2.51 -1.59,3.32 -3.91,4.54c4.61,-0.79 8.18,-6.3 8.18,-11.06a9.31,9.31 0 0 0 -6.65,-8.97z"
          class="cls-21"/>
    <path id="svg_137"
          d="m252.76,256.67a3.05,3.05 0 0 1 -2,-0.76a0.35,0.35 0 0 1 0.49,-0.5a2.36,2.36 0 0 0 3.11,0a0.35,0.35 0 1 1 0.41,0.57a3.43,3.43 0 0 1 -2.01,0.69z"
          class="cls-22"/>
    <path id="svg_138"
          d="m259.84,245.54l-1.29,3l-10.15,0l-1.54,-2.82l-0.21,13.31l-5.48,0s-4.19,-24.73 12.6,-24.72c15.27,0 12.12,24.73 12.12,24.73l-5.94,0l-0.11,-13.5z"
          class="cls-14"/>
    <path id="svg_139"
          d="m251,251a0.35,0.35 0 0 1 -0.25,-0.1c-1.21,-1.21 -2.76,0 -2.83,0a0.35,0.35 0 0 1 -0.43,-0.55a2.82,2.82 0 0 1 3.75,0a0.35,0.35 0 0 1 -0.25,0.6l0.01,0.05zm6.99,-0.05a0.35,0.35 0 0 1 -0.25,-0.1c-1.21,-1.21 -2.76,0 -2.83,0a0.35,0.35 0 0 1 -0.43,-0.55a2.82,2.82 0 0 1 3.75,0a0.35,0.35 0 0 1 -0.25,0.6l0.01,0.05zm-5.33,3.27a2.1,2.1 0 0 1 -0.72,-0.13a0.35,0.35 0 0 1 -0.21,-0.42l0.41,-1.39a0.35,0.35 0 0 1 0.67,0.2l-0.3,1a1,1 0 0 0 0.52,-0.06a0.35,0.35 0 0 1 0.28,0.64a1.61,1.61 0 0 1 -0.65,0.16z"
          class="cls-22"/>
    <path id="svg_140"
          d="m243.29,249.56a0.35,0.35 0 0 1 -0.35,-0.33c0,-0.07 -0.38,-7.53 5.7,-11.23a0.35,0.35 0 0 1 0.36,0.6c-5.71,3.48 -5.37,10.52 -5.37,10.59a0.35,0.35 0 0 1 -0.33,0.37l-0.01,0z"
          class="cls-10"/>
    <path id="svg_141" d="m240.23,230.12l26.42,0l0,44.53l-26.42,0l0,-44.53z" class="cls-32"/>
    <circle id="svg_142" r="1.63" cy="177.22" cx="275.64" class="cls-18"/>
    <path id="svg_143" d="m262.64,177.27l8.33,0" class="cls-9"/>
    <path id="svg_144" d="m303.26,185.59l3.37,0l0,11.45l-3.37,0l0,-11.45z" class="cls-18"/>
    <text xml:space="preserve" text-anchor="start" font-family="Helvetica, Arial, sans-serif" font-size="14" id="svg_145" y="89.788086" x="50.947022" stroke-opacity="null" stroke-width="0" stroke="null" fill="#70d6ff">https://rtconn.io/</text>
  <text xml:space="preserve" text-anchor="start" font-family="Helvetica, Arial, sans-serif" font-size="14" id="svg_146" y="89.851344" x="150.389035" fill-opacity="null" stroke-opacity="null" stroke-width="0" stroke="null" fill="#ff9770">eul_comp</text>
  </g>
</svg>