<svg width="320" height="320" xmlns="http://www.w3.org/2000/svg">
  <defs>
    <style>
      .cls-1{fill:#41cc8d}.cls-2{fill:#6eedb0}.cls-3{fill:#e5dfda}.cls-4{fill:#1e965c}.cls-19,.cls-5{fill:#fff}.cls-6{fill:#bcbcbc}.cls-7{fill:#38cc8a}.cls-8{fill:#ff2860}.cls-9{fill:#ededed}.cls-10,.cls-15,.cls-25{fill:none}.cls-10{stroke:#bcbcbc;stroke-miterlimit:10}.cls-10,.cls-15,.cls-19{stroke-width:2px}.cls-11{fill:#d8d8d8}.cls-12{fill:#222}.cls-13{fill:#ffdbc0}.cls-14{fill:#edc9b0}.cls-15{stroke:#b28d74}.cls-15,.cls-19,.cls-25{stroke-linecap:round;stroke-linejoin:round}.cls-16{fill:#ce926a}.cls-17{fill:#e5ab83}.cls-18{fill:#424242}.cls-19{stroke:#222}.cls-20{fill:#8e8e8e}.cls-21{fill:#ff2e63}.cls-22{fill:#e5dcd6}.cls-23{fill:#ffeea9}.cls-24{fill:#ffdd4d}.cls-25{stroke:#fff;stroke-width:4px}
    </style>
  </defs>
  <title>Create</title>
  <g>
    <title>background</title>
    <rect fill="none" id="canvas_background" height="402" width="582" y="-1" x="-1"/>
  </g>
  <g>
    <title>Layer 1</title>
    <path id="svg_1" d="m29.86,178.2s-6.39,-42 37.48,-60.22l30.95,0s37.6,12.56 36.52,62.75l0,23l-105.12,0l0.17,-25.53z"
          class="cls-1"/>
    <path id="svg_2"
          d="m30.85,203.73l2.15,0l0,-3.22l5.36,0l0,3.22l2.14,0l0,-3.22l5.36,0l0,3.22l2.14,0l0,-3.22l4.29,0l0,3.22l2.14,0l0,-3.22l5.36,0l0,3.22l2.14,0l0,-3.22l5.36,0l0,3.22l2.14,0l0,-3.22l5.36,0l0,3.22l2.14,0l0,-3.22l4.29,0l0,3.22l2.14,0l0,-3.22l5.36,0l0,3.22l2.14,0l0,-3.22l5.36,0l0,3.22l2.14,0l0,-3.22l4.29,0l0,3.22l2.14,0l0,-3.22l5.36,0l0,3.22l2.14,0l0,-3.22l5.36,0l0,3.22l2.14,0l0,-3.22l5.36,0l0,3.22l2.14,0l0,-3.22l4.29,0l0,3.22l2.14,0l0,-3.22l1.07,0l0,-2.14l-1.07,0l0,-4.29l1.07,0l0,-2.14l-1.07,0l0,-5.36l1.07,0l0,-2.14l-1.07,0l0,-5.36l1.07,0l0,-2.14l-1.06,0l0,-5.36l0.82,0c-0.06,-0.73 -0.14,-1.43 -0.22,-2.14l-0.6,0l0,-4.29a72,72 0 0 0 -2.2,-9.65l-4.27,0l0,-5.36l2.39,0c-0.3,-0.73 -0.61,-1.44 -0.92,-2.14l-1.47,0l0,-3.08q-1.2,-2.33 -2.52,-4.43l-5,0l0,-4.29l2,0q-0.84,-1.11 -1.71,-2.14l-0.33,0l0,-0.38q-1.06,-1.25 -2.14,-2.39l0,2.77l-5.26,0l0,-5.36l2.75,0a56.74,56.74 0 0 0 -2.45,-2.14l-0.3,0l0,-0.25c-0.72,-0.59 -1.44,-1.16 -2.14,-1.68l0,1.93l-5.36,0l0,-5.36l0.2,0c-1.6,-0.93 -3,-1.64 -4.09,-2.14l-2.5,0l0,-1l-2.18,0l0,1.07l-5.36,0l0,-1.13l-2.15,0l0,1.07l-5.36,0l0,-1.07l-2.14,0l0,1.07l-4.29,0l0,-1.07l-2.14,0l0,1.07l-5.36,0l0,-1.07l-2.14,0l0,1l-2.4,0q-2.68,1.22 -5.1,2.56l0,4.95l-5.36,0l0,-1.65c-0.74,0.5 -1.45,1 -2.14,1.53l0,0.12l-0.17,0q-1.4,1.05 -2.69,2.14l2.86,0l0,5.36l-4.29,0l0,-4.01q-1.12,1 -2.14,2l0,2.08l-2,0q-1,1.06 -1.84,2.14l3.81,0l0,4.29l-5.34,0l0,-2.28q-1.62,2.19 -2.94,4.42l0.79,0l0,5.35l-3.58,0c-0.33,0.72 -0.63,1.43 -0.92,2.14l4.51,0l0,5.36l-5.35,0l0,-3.11a58.9,58.9 0 0 0 -2.15,7.61l0,3l-0.55,0q-0.17,1.1 -0.3,2.14l0.85,0l0,4.29l-1.23,0c0,0.75 -0.06,1.47 -0.07,2.14l1.3,0l0,5.36l-1.13,0c0.07,0.82 0.14,1.27 0.14,1.27l0,0.88l1,0l0,5.36l-1,0l0,2.14l1,0l0,5.36l-1.09,0l0,2.14l1.09,0l0,4.29l-1.13,0l0,2.14l1.13,0l-0.01,3.22zm96.47,-49.31l4.29,0l0,8.58l-4.29,0l0,-8.58zm0,7.5l4.29,0l0,4.29l-4.29,0l0,-4.29zm0,6.43l4.29,0l0,5.36l-4.29,0l0,-5.36zm0,7.5l4.29,0l0,5.36l-4.29,0l0,-5.36zm0,7.5l4.29,0l0,5.36l-4.29,0l0,-5.36zm0,7.5l4.29,0l0,4.29l-4.29,0l0,-4.29zm-7.5,-51.45l5.36,0l0,8.6l-5.36,0l0,-8.6zm0,7.5l5.36,0l0,5.36l-5.36,0l0,-5.36zm0,7.5l5.36,0l0,8.6l-5.36,0l0,-8.6zm0,7.5l5.36,0l0,4.29l-5.36,0l0,-4.29zm0,6.43l5.36,0l0,5.36l-5.36,0l0,-5.36zm0,7.5l5.36,0l0,5.36l-5.36,0l0,-5.36zm0,7.5l5.36,0l0,5.36l-5.36,0l0,-5.36zm0,7.5l5.36,0l0,4.29l-5.36,0l0,-4.29zm-7.5,-57.88l5.36,0l0,4.29l-5.37,0l0.01,-4.29zm0,6.43l5.36,0l0,5.4l-5.37,0l0.01,-5.4zm0,7.5l5.36,0l0,5.36l-5.37,0l0.01,-5.36zm0,7.5l5.36,0l0,5.4l-5.37,0l0.01,-5.4zm0,7.5l5.36,0l0,4.29l-5.37,0l0.01,-4.29zm0,6.43l5.36,0l0,5.36l-5.37,0l0.01,-5.36zm0,7.5l5.36,0l0,5.36l-5.37,0l0.01,-5.36zm0,7.5l5.36,0l0,5.36l-5.37,0l0.01,-5.36zm0,7.5l5.36,0l0,4.29l-5.37,0l0.01,-4.29zm-7.5,-65.38l5.36,0l0,5.36l-5.37,0l0.01,-5.36zm0,7.5l5.36,0l0,4.29l-5.37,0l0.01,-4.29zm0,6.43l5.36,0l0,8.64l-5.37,0l0.01,-8.64zm0,7.5l5.36,0l0,5.36l-5.37,0l0.01,-5.36zm0,7.5l5.36,0l0,8.64l-5.37,0l0.01,-8.64zm0,7.5l5.36,0l0,4.29l-5.37,0l0.01,-4.29zm0,6.43l5.36,0l0,5.36l-5.37,0l0.01,-5.36zm0,7.5l5.36,0l0,5.36l-5.37,0l0.01,-5.36zm0,7.5l5.36,0l0,5.36l-5.37,0l0.01,-5.36zm0,7.5l5.36,0l0,4.29l-5.37,0l0.01,-4.29zm-6.44,-72.81l4.29,0l0,5.36l-4.29,0l0,-5.36zm0,7.5l4.29,0l0,5.36l-4.29,0l0,-5.36zm0,7.5l4.29,0l0,4.29l-4.29,0l0,-4.29zm0,6.43l4.29,0l0,8.59l-4.29,0l0,-8.59zm0,7.5l4.29,0l0,5.36l-4.29,0l0,-5.36zm0,7.5l4.29,0l0,8.59l-4.29,0l0,-8.59zm0,7.5l4.29,0l0,4.29l-4.29,0l0,-4.29zm0,6.43l4.29,0l0,5.36l-4.29,0l0,-5.36zm0,7.5l4.29,0l0,5.36l-4.29,0l0,-5.36zm0,7.5l4.29,0l0,5.36l-4.29,0l0,-5.36zm0,7.5l4.29,0l0,4.29l-4.29,0l0,-4.29zm-7.5,-72.88l5.36,0l0,5.36l-5.36,0l0,-5.36zm0,7.5l5.36,0l0,5.36l-5.36,0l0,-5.36zm0,7.5l5.36,0l0,4.29l-5.36,0l0,-4.29zm0,6.43l5.36,0l0,8.61l-5.36,0l0,-8.61zm0,7.5l5.36,0l0,5.36l-5.36,0l0,-5.36zm0,7.5l5.36,0l0,8.61l-5.36,0l0,-8.61zm0,7.5l5.36,0l0,4.29l-5.36,0l0,-4.29zm0,6.43l5.36,0l0,5.36l-5.36,0l0,-5.36zm0,7.5l5.36,0l0,5.36l-5.36,0l0,-5.36zm0,7.5l5.36,0l0,5.36l-5.36,0l0,-5.36zm0,7.5l5.36,0l0,4.29l-5.36,0l0,-4.29zm-7.5,-72.88l5.36,0l0,5.36l-5.37,0l0.01,-5.36zm0,7.5l5.36,0l0,5.36l-5.37,0l0.01,-5.36zm0,7.5l5.36,0l0,4.29l-5.37,0l0.01,-4.29zm0,6.43l5.36,0l0,8.63l-5.37,0l0.01,-8.63zm0,7.5l5.36,0l0,5.36l-5.37,0l0.01,-5.36zm0,7.5l5.36,0l0,8.63l-5.37,0l0.01,-8.63zm0,7.5l5.36,0l0,4.29l-5.37,0l0.01,-4.29zm0,6.43l5.36,0l0,5.36l-5.37,0l0.01,-5.36zm0,7.5l5.36,0l0,5.36l-5.37,0l0.01,-5.36zm0,7.5l5.36,0l0,5.36l-5.37,0l0.01,-5.36zm0,7.5l5.36,0l0,4.29l-5.37,0l0.01,-4.29zm-6.44,-72.82l4.29,0l0,5.36l-4.29,0l0,-5.36zm0,7.5l4.29,0l0,5.36l-4.29,0l0,-5.36zm0,7.5l4.29,0l0,4.29l-4.29,0l0,-4.29zm0,6.43l4.29,0l0,8.59l-4.29,0l0,-8.59zm0,7.5l4.29,0l0,5.36l-4.29,0l0,-5.36zm0,7.5l4.29,0l0,8.59l-4.29,0l0,-8.59zm0,7.5l4.29,0l0,4.29l-4.29,0l0,-4.29zm0,6.43l4.29,0l0,5.36l-4.29,0l0,-5.36zm0,7.5l4.29,0l0,5.36l-4.29,0l0,-5.36zm0,7.5l4.29,0l0,5.36l-4.29,0l0,-5.36zm0,7.5l4.29,0l0,4.29l-4.29,0l0,-4.29zm-7.5,-72.88l5.36,0l0,5.36l-5.36,0l0,-5.36zm0,7.5l5.36,0l0,5.36l-5.36,0l0,-5.36zm0,7.5l5.36,0l0,4.29l-5.36,0l0,-4.29zm0,6.43l5.36,0l0,8.61l-5.36,0l0,-8.61zm0,7.5l5.36,0l0,5.36l-5.36,0l0,-5.36zm0,7.5l5.36,0l0,8.61l-5.36,0l0,-8.61zm0,7.5l5.36,0l0,4.29l-5.36,0l0,-4.29zm0,6.43l5.36,0l0,5.36l-5.36,0l0,-5.36zm0,7.5l5.36,0l0,5.36l-5.36,0l0,-5.36zm0,7.5l5.36,0l0,5.36l-5.36,0l0,-5.36zm0,7.5l5.36,0l0,4.29l-5.36,0l0,-4.29zm-7.5,-72.88l5.36,0l0,5.36l-5.36,0l0,-5.36zm0,7.5l5.36,0l0,5.36l-5.36,0l0,-5.36zm0,7.5l5.36,0l0,4.29l-5.36,0l0,-4.29zm0,6.43l5.36,0l0,8.63l-5.36,0l0,-8.63zm0,7.5l5.36,0l0,5.36l-5.36,0l0,-5.36zm0,7.5l5.36,0l0,8.63l-5.36,0l0,-8.63zm0,7.5l5.36,0l0,4.29l-5.36,0l0,-4.29zm0,6.43l5.36,0l0,5.36l-5.36,0l0,-5.36zm0,7.5l5.36,0l0,5.36l-5.36,0l0,-5.36zm0,7.5l5.36,0l0,5.36l-5.36,0l0,-5.36zm0,7.5l5.36,0l0,4.29l-5.36,0l0,-4.29zm-7.5,-65.38l5.36,0l0,8.58l-5.36,0l0,-8.58zm0,7.5l5.36,0l0,4.29l-5.36,0l0,-4.29zm0,6.43l5.36,0l0,8.65l-5.36,0l0,-8.65zm0,7.5l5.36,0l0,5.36l-5.36,0l0,-5.36zm0,7.5l5.36,0l0,8.65l-5.36,0l0,-8.65zm0,7.5l5.36,0l0,4.29l-5.36,0l0,-4.29zm0,6.43l5.36,0l0,5.36l-5.36,0l0,-5.36zm0,7.5l5.36,0l0,5.36l-5.36,0l0,-5.36zm0,7.5l5.36,0l0,5.36l-5.36,0l0,-5.36zm0,7.5l5.36,0l0,4.29l-5.36,0l0,-4.29zm-6.44,-58.86l4.29,0l0,4.29l-4.29,0l0,-4.29zm6.44,65.29l4.29,0l0,-49.21l-10.73,0l6.44,49.21zm0,7.5l4.29,0l0,5.36l-10.73,0l6.44,-5.36zm0,7.5l4.29,0l0,-49.21l-10.73,0l6.44,49.21zm0,7.5l4.29,0l0,4.29l-10.73,0l6.44,-4.29zm0,6.43l4.29,0l0,5.36l-10.73,0l6.44,-5.36zm0,7.5l4.29,0l0,5.36l-10.73,0l6.44,-5.36zm0,7.5l4.29,0l0,5.36l-10.73,0l6.44,-5.36zm0,7.5l4.29,0l0,4.29l-10.73,0l6.44,-4.29zm-7.5,-51.45l5.36,0c0,-16.39667 0,-32.79333 0,-49.19l-5.37,0l0.01,49.19zm0,7.5l5.36,0l0,5.36l-5.37,0l0.01,-5.36zm0,7.5l5.36,0l0,-49.19l-5.37,0l0.01,49.19zm0,7.5l5.36,0l0,4.29l-5.37,0l0.01,-4.29zm0,6.43l5.36,0l0,5.36l-5.37,0l0.01,-5.36zm0,7.5l5.36,0l0,5.36l-5.37,0l0.01,-5.36zm0,7.5l5.36,0l0,5.36l-5.37,0l0.01,-5.36zm0,7.5l5.36,0l0,4.29l-5.37,0l0.01,-4.29zm-13.93,-95.27l5.36,0l0,9.65l-5.37,0l0.01,-9.65zm13.93,102.77l5.36,0l0,4.29l-19.3,0l13.94,-4.29zm0,6.43l5.36,0l0,5.36l-19.3,0l13.94,-5.36zm0,7.5l5.36,0l0,5.36l-19.3,0l13.94,-5.36zm0,7.5l5.36,0l0,5.36l-19.3,0l13.94,-5.36zm0,7.5l5.36,0l0,4.29l-19.3,0l13.94,-4.29z"
          class="cls-2"/>
    <ellipse id="svg_3" ry="7.42" rx="17.46" cy="243.57" cx="192.61" class="cls-3"/>
    <ellipse id="svg_4" ry="3.71" rx="10.05" cy="288.71" cx="55.51" class="cls-3"/>
    <ellipse id="svg_5" ry="9.59" rx="37.65" cy="268.05" cx="122.54" class="cls-3"/>
    <ellipse id="svg_6" ry="10.03" rx="67.13" cy="239.14" cx="93.06" class="cls-3"/>
    <ellipse id="svg_7" ry="11.22" rx="31.28" cy="275.12" cx="72.22" class="cls-3"/>
    <path fill="#ffff56" id="svg_8"
          d="m107.92282,120.90692a1.23,1.23 0 0 0 -0.82,-0.6c-0.52,-0.1 -1.86,-0.36 -23.78,14.72l-21.57,-17.47a1.07,1.07 0 0 0 -1.74,1l3.5,24.3a1.07,1.07 0 0 0 1.4,0.86l18.31,-6.22l18,6.22a1.07,1.07 0 0 0 1.37,-0.69c4.29,-13.4 6.07,-20.84 5.33,-22.12z"
          class="cls-4"/>
    <path id="svg_9" d="m81.22,132.99l2.14,0l0,48.23l-2.14,0l0,-48.23z" class="cls-4"/>
    <circle id="svg_10" r="2.75" cy="145.61" cx="88.23" class="cls-5"/>
    <circle id="svg_11" r="2.75" cy="161.16" cx="88.23" class="cls-5"/>
    <rect id="svg_12" ry="4.29" rx="4.29" height="12.86" width="139.34" y="228.38" x="12.62" class="cls-6"/>
    <rect id="svg_13" ry="9" rx="9" height="80.04" width="124.36" y="155" x="19.67" class="cls-5"/>
    <path id="svg_14"
          d="m88.66,196.1a0.93,0.93 0 0 1 -0.94,0.92l-10.82,0a0.93,0.93 0 0 1 -0.94,-0.92l0,-7.1a0.93,0.93 0 0 1 0.94,-0.92l10.82,0a0.93,0.93 0 0 1 0.94,0.92l0,7.1z"
          class="cls-7"/>
    <path id="svg_15"
          d="m85.86,190l-10.86,0a1,1 0 0 0 -0.94,0.94l0,7a1,1 0 0 0 0.94,0.94l3.16,0l4.56,2.64l0,-2.64l3.15,0a1,1 0 0 0 0.94,-0.94l0,-7a1,1 0 0 0 -0.95,-0.94z"
          class="cls-8"/>
    <path id="svg_16"
          d="m91.22,197l-1.22,-1a1.12,1.12 0 0 1 -0.4,-0.87l0,-5.13a1.12,1.12 0 0 1 0.4,-0.87l1.22,-1a0.23,0.23 0 0 1 0.37,0.2l0,8.4a0.23,0.23 0 0 1 -0.37,0.27z"
          class="cls-7"/>
    <path id="svg_17"
          d="m134.38,155a9.67,9.67 0 0 1 9.65,9.65l0,60.75a9.67,9.67 0 0 1 -9.65,9.65l-50.66,0l50.66,-80.05z"
          class="cls-9"/>
    <rect id="svg_18" ry="9" rx="9" height="80.04" width="124.36" y="154.487179" x="20.182821" class="cls-10"/>
    <path id="svg_19"
          d="m170.18,210.46l0,31.08s0.7,7.36 16.07,7.36s13.94,-6.78 13.94,-6.78l0,-31.66s-1.65,-5.87 -15,-5.87s-15.01,5.87 -15.01,5.87z"
          class="cls-9"/>
    <path id="svg_20"
          d="m172.13,236.3c-0.43,-0.16 -10.61,-4 -10.09,-11.93c0.43,-6.49 7.1,-8.55 10.56,-8.73l0.17,3.21l-0.08,-1.61l0.09,1.61c-0.29,0 -7.18,0.47 -7.53,5.74c-0.36,5.43 7.92,8.67 8,8.7l-1.12,3.01z"
          class="cls-9"/>
    <path id="svg_21" d="m200.19,242.12l0,-31.66s-1.07,-3.46 -7.5,-5.07l0,43c8.58,-1.6 7.5,-6.27 7.5,-6.27z"
          class="cls-11"/>
    <ellipse id="svg_22" ry="5.24" rx="12.19" cy="211.72" cx="185.16" class="cls-6"/>
    <path id="svg_23"
          d="m195.68,214.35c-2.1,-1.57 -6,-2.63 -10.56,-2.63s-8.42,1.05 -10.53,2.61c2.1,1.57 6,2.63 10.56,2.63s8.42,-1.05 10.53,-2.61z"
          class="cls-12"/>
    <path id="svg_24"
          d="m127.27,83.49c0,22.75 -18.44,49.4 -41.19,49.4s-41.19,-26.65 -41.19,-49.4a41.19,41.19 0 0 1 82.38,0z"
          class="cls-13"/>
    <path id="svg_25"
          d="m126.06,75.17l-1.61,-3.54a1.07,1.07 0 0 0 -1,-0.63l-67.45,-0.4a0.9,0.9 0 0 0 -0.6,0.18l-11.4,7.56a1.07,1.07 0 0 0 -0.36,1.38l2,3.94a1.07,1.07 0 0 0 0.69,0.55a1.08,1.08 0 0 0 0.87,-0.16l6.23,-5.94l1.67,3.12a0.9,0.9 0 0 0 0.22,0.48l2.33,2.86c0.2,0.26 0.51,0.18 0.84,0.18c0.33,0 0.65,0.07 0.85,-0.2l5.52,-7.11l6,7.6a1.07,1.07 0 0 0 0.8,0.41a1.05,1.05 0 0 0 0.83,-0.35l6,-6.6l7.51,5.95a1.07,1.07 0 0 0 1.4,0.05l6.6,-6.09c7.87,7.56 7.89,7.55 8.69,7.21a1.08,1.08 0 0 0 0.52,-0.47c0.52,-0.67 4.49,-4.8 7.38,-7.79c6.44,7.52 7.47,8.36 8.11,8.36a1.32,1.32 0 0 0 0.25,0a1.12,1.12 0 0 0 0.8,-0.64c0.33,-0.6 3.45,-5 6.24,-8.81a1.07,1.07 0 0 0 0.07,-1.1z"
          class="cls-14"/>
    <path id="svg_26"
          d="m93.69,43c11.84,12.51 22.54,30.64 21.21,46.87c-1.21,14.8 0.54,26.26 -20.67,41.86c18.84,-5.33 33,-28.29 33,-48.25a41.2,41.2 0 0 0 -33.54,-40.48z"
          class="cls-14"/>
    <path id="svg_27"
          d="m77.39,118.53s7,4.53 16.65,0m-10.59,-28.6l-4.9,19.48l8.03,0m-26.02,-18.41s6.1,5.36 15.75,0m16.41,0s6.1,5.36 15.75,0"
          class="cls-15"/>
    <path id="svg_28" d="m127.13,251s11.49,-0.2 18,1.74c4,1.2 4.78,3.21 3.66,6.61l0,0.41l-21.44,-1.33l-0.22,-7.43z"
          class="cls-16"/>
    <path id="svg_29"
          d="m101.54,227.15l-27.54,1.77s-43.19,-1.78 -37,33.18c0,0 1.47,8.09 9.17,9s59.83,-4.84 59.83,-4.84l43.85,0.3s6.28,-0.52 6.28,-4.29c0,-2.86 -2.13,-4.9 -11.61,-5.19s-16.3,-0.89 -16.3,-0.89l-1.42,-19.55"
          class="cls-17"/>
    <path id="svg_30"
          d="m95.4,228.28c-0.06,6.81 7.43,13.29 13.07,15.39c4.76,1.78 14,2.24 19,1.85l-0.64,-8.9l-25.31,-9.48l-6.13,0.4c0.03,0.21 0.02,0.51 0.01,0.74z"
          class="cls-16"/>
    <ellipse id="svg_31" transform="rotate(-19.020000457763672 116.34500122070308,220.22799682617188) " ry="22.14"
             rx="20.66" cy="220.25" cx="116.37" class="cls-17"/>
    <path id="svg_32"
          d="m129.29,206.12l-4.44,-16.12a1.07,1.07 0 0 0 -1.94,-0.29l-7.45,11.66a1.07,1.07 0 0 0 0.54,1.63l11.89,4.44a1.06,1.06 0 0 0 0.38,0.07a1.07,1.07 0 0 0 1,-1.36l0.02,-0.03zm-26.6,-0.75l-17.5,1.48a1.07,1.07 0 0 0 -0.68,1.81l11.87,12.34a1.07,1.07 0 0 0 1.55,-1.48l-0.33,-0.34l4.75,-11.64l0.54,0a1.07,1.07 0 0 0 -0.18,-2.14l-0.02,-0.03z"
          class="cls-17"/>
    <path id="svg_33" d="m91.44,269.25l-45.3,-5.35l-0.76,6.93l44.38,0.93l1.68,-2.51z" class="cls-16"/>
    <path id="svg_34"
          d="m59.41,279.56c-8.79,0.3 -15,-2 -18.28,-6.89c-4.58,-6.73 -1.15,-14.77 -0.75,-15.67a5.9,5.9 0 0 1 10.76,4.82c-0.41,1 -0.92,3.27 -0.25,4.24s3.32,2 8.7,1.69l31.47,-1.07a5.9,5.9 0 0 1 0.4,11.78l-31.39,1.07l-0.66,0.03z"
          class="cls-17"/>
    <path id="svg_35"
          d="m108.6,266.25c-3.44,-3.13 -9.85,-9 -17.94,-8.18c-7.75,0.74 -15.37,8.36 -18.65,12.74c-0.73,1 -1.35,2 -2,2.9a21.78,21.78 0 0 1 -2.5,3.45a12.51,12.51 0 0 1 -5,2.92c-8.37,2.86 -16.93,-0.73 -21.28,-3.12c-3.74,-2.06 -6,-4.58 -6.59,-7.48c-0.79,-3.66 0.89,-7.43 2,-9.45a27.86,27.86 0 0 1 1.36,-13.64a25.89,25.89 0 0 0 -7.27,7.07c-0.79,1.08 -6.31,9 -4.46,17.75c1.16,5.48 4.81,9.94 10.86,13.26a41,41 0 0 0 15.77,5.08a29.6,29.6 0 0 0 12.41,-1.36a20.91,20.91 0 0 0 8.38,-5.06a28.89,28.89 0 0 0 3.59,-4.83c0.54,-0.85 1,-1.65 1.58,-2.36c3.22,-4.31 8.81,-9 12.59,-9.34c3.58,-0.35 7.13,2.15 11.35,6a4.29,4.29 0 0 0 5.77,-6.34l0.03,-0.01z"
          class="cls-16"/>
    <path id="svg_36"
          d="m103.3,219.17a6.87,6.87 0 0 1 5.88,-3.82m12.15,-3.1s2.38,-4.55 5.86,-4.25m-4.79,16.13l2.93,6.21s0.62,3.74 -5.61,4.62m11.72,-7.81s-0.16,3.57 -6.11,3.19m-5.61,-7.55l-14.17,2.68m14.17,0l-7.08,7.44m9.67,-12.36l7.07,-7.22m-4.3,9.46l8.13,-2.24"
          class="cls-15"/>
    <path id="svg_37"
          d="m125.73,221l-4.83,-2.41a2.33,2.33 0 0 0 -2.13,0.09a2.05,2.05 0 0 0 -1.11,1.73l0,4.82a2.06,2.06 0 0 0 1.11,1.73a2.3,2.3 0 0 0 1.14,0.3a2.21,2.21 0 0 0 0.95,-0.21l4.84,-2.41a2.06,2.06 0 0 0 1.13,-1.82a2,2 0 0 0 -1.1,-1.82z"
          class="cls-18"/>
    <path id="svg_38"
          d="m307.203591,111.086666l-177.81,0a9.72,9.72 0 0 0 -9.49,9.84l0,30.12a9.29,9.29 0 0 0 9.49,9.34l21.35,0l-4.21,24.34l29.59,-24.34l131.08,0c5.31,0 9.91,-4 9.91,-9.34l0,-30.12a10.08,10.08 0 0 0 -9.91,-9.84z"
          class="cls-19"/>
    <path id="svg_41"
          d="m191.46,196.1a9.46,9.46 0 0 0 -1.84,-3.67q-0.47,-0.76 -1,-1.49q-1,3 0,2.07c0.93,0.25 4.7,-4.32 5.17,-5.05a10.7,10.7 0 0 0 1.49,-7.95a18.16,18.16 0 0 0 -1.46,-3.93q-0.55,-1 -1,-2q-0.5,2.71 1,0.58c4.28,-4 -0.19,-10.92 -5.56,-9.56c-5.22,1.33 -8.51,5.69 -7.72,11.12a13.14,13.14 0 0 0 2,5.52c0.23,0.32 1.41,-0.69 -0.16,0.14a11.29,11.29 0 0 0 -2.12,1.77c-7.4,7 -2.78,17.18 6.88,18.06c2.81,0.26 5.07,-3 4.25,-5.58l0.07,-0.03z"
          class="cls-22"/>
    <path id="svg_42" d="m120.34,200.5l3.12,-5.68m-32.63,14.85l8.8,-0.37" class="cls-15"/>
    <path id="svg_43"
          d="m210,76.72l12.64,-7.72l-12.64,-7.11l7.31,-12.5l-15,0l0,-15.29l-12.45,7.3l-7.22,-12.65l-7.3,12.65l-12.66,-7.3l0,15.29l-14.53,0l7.31,12.31l-12.66,7.14l12.65,8l-7.31,13.31l14.53,0l0,13.12l12.7,-7.31l7.33,12.65l7.14,-12.65l12.49,7.31l0,-13.15l15,0l-7.33,-13.4z"
          class="cls-23"/>
    <circle id="svg_44" r="21.94" cy="68.67" cx="183.01" class="cls-24"/>
    <path id="svg_45"
          d="m85,27.58c-41.63,0 -46.81,48.55 -46.85,49a1.13,1.13 0 0 0 0.06,0.5l2.89,7.92a1.14,1.14 0 0 0 0.93,0.74a1.16,1.16 0 0 0 1.09,-0.49l4.94,-7.13l5.4,6.27a1.09,1.09 0 0 0 0.87,0.34a1.09,1.09 0 0 0 0.87,-0.35l6.74,-7.92l4.45,7.67a1.14,1.14 0 0 0 1.84,0.19l6.42,-7.17l5.5,8.35a1.14,1.14 0 0 0 0.85,0.5l0.1,0a1.14,1.14 0 0 0 0.82,-0.35l8.41,-8.65l6.52,8.49a1.14,1.14 0 0 0 1.77,0.06l8.38,-9.63l6.64,9.17a1.14,1.14 0 0 0 0.92,0.47a1.18,1.18 0 0 0 0.93,-0.46l6.41,-8.61l6.29,8.6a1.15,1.15 0 0 0 1.13,0.45a1.14,1.14 0 0 0 0.9,-0.82l2.08,-7.72a1.16,1.16 0 0 0 0,-0.42c-0.01,-0.46 -5.7,-49 -47.3,-49z"
          class="cls-12"/>
    <path id="svg_46"
          d="m72.11,40.82s-13.75,2.85 -17.33,18.75m120.76,163.46l0,13.93m-116.3,1.15s-13.42,4.23 -13.42,16.15"
          class="cls-25"/>
    <text stroke="#70d6ff" xml:space="preserve" text-anchor="start" font-family="Helvetica, Arial, sans-serif" font-size="20" id="svg_47" y="142.564103" x="133.076922" stroke-width="0" fill="#70d6ff">rtconn.io/</text>
  <text style="cursor: move;" xml:space="preserve" text-anchor="start" font-family="Helvetica, Arial, sans-serif" font-size="20" id="svg_50" y="142.564102" x="218.205128" stroke-opacity="null" stroke-width="0" stroke="null" fill="#ff9770">eul_comp</text>
  </g>
</svg>