<svg id="Layer_1" data-name="Layer 1" xmlns="http://www.w3.org/2000/svg" viewBox="0 0 320 320">
  <defs>
    <style>
      .cls-1{fill:#41cc8d}.cls-2{fill:#6eedb0}.cls-3{fill:#e5dfda}.cls-4{fill:#1e965c}.cls-19,.cls-5{fill:#fff}.cls-6{fill:#bcbcbc}.cls-7{fill:#38cc8a}.cls-8{fill:#ff2860}.cls-9{fill:#ededed}.cls-10,.cls-15,.cls-25{fill:none}.cls-10{stroke:#bcbcbc;stroke-miterlimit:10}.cls-10,.cls-15,.cls-19{stroke-width:2px}.cls-11{fill:#d8d8d8}.cls-12{fill:#222}.cls-13{fill:#ffdbc0}.cls-14{fill:#edc9b0}.cls-15{stroke:#b28d74}.cls-15,.cls-19,.cls-25{stroke-linecap:round;stroke-linejoin:round}.cls-16{fill:#ce926a}.cls-17{fill:#e5ab83}.cls-18{fill:#424242}.cls-19{stroke:#222}.cls-20{fill:#8e8e8e}.cls-21{fill:#ff2e63}.cls-22{fill:#e5dcd6}.cls-23{fill:#ffeea9}.cls-24{fill:#ffdd4d}.cls-25{stroke:#fff;stroke-width:4px}
    </style>
  </defs>
  <title>Create</title>
  <path class="cls-1" d="M29.86 178.2s-6.39-42 37.48-60.22h30.95s37.6 12.56 36.52 62.75v23H29.69z"/>
  <path class="cls-2"
        d="M30.85 203.73H33v-3.22h5.36v3.22h2.14v-3.22h5.36v3.22H48v-3.22h4.29v3.22h2.14v-3.22h5.36v3.22h2.14v-3.22h5.36v3.22h2.14v-3.22h5.36v3.22h2.14v-3.22h4.29v3.22h2.14v-3.22h5.36v3.22h2.14v-3.22h5.36v3.22h2.14v-3.22h4.29v3.22h2.14v-3.22h5.36v3.22h2.14v-3.22h5.36v3.22h2.14v-3.22h5.36v3.22h2.14v-3.22h4.29v3.22h2.14v-3.22h1.07v-2.14h-1.07v-4.29h1.07v-2.14h-1.07v-5.36h1.07v-2.14h-1.07v-5.36h1.07v-2.14h-1.06v-5.36h.82c-.06-.73-.14-1.43-.22-2.14h-.6v-4.29a72 72 0 0 0-2.2-9.65h-4.27v-5.36h2.39c-.3-.73-.61-1.44-.92-2.14h-1.47v-3.08q-1.2-2.33-2.52-4.43h-5v-4.29h2q-.84-1.11-1.71-2.14h-.33v-.38q-1.06-1.25-2.14-2.39v2.77h-5.26v-5.36h2.75a56.74 56.74 0 0 0-2.45-2.14h-.3v-.25c-.72-.59-1.44-1.16-2.14-1.68v1.93h-5.36v-5.36h.2c-1.6-.93-3-1.64-4.09-2.14h-2.5v-1h-2.18v1.07h-5.36V118h-2.15v1.07h-5.36V118h-2.14v1.07h-4.29V118h-2.14v1.07h-5.36V118h-2.14v1h-2.4q-2.68 1.22-5.1 2.56v4.95h-5.36v-1.65c-.74.5-1.45 1-2.14 1.53v.12h-.17q-1.4 1.05-2.69 2.14h2.86v5.36H48V130q-1.12 1-2.14 2v2.08h-2q-1 1.06-1.84 2.14h3.81v4.29h-5.34v-2.28q-1.62 2.19-2.94 4.42h.79V148h-3.58c-.33.72-.63 1.43-.92 2.14h4.51v5.36H33v-3.11a58.9 58.9 0 0 0-2.15 7.61v3h-.55q-.17 1.1-.3 2.14h.85v4.29h-1.23c0 .75-.06 1.47-.07 2.14h1.3v5.36h-1.13c.07.82.14 1.27.14 1.27v.88h1v5.36h-1v2.14h1v5.36h-1.09v2.14h1.09v4.29h-1.13v2.14h1.13zm96.46-46.09h4.29V163h-4.29zm0 7.5h4.29v4.29h-4.29zm0 6.43h4.29v5.36h-4.29zm0 7.5h4.29v5.36h-4.29zm0 7.5h4.29v5.36h-4.29zm0 7.5h4.29v4.29h-4.29zm-7.5-51.45h5.36V148h-5.36zm0 7.5h5.36v5.36h-5.36zm0 7.5h5.36V163h-5.36zm0 7.5h5.36v4.29h-5.36zm0 6.43h5.36v5.36h-5.36zm0 7.5h5.36v5.36h-5.36zm0 7.5h5.36v5.36h-5.36zm0 7.5h5.36v4.29h-5.36zm-7.5-57.88h5.36v4.29h-5.37zm0 6.43h5.36v5.4h-5.37zm0 7.5h5.36v5.36h-5.37zm0 7.5h5.36v5.4h-5.37zm0 7.5h5.36v4.29h-5.37zm0 6.43h5.36v5.36h-5.37zm0 7.5h5.36v5.36h-5.37zm0 7.5h5.36v5.36h-5.37zm0 7.5h5.36v4.29h-5.37zm-7.5-65.38h5.36v5.36h-5.37zm0 7.5h5.36v4.29h-5.37zm0 6.43h5.36V148h-5.37zm0 7.5h5.36v5.36h-5.37zm0 7.5h5.36V163h-5.37zm0 7.5h5.36v4.29h-5.37zm0 6.43h5.36v5.36h-5.37zm0 7.5h5.36v5.36h-5.37zm0 7.5h5.36v5.36h-5.37zm0 7.5h5.36v4.29h-5.37zm-6.44-72.81h4.29v5.36h-4.29zm0 7.5h4.29v5.36h-4.29zm0 7.5h4.29v4.29h-4.29zm0 6.43h4.29V148h-4.29zm0 7.5h4.29v5.36h-4.29zm0 7.5h4.29V163h-4.29zm0 7.5h4.29v4.29h-4.29zm0 6.43h4.29v5.36h-4.29zm0 7.5h4.29v5.36h-4.29zm0 7.5h4.29v5.36h-4.29zm0 7.5h4.29v4.29h-4.29zm-7.5-72.88h5.36v5.36h-5.36zm0 7.5h5.36v5.36h-5.36zm0 7.5h5.36v4.29h-5.36zm0 6.43h5.36V148h-5.36zm0 7.5h5.36v5.36h-5.36zm0 7.5h5.36V163h-5.36zm0 7.5h5.36v4.29h-5.36zm0 6.43h5.36v5.36h-5.36zm0 7.5h5.36v5.36h-5.36zm0 7.5h5.36v5.36h-5.36zm0 7.5h5.36v4.29h-5.36zm-7.5-72.88h5.36v5.36h-5.37zm0 7.5h5.36v5.36h-5.37zm0 7.5h5.36v4.29h-5.37zm0 6.43h5.36V148h-5.37zm0 7.5h5.36v5.36h-5.37zm0 7.5h5.36V163h-5.37zm0 7.5h5.36v4.29h-5.37zm0 6.43h5.36v5.36h-5.37zm0 7.5h5.36v5.36h-5.37zm0 7.5h5.36v5.36h-5.37zm0 7.5h5.36v4.29h-5.37zm-6.44-72.82h4.29v5.36h-4.29zm0 7.5h4.29v5.36h-4.29zm0 7.5h4.29v4.29h-4.29zm0 6.43h4.29V148h-4.29zm0 7.5h4.29v5.36h-4.29zm0 7.5h4.29V163h-4.29zm0 7.5h4.29v4.29h-4.29zm0 6.43h4.29v5.36h-4.29zm0 7.5h4.29v5.36h-4.29zm0 7.5h4.29v5.36h-4.29zm0 7.5h4.29v4.29h-4.29zm-7.5-72.88h5.36v5.36h-5.36zm0 7.5h5.36v5.36h-5.36zm0 7.5h5.36v4.29h-5.36zm0 6.43h5.36V148h-5.36zm0 7.5h5.36v5.36h-5.36zm0 7.5h5.36V163h-5.36zm0 7.5h5.36v4.29h-5.36zm0 6.43h5.36v5.36h-5.36zm0 7.5h5.36v5.36h-5.36zm0 7.5h5.36v5.36h-5.36zm0 7.5h5.36v4.29h-5.36zm-7.5-72.88h5.36v5.36h-5.36zm0 7.5h5.36v5.36h-5.36zm0 7.5h5.36v4.29h-5.36zm0 6.43h5.36V148h-5.36zm0 7.5h5.36v5.36h-5.36zm0 7.5h5.36V163h-5.36zm0 7.5h5.36v4.29h-5.36zm0 6.43h5.36v5.36h-5.36zm0 7.5h5.36v5.36h-5.36zm0 7.5h5.36v5.36h-5.36zm0 7.5h5.36v4.29h-5.36zm-7.5-65.38h5.36V134h-5.36zm0 7.5h5.36v4.29h-5.36zm0 6.43h5.36V148h-5.36zm0 7.5h5.36v5.36h-5.36zm0 7.5h5.36V163h-5.36zm0 7.5h5.36v4.29h-5.36zm0 6.43h5.36v5.36h-5.36zm0 7.5h5.36v5.36h-5.36zm0 7.5h5.36v5.36h-5.36zm0 7.5h5.36v4.29h-5.36zM48 136.21h4.29v4.29H48zm0 6.43h4.29V148H48zm0 7.5h4.29v5.36H48zm0 7.5h4.29V163H48zm0 7.5h4.29v4.29H48zm0 6.43h4.29v5.36H48zm0 7.5h4.29v5.36H48zm0 7.5h4.29v5.36H48zm0 7.5h4.29v4.29H48zm-7.5-51.45h5.36V148h-5.37zm0 7.5h5.36v5.36h-5.37zm0 7.5h5.36V163h-5.37zm0 7.5h5.36v4.29h-5.37zm0 6.43h5.36v5.36h-5.37zm0 7.5h5.36v5.36h-5.37zm0 7.5h5.36v5.36h-5.37zm0 7.5h5.36v4.29h-5.37zM33 157.64h5.36V163H33zm0 7.5h5.36v4.29H33zm0 6.43h5.36v5.36H33zm0 7.5h5.36v5.36H33zm0 7.5h5.36v5.36H33zm0 7.5h5.36v4.29H33z"/>
  <ellipse class="cls-3" cx="192.61" cy="243.57" rx="17.46" ry="7.42"/>
  <ellipse class="cls-3" cx="55.51" cy="288.71" rx="10.05" ry="3.71"/>
  <ellipse class="cls-3" cx="122.54" cy="268.05" rx="37.65" ry="9.59"/>
  <ellipse class="cls-3" cx="93.06" cy="239.14" rx="67.13" ry="10.03"/>
  <ellipse class="cls-3" cx="72.22" cy="275.12" rx="31.28" ry="11.22"/>
  <path class="cls-4"
        d="M107.41 117.83a1.23 1.23 0 0 0-.82-.6c-.52-.1-1.86-.36-23.78 14.72l-21.57-17.47a1.07 1.07 0 0 0-1.74 1l3.5 24.3a1.07 1.07 0 0 0 1.4.86l18.31-6.22 18 6.22a1.07 1.07 0 0 0 1.37-.69c4.29-13.4 6.07-20.84 5.33-22.12z"/>
  <path class="cls-4" d="M81.22 132.99h2.14v48.23h-2.14z"/>
  <circle class="cls-5" cx="88.23" cy="145.61" r="2.75"/>
  <circle class="cls-5" cx="88.23" cy="161.16" r="2.75"/>
  <rect class="cls-6" x="12.62" y="228.38" width="139.34" height="12.86" rx="4.29" ry="4.29"/>
  <rect class="cls-5" x="19.67" y="155" width="124.36" height="80.04" rx="9" ry="9"/>
  <path class="cls-7"
        d="M88.66 196.1a.93.93 0 0 1-.94.92H76.9a.93.93 0 0 1-.94-.92V189a.93.93 0 0 1 .94-.92h10.82a.93.93 0 0 1 .94.92z"/>
  <path class="cls-8"
        d="M85.86 190H75a1 1 0 0 0-.94.94v7a1 1 0 0 0 .94.94h3.16l4.56 2.64v-2.64h3.15a1 1 0 0 0 .94-.94v-7a1 1 0 0 0-.95-.94z"/>
  <path class="cls-7"
        d="M91.22 197L90 196a1.12 1.12 0 0 1-.4-.87V190a1.12 1.12 0 0 1 .4-.87l1.22-1a.23.23 0 0 1 .37.2v8.4a.23.23 0 0 1-.37.27z"/>
  <path class="cls-9" d="M134.38 155a9.67 9.67 0 0 1 9.65 9.65v60.75a9.67 9.67 0 0 1-9.65 9.65H83.72z"/>
  <rect class="cls-10" x="19.67" y="155" width="124.36" height="80.04" rx="9" ry="9"/>
  <path class="cls-9"
        d="M170.18 210.46v31.08s.7 7.36 16.07 7.36 13.94-6.78 13.94-6.78v-31.66s-1.65-5.87-15-5.87-15.01 5.87-15.01 5.87z"/>
  <path class="cls-9"
        d="M172.13 236.3c-.43-.16-10.61-4-10.09-11.93.43-6.49 7.1-8.55 10.56-8.73l.17 3.21-.08-1.61.09 1.61c-.29 0-7.18.47-7.53 5.74-.36 5.43 7.92 8.67 8 8.7z"/>
  <path class="cls-11" d="M200.19 242.12v-31.66s-1.07-3.46-7.5-5.07v43c8.58-1.6 7.5-6.27 7.5-6.27z"/>
  <ellipse class="cls-6" cx="185.16" cy="211.72" rx="12.19" ry="5.24"/>
  <path class="cls-12"
        d="M195.68 214.35c-2.1-1.57-6-2.63-10.56-2.63s-8.42 1.05-10.53 2.61c2.1 1.57 6 2.63 10.56 2.63s8.42-1.05 10.53-2.61z"/>
  <path class="cls-13"
        d="M127.27 83.49c0 22.75-18.44 49.4-41.19 49.4s-41.19-26.65-41.19-49.4a41.19 41.19 0 0 1 82.38 0z"/>
  <path class="cls-14"
        d="M126.06 75.17l-1.61-3.54a1.07 1.07 0 0 0-1-.63L56 70.6a.9.9 0 0 0-.6.18L44 78.34a1.07 1.07 0 0 0-.36 1.38l2 3.94a1.07 1.07 0 0 0 .69.55 1.08 1.08 0 0 0 .87-.16l6.23-5.94 1.67 3.12a.9.9 0 0 0 .22.48l2.33 2.86c.2.26.51.18.84.18.33 0 .65.07.85-.2l5.52-7.11 6 7.6a1.07 1.07 0 0 0 .8.41 1.05 1.05 0 0 0 .83-.35l6-6.6L86 84.45a1.07 1.07 0 0 0 1.4.05l6.6-6.09c7.87 7.56 7.89 7.55 8.69 7.21a1.08 1.08 0 0 0 .52-.47c.52-.67 4.49-4.8 7.38-7.79 6.44 7.52 7.47 8.36 8.11 8.36a1.32 1.32 0 0 0 .25 0 1.12 1.12 0 0 0 .8-.64c.33-.6 3.45-5 6.24-8.81a1.07 1.07 0 0 0 .07-1.1z"/>
  <path class="cls-14"
        d="M93.69 43c11.84 12.51 22.54 30.64 21.21 46.87-1.21 14.8.54 26.26-20.67 41.86 18.84-5.33 33-28.29 33-48.25A41.2 41.2 0 0 0 93.69 43z"/>
  <path class="cls-15"
        d="M77.39 118.53s7 4.53 16.65 0m-10.59-28.6l-4.9 19.48h8.03M60.56 91s6.1 5.36 15.75 0m16.41 0s6.1 5.36 15.75 0"/>
  <path class="cls-16" d="M127.13 251s11.49-.2 18 1.74c4 1.2 4.78 3.21 3.66 6.61v.41l-21.44-1.33z"/>
  <path class="cls-17"
        d="M101.54 227.15L74 228.92s-43.19-1.78-37 33.18c0 0 1.47 8.09 9.17 9s59.83-4.84 59.83-4.84l43.85.3s6.28-.52 6.28-4.29c0-2.86-2.13-4.9-11.61-5.19s-16.3-.89-16.3-.89l-1.42-19.55"/>
  <path class="cls-16"
        d="M95.4 228.28c-.06 6.81 7.43 13.29 13.07 15.39 4.76 1.78 14 2.24 19 1.85l-.64-8.9-25.31-9.48-6.13.4c.03.21.02.51.01.74z"/>
  <ellipse class="cls-17" cx="116.37" cy="220.25" rx="20.66" ry="22.14" transform="rotate(-19.02 116.345 220.228)"/>
  <path class="cls-17"
        d="M129.29 206.12L124.85 190a1.07 1.07 0 0 0-1.94-.29l-7.45 11.66A1.07 1.07 0 0 0 116 203l11.89 4.44a1.06 1.06 0 0 0 .38.07 1.07 1.07 0 0 0 1-1.36zm-26.58-.78l-17.5 1.48a1.07 1.07 0 0 0-.68 1.81L96.38 221a1.07 1.07 0 0 0 1.55-1.48l-.33-.34 4.75-11.64h.54a1.07 1.07 0 0 0-.18-2.14z"/>
  <path class="cls-16" d="M91.44 269.25l-45.3-5.35-.76 6.93 44.38.93 1.68-2.51z"/>
  <path class="cls-17"
        d="M59.41 279.56c-8.79.3-15-2-18.28-6.89-4.58-6.73-1.15-14.77-.75-15.67a5.9 5.9 0 0 1 10.76 4.82c-.41 1-.92 3.27-.25 4.24s3.32 2 8.7 1.69l31.47-1.07a5.9 5.9 0 0 1 .4 11.78l-31.39 1.07z"/>
  <path class="cls-16"
        d="M108.6 266.25c-3.44-3.13-9.85-9-17.94-8.18-7.75.74-15.37 8.36-18.65 12.74-.73 1-1.35 2-2 2.9a21.78 21.78 0 0 1-2.5 3.45 12.51 12.51 0 0 1-5 2.92c-8.37 2.86-16.93-.73-21.28-3.12-3.74-2.06-6-4.58-6.59-7.48-.79-3.66.89-7.43 2-9.45A27.86 27.86 0 0 1 38 246.39a25.89 25.89 0 0 0-7.27 7.07c-.79 1.08-6.31 9-4.46 17.75 1.16 5.48 4.81 9.94 10.86 13.26a41 41 0 0 0 15.77 5.08 29.6 29.6 0 0 0 12.41-1.36 20.91 20.91 0 0 0 8.38-5.06 28.89 28.89 0 0 0 3.59-4.83c.54-.85 1-1.65 1.58-2.36 3.22-4.31 8.81-9 12.59-9.34 3.58-.35 7.13 2.15 11.35 6a4.29 4.29 0 0 0 5.77-6.34z"/>
  <path class="cls-15"
        d="M103.3 219.17a6.87 6.87 0 0 1 5.88-3.82m12.15-3.1s2.38-4.55 5.86-4.25m-4.79 16.13l2.93 6.21s.62 3.74-5.61 4.62m11.72-7.81s-.16 3.57-6.11 3.19m-5.61-7.55l-14.17 2.68m14.17 0l-7.08 7.44m9.67-12.36l7.07-7.22m-4.3 9.46l8.13-2.24"/>
  <path class="cls-18"
        d="M125.73 221l-4.83-2.41a2.33 2.33 0 0 0-2.13.09 2.05 2.05 0 0 0-1.11 1.73v4.82a2.06 2.06 0 0 0 1.11 1.73 2.3 2.3 0 0 0 1.14.3 2.21 2.21 0 0 0 .95-.21l4.84-2.41a2.06 2.06 0 0 0 1.13-1.82 2 2 0 0 0-1.1-1.82z"/>
  <path class="cls-19"
        d="M297.46 124.42H119.65a9.72 9.72 0 0 0-9.49 9.84v30.12a9.29 9.29 0 0 0 9.49 9.34H141l-4.21 24.34 29.59-24.34h131.08c5.31 0 9.91-4 9.91-9.34v-30.12a10.08 10.08 0 0 0-9.91-9.84z"/>
  <path class="cls-20"
        d="M133.48 154.09l-.34-1.13h-.06a3.32 3.32 0 0 1-1.18 1 3.72 3.72 0 0 1-1.52.27 2.58 2.58 0 0 1-1.87-.64 2.41 2.41 0 0 1-.67-1.82 2.14 2.14 0 0 1 .93-1.89 5.36 5.36 0 0 1 2.84-.7h1.4v-.43a1.64 1.64 0 0 0-.36-1.16 1.48 1.48 0 0 0-1.12-.38 3.88 3.88 0 0 0-1.19.18 8.85 8.85 0 0 0-1.1.43l-.56-1.23a6 6 0 0 1 1.44-.52 6.65 6.65 0 0 1 1.48-.18 3.5 3.5 0 0 1 2.33.67 2.64 2.64 0 0 1 .79 2.12v5.46zm-2.56-1.17a2.13 2.13 0 0 0 1.51-.52 1.9 1.9 0 0 0 .57-1.47v-.7h-1a3.56 3.56 0 0 0-1.77.41 1.24 1.24 0 0 0-.55 1.11 1.08 1.08 0 0 0 .32.84 1.38 1.38 0 0 0 .92.32zm10 1.31a2.84 2.84 0 0 1-2.39-1.11h-.1q.1 1 .1 1.25v3.32h-1.72V146h1.39q.06.23.24 1.08h.09a2.7 2.7 0 0 1 2.42-1.23 2.81 2.81 0 0 1 2.36 1.1 6 6 0 0 1 0 6.18 2.84 2.84 0 0 1-2.39 1.1zm-.42-7a1.79 1.79 0 0 0-1.5.6 3.11 3.11 0 0 0-.47 1.92v.25a3.79 3.79 0 0 0 .47 2.14 1.74 1.74 0 0 0 1.53.66 1.56 1.56 0 0 0 1.38-.73 3.79 3.79 0 0 0 .48-2.09 3.66 3.66 0 0 0-.48-2.06 1.6 1.6 0 0 0-1.4-.68zm9.5 7a2.84 2.84 0 0 1-2.39-1.11h-.1q.1 1 .1 1.25v3.32h-1.72V146h1.39q.06.23.24 1.08h.09a2.7 2.7 0 0 1 2.42-1.23 2.81 2.81 0 0 1 2.36 1.1 6 6 0 0 1 0 6.18 2.84 2.84 0 0 1-2.39 1.1zm-.42-7a1.79 1.79 0 0 0-1.5.6 3.11 3.11 0 0 0-.47 1.92v.25a3.79 3.79 0 0 0 .47 2.14 1.74 1.74 0 0 0 1.53.66 1.56 1.56 0 0 0 1.38-.73 3.79 3.79 0 0 0 .48-2.09 3.66 3.66 0 0 0-.48-2.06 1.6 1.6 0 0 0-1.43-.68zm8.87 7a3.92 3.92 0 0 1-3-1.1 4.18 4.18 0 0 1-1.07-3 4.59 4.59 0 0 1 1-3.12 3.41 3.41 0 0 1 2.72-1.14 3.34 3.34 0 0 1 2.54 1 3.72 3.72 0 0 1 .93 2.68v.93h-5.4a2.66 2.66 0 0 0 .64 1.81 2.22 2.22 0 0 0 1.69.63 6.2 6.2 0 0 0 1.34-.14 7 7 0 0 0 1.33-.45v1.4a5.35 5.35 0 0 1-1.27.42 7.85 7.85 0 0 1-1.45.08zm-.32-7.09a1.73 1.73 0 0 0-1.32.52 2.47 2.47 0 0 0-.59 1.52h3.68a2.25 2.25 0 0 0-.48-1.52 1.66 1.66 0 0 0-1.28-.52zm10.2 6.95L168 153h-.06a3.32 3.32 0 0 1-1.18 1 3.72 3.72 0 0 1-1.52.27 2.58 2.58 0 0 1-1.87-.64 2.41 2.41 0 0 1-.67-1.82 2.14 2.14 0 0 1 .93-1.89 5.36 5.36 0 0 1 2.84-.7h1.4v-.43a1.64 1.64 0 0 0-.36-1.16 1.48 1.48 0 0 0-1.12-.38 3.88 3.88 0 0 0-1.19.18 8.85 8.85 0 0 0-1.1.43l-.56-1.23A6 6 0 0 1 165 146a6.65 6.65 0 0 1 1.48-.18 3.5 3.5 0 0 1 2.33.67 2.64 2.64 0 0 1 .79 2.12v5.46zm-2.56-1.17a2.13 2.13 0 0 0 1.51-.52 1.9 1.9 0 0 0 .57-1.47v-.7h-1a3.56 3.56 0 0 0-1.77.41 1.24 1.24 0 0 0-.55 1.11 1.08 1.08 0 0 0 .32.84 1.38 1.38 0 0 0 .91.32zm10-7.08a4.12 4.12 0 0 1 .86.07l-.17 1.6a3.25 3.25 0 0 0-.76-.09 2.2 2.2 0 0 0-1.67.67 2.43 2.43 0 0 0-.64 1.75v4.23h-1.72V146H173l.23 1.43h.09a3.21 3.21 0 0 1 1.05-1.15 2.49 2.49 0 0 1 1.4-.44zm.6 7.33a1.12 1.12 0 0 1 .28-.82 1.07 1.07 0 0 1 .81-.29 1.06 1.06 0 0 1 .81.3 1.14 1.14 0 0 1 .28.81 1.16 1.16 0 0 1-.28.82 1.23 1.23 0 0 1-1.62 0 1.17 1.17 0 0 1-.28-.82zm3.98-9.33a1 1 0 0 1 .25-.71 1 1 0 0 1 .72-.25 1 1 0 0 1 .71.25 1 1 0 0 1 .25.71.93.93 0 0 1-.25.69 1 1 0 0 1-.71.25 1 1 0 0 1-.72-.25.93.93 0 0 1-.25-.69zm1.82 10.25h-1.72V146h1.72zm9.3 0h-1.73v-5a2.17 2.17 0 0 0-.38-1.4 1.46 1.46 0 0 0-1.2-.46 1.9 1.9 0 0 0-1.6.64 3.56 3.56 0 0 0-.51 2.16v4h-1.72V146h1.35l.24 1.06h.08a2.39 2.39 0 0 1 1-.89 3.48 3.48 0 0 1 1.49-.32q2.92 0 2.92 3zm6.59-10.72l-4 10.71h-1.63l4-10.71z"/>
  <path class="cls-21"
        d="M204.19 154.09l-.34-1.13h-.06a3.31 3.31 0 0 1-1.18 1 3.72 3.72 0 0 1-1.52.27 2.58 2.58 0 0 1-1.87-.64 2.42 2.42 0 0 1-.67-1.82 2.14 2.14 0 0 1 .93-1.89 5.36 5.36 0 0 1 2.84-.7h1.4v-.43a1.63 1.63 0 0 0-.36-1.16 1.48 1.48 0 0 0-1.12-.38 3.88 3.88 0 0 0-1.19.18 8.85 8.85 0 0 0-1.1.43l-.56-1.23a6 6 0 0 1 1.44-.52 6.66 6.66 0 0 1 1.48-.18 3.5 3.5 0 0 1 2.33.67 2.64 2.64 0 0 1 .79 2.12v5.46zm-2.56-1.17a2.13 2.13 0 0 0 1.51-.52 1.9 1.9 0 0 0 .57-1.47v-.7h-1a3.56 3.56 0 0 0-1.77.41 1.24 1.24 0 0 0-.55 1.11 1.08 1.08 0 0 0 .32.84 1.38 1.38 0 0 0 .91.32zm12.54 1.17l-1-3.78q-.19-.6-.69-2.79h-.07q-.43 2-.67 2.81l-1.08 3.77h-1.9l-2.27-8.1h1.76l1 4q.35 1.48.5 2.54.07-.54.22-1.23t.26-1l1.23-4.26h1.89l1.19 4.26q.11.36.27 1.1a8.34 8.34 0 0 1 .19 1.15h.06a22.39 22.39 0 0 1 .51-2.52l1-4h1.73l-2.29 8.1zm8.83.14a3.92 3.92 0 0 1-3-1.1 4.19 4.19 0 0 1-1.07-3 4.59 4.59 0 0 1 1-3.12 3.41 3.41 0 0 1 2.72-1.14 3.34 3.34 0 0 1 2.54 1 3.72 3.72 0 0 1 .93 2.68v.93h-5.4a2.66 2.66 0 0 0 .64 1.81 2.22 2.22 0 0 0 1.69.63 6.21 6.21 0 0 0 1.34-.14 7 7 0 0 0 1.33-.45v1.4a5.32 5.32 0 0 1-1.27.42 7.85 7.85 0 0 1-1.45.08zm-.32-7.09a1.72 1.72 0 0 0-1.31.52 2.47 2.47 0 0 0-.59 1.52h3.68a2.24 2.24 0 0 0-.48-1.52 1.65 1.65 0 0 0-1.28-.52zm10.59 4.64a2.12 2.12 0 0 1-.86 1.82 4.14 4.14 0 0 1-2.48.63 5.86 5.86 0 0 1-2.6-.49v-1.49a6.39 6.39 0 0 0 2.66.66q1.59 0 1.59-1a.76.76 0 0 0-.18-.51 2.07 2.07 0 0 0-.58-.42 10 10 0 0 0-1.12-.5 5.22 5.22 0 0 1-1.89-1.08 2 2 0 0 1-.49-1.41 1.85 1.85 0 0 1 .84-1.62 4 4 0 0 1 2.28-.57 6.46 6.46 0 0 1 2.7.58l-.56 1.3a6 6 0 0 0-2.21-.54q-1.36 0-1.36.78a.78.78 0 0 0 .36.64 7.78 7.78 0 0 0 1.55.73 7 7 0 0 1 1.46.71 2.13 2.13 0 0 1 .67.74 2.15 2.15 0 0 1 .22 1.04zM242 150a4.42 4.42 0 0 1-1 3.1 3.65 3.65 0 0 1-2.84 1.11 3.89 3.89 0 0 1-2-.51 3.39 3.39 0 0 1-1.34-1.47 5 5 0 0 1-.47-2.23 4.39 4.39 0 0 1 1-3.08 3.67 3.67 0 0 1 2.85-1.11A3.57 3.57 0 0 1 241 147a4.38 4.38 0 0 1 1 3zm-5.9 0q0 2.81 2.07 2.81t2.05-2.81q0-2.78-2.07-2.78a1.76 1.76 0 0 0-1.57.72 3.65 3.65 0 0 0-.46 2.06zm14.42 4.09h-1.72v-5a2.27 2.27 0 0 0-.35-1.39 1.3 1.3 0 0 0-1.1-.46 1.67 1.67 0 0 0-1.46.65 3.8 3.8 0 0 0-.47 2.16v4h-1.72V146h1.3l.24 1.06h.09a2.24 2.24 0 0 1 1-.89 3.15 3.15 0 0 1 1.41-.32 2.46 2.46 0 0 1 2.48 1.27h.12a2.47 2.47 0 0 1 1-.94 3.2 3.2 0 0 1 1.49-.34 2.72 2.72 0 0 1 2.11.73 3.24 3.24 0 0 1 .66 2.23v5.28h-1.72v-5a2.25 2.25 0 0 0-.35-1.39 1.31 1.31 0 0 0-1.1-.46 1.71 1.71 0 0 0-1.47.63 3.23 3.23 0 0 0-.46 1.92zm10.76.14a3.92 3.92 0 0 1-3-1.1 4.19 4.19 0 0 1-1.07-3 4.59 4.59 0 0 1 1-3.12 3.41 3.41 0 0 1 2.72-1.14 3.34 3.34 0 0 1 2.54 1 3.72 3.72 0 0 1 .93 2.68v.93H259a2.66 2.66 0 0 0 .64 1.81 2.22 2.22 0 0 0 1.69.63 6.21 6.21 0 0 0 1.34-.14 7 7 0 0 0 1.33-.45v1.4a5.32 5.32 0 0 1-1.27.42 7.85 7.85 0 0 1-1.45.08zm-.32-7.09a1.72 1.72 0 0 0-1.31.52 2.47 2.47 0 0 0-.59 1.52h3.68a2.24 2.24 0 0 0-.48-1.52 1.65 1.65 0 0 0-1.26-.52zm4.42 3.66v-1.47h3.77v1.47zm8.5 3.43a3.54 3.54 0 0 1-2.79-1.07 5.44 5.44 0 0 1 0-6.22 3.71 3.71 0 0 1 2.89-1.1 5.4 5.4 0 0 1 2.31.48l-.52 1.38a5.2 5.2 0 0 0-1.8-.42q-2.1 0-2.1 2.79a3.35 3.35 0 0 0 .52 2 1.81 1.81 0 0 0 1.54.69 4.4 4.4 0 0 0 2.18-.57v1.5a3.43 3.43 0 0 1-1 .39 6 6 0 0 1-1.23.15zm8.94-.14l-.34-1.13h-.06a3.31 3.31 0 0 1-1.18 1 3.72 3.72 0 0 1-1.52.27 2.58 2.58 0 0 1-1.87-.64 2.42 2.42 0 0 1-.67-1.82 2.14 2.14 0 0 1 .93-1.89 5.36 5.36 0 0 1 2.84-.7h1.4v-.43a1.63 1.63 0 0 0-.36-1.16 1.48 1.48 0 0 0-1.12-.38 3.88 3.88 0 0 0-1.19.18 8.85 8.85 0 0 0-1.1.43l-.56-1.23a6 6 0 0 1 1.44-.52 6.66 6.66 0 0 1 1.48-.18 3.5 3.5 0 0 1 2.33.67 2.64 2.64 0 0 1 .79 2.12v5.46zm-2.56-1.17a2.13 2.13 0 0 0 1.51-.52 1.9 1.9 0 0 0 .57-1.47v-.7h-1a3.56 3.56 0 0 0-1.77.41 1.24 1.24 0 0 0-.55 1.11 1.08 1.08 0 0 0 .32.84 1.38 1.38 0 0 0 .91.32zm8.91-.08a4.19 4.19 0 0 0 1.26-.2v1.3a3.45 3.45 0 0 1-.74.21 5 5 0 0 1-.93.08q-2.45 0-2.45-2.58v-4.37h-1.11v-.76l1.19-.63.59-1.71H288V146h2.31v1.3H288v4.34a1.21 1.21 0 0 0 .31.92 1.13 1.13 0 0 0 .86.28z"/>
  <path class="cls-22"
        d="M191.46 196.1a9.46 9.46 0 0 0-1.84-3.67q-.47-.76-1-1.49-1 3 0 2.07c.93.25 4.7-4.32 5.17-5.05a10.7 10.7 0 0 0 1.49-7.95 18.16 18.16 0 0 0-1.46-3.93q-.55-1-1-2-.5 2.71 1 .58c4.28-4-.19-10.92-5.56-9.56-5.22 1.33-8.51 5.69-7.72 11.12a13.14 13.14 0 0 0 2 5.52c.23.32 1.41-.69-.16.14a11.29 11.29 0 0 0-2.12 1.77c-7.4 7-2.78 17.18 6.88 18.06 2.81.26 5.07-3 4.25-5.58z"/>
  <path class="cls-15" d="M120.34 200.5l3.12-5.68m-32.63 14.85l8.8-.37"/>
  <path class="cls-23"
        d="M210 76.72L222.64 69 210 61.89l7.31-12.5h-15V34.1l-12.45 7.3-7.22-12.65-7.3 12.65-12.66-7.3v15.29h-14.53l7.31 12.31-12.66 7.14 12.65 8-7.31 13.31h14.53v13.12l12.7-7.31 7.33 12.65 7.14-12.65 12.49 7.31V90.12h15z"/>
  <circle class="cls-24" cx="183.01" cy="68.67" r="21.94"/>
  <path class="cls-12"
        d="M85 27.58c-41.63 0-46.81 48.55-46.85 49a1.13 1.13 0 0 0 .06.5L41.1 85a1.14 1.14 0 0 0 .93.74 1.16 1.16 0 0 0 1.09-.49l4.94-7.13 5.4 6.27a1.09 1.09 0 0 0 .87.34 1.09 1.09 0 0 0 .87-.35l6.74-7.92 4.45 7.67a1.14 1.14 0 0 0 1.84.19l6.42-7.17 5.5 8.35a1.14 1.14 0 0 0 .85.5h.1a1.14 1.14 0 0 0 .82-.35L90.33 77l6.52 8.49a1.14 1.14 0 0 0 1.77.06l8.38-9.63 6.64 9.17a1.14 1.14 0 0 0 .92.47 1.18 1.18 0 0 0 .93-.46l6.41-8.61 6.29 8.6a1.15 1.15 0 0 0 1.13.45 1.14 1.14 0 0 0 .9-.82L132.3 77a1.16 1.16 0 0 0 0-.42c-.01-.46-5.7-49-47.3-49z"/>
  <path class="cls-25"
        d="M72.11 40.82s-13.75 2.85-17.33 18.75m120.76 163.46v13.93m-116.3 1.15s-13.42 4.23-13.42 16.15"/>
</svg>