<svg id="Layer_1" data-name="Layer 1" xmlns="http://www.w3.org/2000/svg" viewBox="0 0 320 320">
  <defs>
    <style>
      .cls-1{fill:#ededed}.cls-2,.cls-6{fill:none;stroke-linecap:round;stroke-linejoin:round;stroke-width:2px}.cls-2{stroke:#222}.cls-3{fill:#fff}.cls-4{fill:#8e8e8e}.cls-5{fill:#ff2e63}.cls-6{stroke:#828282}.cls-7{fill:#e5dfda}.cls-8{fill:#828282}.cls-9{fill:#e5dcd6}.cls-10{fill:#222}.cls-11{fill:#bcbcbc}.cls-12{fill:#666}.cls-13{fill:#41cc8d}.cls-14{fill:#d6184f}.cls-15{fill:#ff80aa}.cls-16{fill:#ffdbc0}.cls-17{fill:#edc9b0}.cls-18{fill:#b28d74}.cls-19{fill:#ce926a}.cls-20{fill:#686868}.cls-21{fill:#c49a6c}.cls-22{fill:#b7885a}.cls-23{fill:#6eedb0}.cls-24{fill:#2ea069}.cls-25{fill:#7c5b3a}
    </style>
  </defs>
  <title>Send</title>
  <path class="cls-1" transform="rotate(-12.35 115.806 78.266)" d="M10.87 39.48h209.81v77.55H10.87z"/>
  <path class="cls-2" d="M21.59 138.58l68.39-49.23m136.4 4.38L143.67 77.6"/>
  <path class="cls-2" transform="rotate(-12.35 115.806 78.266)" d="M10.87 39.48h209.81v77.55H10.87z"/>
  <path class="cls-3" d="M196.8 27.97L191.12 2 15.45 40.47l5.86 26.75 98.75 30.64 76.74-69.89z"/>
  <path class="cls-4"
        d="M40.85 59.74l-.53-.94h-.05a3 3 0 0 1-.86 1.13 3.41 3.41 0 0 1-1.31.54 2.36 2.36 0 0 1-1.79-.21 2.21 2.21 0 0 1-1-1.5 2 2 0 0 1 .46-1.87 4.9 4.9 0 0 1 2.4-1.18l1.24-.31-.03-.4a1.49 1.49 0 0 0-.55-1 1.35 1.35 0 0 0-1.08-.12 3.52 3.52 0 0 0-1 .4 8.29 8.29 0 0 0-.9.6l-.74-1a5.42 5.42 0 0 1 1.19-.75 6 6 0 0 1 1.29-.45 3.21 3.21 0 0 1 2.22.15 2.42 2.42 0 0 1 1.12 1.74L42 59.5zm-2.52-.55a2 2 0 0 0 1.24-.76A1.75 1.75 0 0 0 39.8 57l-.14-.63-.92.24a3.26 3.26 0 0 0-1.5.71 1.13 1.13 0 0 0-.28 1.1 1 1 0 0 0 .45.69 1.27 1.27 0 0 0 .93.09zm9.2-.77a2.6 2.6 0 0 1-2.35-.52h-.09q.29.9.34 1.09l.65 3-1.54.34-2.29-10.48 1.24-.27q.1.19.43.92H44a2.47 2.47 0 0 1 1.92-1.57 2.57 2.57 0 0 1 2.33.52A5.51 5.51 0 0 1 49.44 57a2.6 2.6 0 0 1-1.91 1.42zm-1.74-6.16a1.64 1.64 0 0 0-1.22.83 2.85 2.85 0 0 0 0 1.81v.23a3.47 3.47 0 0 0 .84 1.82 1.59 1.59 0 0 0 1.5.29 1.42 1.42 0 0 0 1.09-.93 3.46 3.46 0 0 0 0-2 3.33 3.33 0 0 0-.83-1.75 1.46 1.46 0 0 0-1.38-.31zm9.82 4.39a2.59 2.59 0 0 1-2.35-.52h-.09q.29.9.33 1.09l.65 3-1.54.34-2.28-10.48 1.24-.27c.07.13.21.44.43.92h.08A2.47 2.47 0 0 1 54 49.14a2.57 2.57 0 0 1 2.33.52 5.51 5.51 0 0 1 1.2 5.53 2.59 2.59 0 0 1-1.92 1.46zm-1.74-6.16a1.64 1.64 0 0 0-1.22.83 2.85 2.85 0 0 0 0 1.81v.23a3.47 3.47 0 0 0 .84 1.82 1.59 1.59 0 0 0 1.5.29 1.42 1.42 0 0 0 1.09-.92 3.44 3.44 0 0 0 0-2 3.33 3.33 0 0 0-.83-1.75 1.46 1.46 0 0 0-1.38-.31zM63.19 55a3.58 3.58 0 0 1-2.86-.41 3.83 3.83 0 0 1-1.55-2.5 4.21 4.21 0 0 1 .27-3 3.12 3.12 0 0 1 2.2-1.55 3.06 3.06 0 0 1 2.46.38 3.4 3.4 0 0 1 1.36 2.21l.18.83L60.43 52a2.44 2.44 0 0 0 .92 1.49 2 2 0 0 0 1.64.24 5.74 5.74 0 0 0 1.17-.38 6.45 6.45 0 0 0 1.1-.66l.27 1.31a4.82 4.82 0 0 1-1.05.63 7.18 7.18 0 0 1-1.29.37zm-1.67-6.27a1.58 1.58 0 0 0-1.07.72 2.27 2.27 0 0 0-.23 1.47l3.28-.72a2 2 0 0 0-.73-1.26 1.51 1.51 0 0 0-1.25-.22zM72 52.93l-.55-.93h-.05a3 3 0 0 1-.86 1.13 3.38 3.38 0 0 1-1.31.54 2.35 2.35 0 0 1-1.79-.21 2.21 2.21 0 0 1-1-1.5 2 2 0 0 1 .46-1.87 4.91 4.91 0 0 1 2.4-1.18l1.24-.31-.08-.39a1.5 1.5 0 0 0-.55-1 1.35 1.35 0 0 0-1.08-.12 3.6 3.6 0 0 0-1 .4 8.43 8.43 0 0 0-.9.6l-.74-1a5.38 5.38 0 0 1 1.19-.75 6 6 0 0 1 1.29-.45 3.2 3.2 0 0 1 2.22.15A2.42 2.42 0 0 1 72 47.81l1.07 4.88zm-2.52-.55a2 2 0 0 0 1.24-.76 1.74 1.74 0 0 0 .22-1.42l-.14-.63-.92.24a3.25 3.25 0 0 0-1.5.71 1.13 1.13 0 0 0-.28 1.1 1 1 0 0 0 .45.69 1.27 1.27 0 0 0 .91.07zM77 44.1a3.84 3.84 0 0 1 .78-.1l.22 1.47a3 3 0 0 0-.7.07 2 2 0 0 0-1.36.93 2.23 2.23 0 0 0-.23 1.69l.83 3.78-1.54.33L73.37 45l1.2-.26.49 1.26h.08a2.93 2.93 0 0 1 .71-1.23A2.28 2.28 0 0 1 77 44.1zm2 6.43a1 1 0 0 1 .09-.79 1.16 1.16 0 0 1 1.45-.31 1 1 0 0 1 .41.67 1.06 1.06 0 0 1-.09.79 1.12 1.12 0 0 1-1.44.32 1.07 1.07 0 0 1-.42-.68zm1.72-9.11a.87.87 0 0 1 .09-.68.9.9 0 0 1 .6-.36.88.88 0 0 1 .68.09.87.87 0 0 1 .37.58.85.85 0 0 1-.09.67.87.87 0 0 1-.58.36.89.89 0 0 1-.69-.08.86.86 0 0 1-.38-.58zm3.63 8.8l-1.54.34-1.58-7.24 1.54-.32zm8.3-1.82l-1.54.34-1-4.45a2 2 0 0 0-.61-1.18 1.34 1.34 0 0 0-1.16-.18 1.74 1.74 0 0 0-1.3.89 3.25 3.25 0 0 0 0 2l.79 3.61-1.54.34-1.58-7.24 1.21-.26.42.9h.08a2.18 2.18 0 0 1 .75-1 3.17 3.17 0 0 1 1.27-.57 2.38 2.38 0 0 1 3.19 2.08zm3.79-10.86L95 47.89l-1.45.32L95 37.86z"/>
  <path class="cls-5"
        d="M104 45.91l-.53-.94h-.05a3 3 0 0 1-.86 1.13 3.41 3.41 0 0 1-1.31.54 2.36 2.36 0 0 1-1.79-.21 2.21 2.21 0 0 1-1-1.5 2 2 0 0 1 .54-1.86 4.91 4.91 0 0 1 2.4-1.18l1.24-.31-.09-.39a1.49 1.49 0 0 0-.55-1 1.35 1.35 0 0 0-1.08-.12 3.58 3.58 0 0 0-1 .4 8.29 8.29 0 0 0-.9.6l-.74-1a5.45 5.45 0 0 1 1.19-.75 6.1 6.1 0 0 1 1.29-.45 3.21 3.21 0 0 1 2.22.15A2.42 2.42 0 0 1 104 40.8l1.07 4.88zm-2.52-.55a2 2 0 0 0 1.24-.76 1.73 1.73 0 0 0 .22-1.42l-.14-.63-.92.24a3.26 3.26 0 0 0-1.5.71 1.13 1.13 0 0 0-.28 1.1 1 1 0 0 0 .45.69 1.26 1.26 0 0 0 .94.08zM112.92 44l-1.68-3.17q-.28-.5-1.16-2.36H110c0 1.23 0 2.11-.05 2.64l-.23 3.57L108 45l-3.61-6.79 1.57-.34 1.7 3.36q.61 1.25.94 2.17v-2.14l.26-4.05 1.69-.37 1.9 3.58c.11.2.27.51.46.93a7.63 7.63 0 0 1 .4 1h.05a20.16 20.16 0 0 1 0-2.35l.16-3.77 1.54-.34-.46 7.68zm7.94-1.64A3.59 3.59 0 0 1 118 42a3.83 3.83 0 0 1-1.54-2.5 4.19 4.19 0 0 1 .27-3 3.12 3.12 0 0 1 2.2-1.55 3.05 3.05 0 0 1 2.45.38 3.41 3.41 0 0 1 1.36 2.21l.18.83-4.82 1.03a2.44 2.44 0 0 0 .92 1.49 2 2 0 0 0 1.63.24 5.76 5.76 0 0 0 1.17-.38 6.53 6.53 0 0 0 1.1-.66l.27 1.25a4.83 4.83 0 0 1-1.06.63 7.2 7.2 0 0 1-1.27.39zm-1.67-6.27a1.58 1.58 0 0 0-1.07.72 2.26 2.26 0 0 0-.23 1.47l3.29-.72a2 2 0 0 0-.73-1.26 1.52 1.52 0 0 0-1.26-.21zm10.34 2.07a1.94 1.94 0 0 1-.42 1.79A3.78 3.78 0 0 1 127 41a5.34 5.34 0 0 1-2.42.07l-.29-1.33a5.82 5.82 0 0 0 2.5.07q1.42-.31 1.23-1.17a.69.69 0 0 0-.26-.42 1.86 1.86 0 0 0-.6-.27 9.08 9.08 0 0 0-1.1-.23 4.76 4.76 0 0 1-1.9-.6 1.84 1.84 0 0 1-.72-1.16 1.69 1.69 0 0 1 .43-1.61 3.64 3.64 0 0 1 1.93-1 5.91 5.91 0 0 1 2.53 0l-.24 1.27a5.49 5.49 0 0 0-2.08-.05q-1.22.27-1.06 1a.71.71 0 0 0 .44.51 7.09 7.09 0 0 0 1.53.35 6.51 6.51 0 0 1 1.44.35 2 2 0 0 1 .75.53 2 2 0 0 1 .42.85zm7.47-3.28a4 4 0 0 1-.3 3 3.34 3.34 0 0 1-2.32 1.55 3.55 3.55 0 0 1-1.89-.07 3.1 3.1 0 0 1-1.49-1.08 4.58 4.58 0 0 1-.86-1.9 4 4 0 0 1 .3-2.95 3.35 3.35 0 0 1 2.33-1.55 3.26 3.26 0 0 1 2.71.47 4 4 0 0 1 1.52 2.53zM131.73 36q.55 2.51 2.4 2.1t1.28-2.91q-.54-2.48-2.39-2.08a1.61 1.61 0 0 0-1.26.95 3.34 3.34 0 0 0-.03 1.94zm13.67.85l-1.54.34-1-4.46a2.09 2.09 0 0 0-.59-1.17 1.19 1.19 0 0 0-1.07-.19 1.54 1.54 0 0 0-1.18.87 3.49 3.49 0 0 0 0 2l.79 3.61-1.54.34-1.58-7.24 1.2-.26.42.9h.08a2.06 2.06 0 0 1 .7-1 2.88 2.88 0 0 1 1.2-.56 2.26 2.26 0 0 1 2.46.65h.11a2.26 2.26 0 0 1 .72-1 2.92 2.92 0 0 1 1.27-.59 2.49 2.49 0 0 1 2 .24 3 3 0 0 1 1 1.87l1 4.72-1.54.34-1-4.46a2.06 2.06 0 0 0-.59-1.17 1.2 1.2 0 0 0-1.08-.19 1.56 1.56 0 0 0-1.19.85 3 3 0 0 0 0 1.81zm9.6-1.97a3.59 3.59 0 0 1-2.86-.41 3.83 3.83 0 0 1-1.54-2.5 4.2 4.2 0 0 1 .27-3 3.13 3.13 0 0 1 2.21-1.55 3 3 0 0 1 2.45.38 3.41 3.41 0 0 1 1.39 2.2l.18.83-4.82 1.06a2.42 2.42 0 0 0 .92 1.49 2 2 0 0 0 1.64.24 5.7 5.7 0 0 0 1.17-.38 6.46 6.46 0 0 0 1.1-.66l.27 1.25a4.92 4.92 0 0 1-1.06.63 7.2 7.2 0 0 1-1.32.42zm-1.67-6.27a1.58 1.58 0 0 0-1.07.72 2.26 2.26 0 0 0-.23 1.47l3.28-.72a2 2 0 0 0-.73-1.26 1.51 1.51 0 0 0-1.22-.22zM158 31l-.29-1.31 3.39-.69.29 1.31zm8.29 1.41a3.24 3.24 0 0 1-2.7-.41 4.09 4.09 0 0 1-1.46-2.56 4.12 4.12 0 0 1 .28-3 3.39 3.39 0 0 1 2.37-1.55 5 5 0 0 1 2.16 0l-.19 1.34a4.78 4.78 0 0 0-1.69 0q-1.88.41-1.33 2.9a3.05 3.05 0 0 0 .87 1.73 1.66 1.66 0 0 0 1.5.31 4 4 0 0 0 1.83-.94l.29 1.34a3.12 3.12 0 0 1-.81.54 5.32 5.32 0 0 1-1.12.3zm7.95-1.87l-.53-.94h-.05a3 3 0 0 1-.86 1.13 3.41 3.41 0 0 1-1.31.54 2.36 2.36 0 0 1-1.79-.21 2.21 2.21 0 0 1-1-1.5 2 2 0 0 1 .46-1.87 4.91 4.91 0 0 1 2.4-1.18l1.24-.31-.09-.39a1.49 1.49 0 0 0-.55-1 1.35 1.35 0 0 0-1.08-.12 3.58 3.58 0 0 0-1 .4 8.29 8.29 0 0 0-.9.6l-.74-1a5.45 5.45 0 0 1 1.19-.75 6.1 6.1 0 0 1 1.29-.45 3.21 3.21 0 0 1 2.22.15 2.42 2.42 0 0 1 1.12 1.74l1.07 4.88zm-2.52-.54a2 2 0 0 0 1.24-.76 1.73 1.73 0 0 0 .22-1.42l-.14-.63-.92.24a3.26 3.26 0 0 0-1.5.71 1.13 1.13 0 0 0-.28 1.1 1 1 0 0 0 .45.69 1.26 1.26 0 0 0 .93.07zm7.95-1.82a3.82 3.82 0 0 0 1.09-.42l.25 1.16a3.12 3.12 0 0 1-.62.33 4.58 4.58 0 0 1-.82.26q-2.18.48-2.69-1.83l-.85-3.9L175 24l-.15-.68.94-.79.19-1.65.95-.21.35 1.61 2.06-.45.25 1.17-2.06.45.85 3.87a1.11 1.11 0 0 0 .46.76 1 1 0 0 0 .83.1z"/>
  <path class="cls-1" d="M120.06 97.86l76.74-69.89-1.04-4.77-76.79 69.68L11.08 62.95l-3.55 1.19 112.53 33.72z"/>
  <path class="cls-6" d="M197.01 28.93L191.12 2 15.45 40.47l5.86 26.75"/>
  <path class="cls-2" d="M209.95 17.94l-89.89 79.92L5.13 63.42"/>
  <ellipse class="cls-7" cx="125.53" cy="254.97" rx="32.41" ry="9.27"/>
  <ellipse class="cls-7" cx="172.6" cy="225.06" rx="8.07" ry="3.45"/>
  <ellipse class="cls-7" cx="80.89" cy="266.22" rx="8.07" ry="3.45"/>
  <path class="cls-8" d="M70.54 194.78l5.18-6.74 6.22 6.74-5.44 4.4-5.96-4.4z"/>
  <circle class="cls-9" cx="79.77" cy="175.09" r="6.48"/>
  <circle class="cls-9" cx="68.11" cy="176.64" r="6.48"/>
  <circle class="cls-9" cx="70.32" cy="169.13" r="6.48"/>
  <circle class="cls-9" cx="58.37" cy="174.62" r="6.48"/>
  <path class="cls-10" d="M107.61 175.01h32.95v27.46h-32.95z"/>
  <path class="cls-11"
        d="M66.91 186.34l-16.55 20.53a4 4 0 0 1 .34 1.09 6.69 6.69 0 0 1 .09.71h.06a16 16 0 0 0 1.58.37 10.29 10.29 0 0 1 3.73 1.85c1.42 1.19 1.82 2.76 3.91 2.9 1.69.11 3.56-.74 5.06-1.41a4.27 4.27 0 0 1 5.86 3.1h5.51l.21-18.13c0-.6-9.8-11.01-9.8-11.01z"/>
  <path class="cls-1"
        d="M100.38 189.22l-10.62-13.65-38.6 51.21a12.22 12.22 0 0 1 6.36 4.62c1.31 1.81 2.23 4.31 4.17 5.58 3 2 5.85-.13 8.62-1.43 5.36-2.5 10.58-3.28 16-.44 5.08 2.68 10.23 4.7 14.28-1 2.86-4.06 9.59-.17 6.71 3.92a19.36 19.36 0 0 1-5.76 5.49h6.85v-49z"/>
  <path class="cls-8" d="M108.38 240.91h29.42v14.29h-29.42z"/>
  <path class="cls-8"
        d="M100.71 242.24s-10.56 22 11.57 21.9c0 0 3.36-.7 9.28-4l13.61-8.28s.12-5.44-4-6.87l-16.93 6.86s-2.82-4.23-.71-6.75z"/>
  <path class="cls-12"
        d="M116.55 250.89l-2.32.94a11.1 11.1 0 0 1-1.08-2.26c-5 4.55 2.54 8.95 6.64 11.48.55-.27 1.14-.57 1.78-.93l4.07-2.48a34 34 0 0 1-9.09-6.75z"/>
  <path class="cls-13"
        d="M112.58 252l-12.31 7s-1.6.56-3.3-1.67a5.43 5.43 0 0 1-.68-4.9l12.31-6.57 4.76-2.5s2.22-.26 2.78.53l1.44 3-5 5"/>
  <path class="cls-12" d="M125.64 247.24a60.1 60.1 0 0 0 7.27 3.66 7.12 7.12 0 0 0 3.8.48l-3.53 1.9-7.18-2.88z"/>
  <path class="cls-8"
        d="M148.67 244c.36 0 10.06 14.56-7.46 20.59 0 0-9.47 2.72-19.05-4.62l-9.23-6.51a6.18 6.18 0 0 1-.24-.94c-.37-2-.4-6.79 6.87-8.17l13.61 7.7s4.26 1.78 6.39-5.32z"/>
  <path class="cls-13"
        d="M139.91 252.43l4.73 1.66s3 1.18 4.14-2.37c0 0 1.07-2.6-1.18-3.43s-.47-.12-.47-.12l-10.3-4s-3-.71-3.91 1.54l1.42 5.21z"/>
  <path class="cls-5" d="M111.28 197.63l-11.13 17.9-1.47 27.17s23.2 12 48.53-1v-32.4l-10.71-11.66z"/>
  <path class="cls-14"
        d="M108.5 246c3.85.07 7.94-.09 11.61-1.46a3 3 0 0 0-1.66-2.17c-5.58-1.93-14.42-.3-19.42-3.53l-.13-.09-.21 3.92a48 48 0 0 0 9.64 3.34z"/>
  <path class="cls-15" transform="rotate(-89.64 123.048 212.44)" d="M112.98 211.66h20.16v1.55h-20.16z"/>
  <path class="cls-8"
        d="M126.2 209.25h-.12a.78.78 0 0 1-.54-.35l-3-4.62a.78.78 0 0 1 .25-1.08l2.13-1.3a.78.78 0 0 1 1 .21l3 4.14a.78.78 0 0 1-.13 1l-2.13 1.77a.78.78 0 0 1-.46.23zm-1.1-3.59l1.28 1.65.9-.75-1.34-1.41z"/>
  <path class="cls-14"
        d="M118.46 234.66v-5.49a26.52 26.52 0 0 1-7.71-.22c-2.68-.55-5.58-1.24-6.4-3.83-2.37-7.53.1-11.62.1-11.62l-2 .77-2.62 6.06-.34 5.09 6.68 5.82 4.79 1z"/>
  <path class="cls-16" d="M118.33 230.87l-3.31 1.7.43 1.92 2.91-.06-.03-3.56z"/>
  <path class="cls-17" d="M118.45 232.85l-3.18.84.18.8 2.91-.06.09-1.58z"/>
  <rect class="cls-10" x="117.92" y="222.37" width="14.73" height="26.76" rx="2" ry="2"/>
  <circle class="cls-8" cx="121.45" cy="226.2" r="1.65"/>
  <path class="cls-14" d="M140 214.65a39.27 39.27 0 0 1 .09 14.46c-1.33 7.84-3 10.68-3 10.68l4 4.91 5.07-25.46z"/>
  <path class="cls-16"
        d="M139.38 239.65l-3.47 2.7s-1.8 2.44.51 3.21l1.78-.11-2 1.78s-.52 2.92.77 4.46 2.93 1.24 5.24.22 5.17-7.89 5.17-7.89"/>
  <path class="cls-5"
        d="M134.84 197.16s19.41 3.56 20.11 24.15c0 0 1.3 18.23-7.58 23.43 0 0-6.51.59-9.11-5.21 0 0 6.87-8.76 1.66-25.21"/>
  <path class="cls-14"
        d="M152.38 227.49a36.4 36.4 0 0 1 1.68 5.93 48.76 48.76 0 0 0 .9-12.12c-.7-20.59-20.11-24.15-20.11-24.15l.36 1.22c9.79 5.82 16.66 17.75 17.17 29.12z"/>
  <path class="cls-16"
        d="M114.54 234a23.27 23.27 0 0 0 8.39-1.6s4.29-1.23 5.52 3c.64 2.21.94 5.39-2.36 6.33a30.46 30.46 0 0 1-12 1.06"/>
  <path class="cls-5"
        d="M107.42 198s-22.5 3-18 32.78c0 0 3.2 13.51 25.82 13.2a23.51 23.51 0 0 0-.52-13.47s-18.76 1-10.64-15.38l3.3-6.13 5.86-11.79s-1.24.28-5.82.79z"/>
  <path class="cls-16"
        d="M143.26 179.54c0 11.42-9.27 24.8-20.69 24.8s-20.68-13.39-20.67-24.81a20.68 20.68 0 0 1 41.36 0z"/>
  <path class="cls-17"
        d="M128.48 159.71c3 3.87 1.76 8.69 3.71 13.23 2.72 6.32 4.27 14.76 1.59 21.08-2.36 5.57-3.52 7.38-8.68 10.09 10.23-1.77 18.17-14 18.17-24.57a20.68 20.68 0 0 0-14.79-19.83z"/>
  <path class="cls-18"
        d="M122.71 200a6.78 6.78 0 0 1-4.4-1.68.78.78 0 0 1 1.09-1.11c.13.12 3 2.77 6.9-.07a.78.78 0 1 1 .91 1.26 7.63 7.63 0 0 1-4.5 1.6z"/>
  <path class="cls-10"
        d="M138.44 175.32l-2.87 6.77H113l-3.43-6.26-.47 29.58H97s-9.31-55 28-54.94c33.93 0 26.92 55 26.92 55h-13.25z"/>
  <path class="cls-18"
        d="M118.85 187.44a.77.77 0 0 1-.55-.23c-2.68-2.68-6.14-.05-6.28.06a.78.78 0 0 1-1-1.22c1.6-1.26 5.41-2.87 8.34.06a.78.78 0 0 1-.55 1.33zm15.54 0a.77.77 0 0 1-.55-.23c-2.68-2.68-6.14-.05-6.28.06a.78.78 0 0 1-1-1.22c1.6-1.26 5.41-2.87 8.34.06a.78.78 0 0 1-.55 1.33zm-11.88 7.28a4.66 4.66 0 0 1-1.59-.28.78.78 0 0 1-.46-.94l.9-3.09a.78.78 0 0 1 1.49.44l-.67 2.3a2.23 2.23 0 0 0 1.15-.14.78.78 0 0 1 .63 1.42 3.59 3.59 0 0 1-1.45.29z"/>
  <path class="cls-3"
        d="M101.68 184.25a.78.78 0 0 1-.77-.73c0-.17-.84-16.73 12.67-25a.78.78 0 0 1 .81 1.33c-12.69 7.73-11.93 23.38-11.92 23.54a.78.78 0 0 1-.73.82z"/>
  <path class="cls-19" d="M167.3 218.15h5.1v7.57h-5.1z"/>
  <path class="cls-13" d="M170.19 189.86l-8.96 10.11 18.03.01-9.07-10.12z"/>
  <path class="cls-13" d="M169.8 195.08l-9.84 11.11 19.81.01-9.97-11.12z"/>
  <path class="cls-13" d="M169.7 200.99l-10.81 12.19 21.74.01-10.93-12.2z"/>
  <path class="cls-13" d="M169.79 206.44L158.3 219.4l23.11.01-11.62-12.97z"/>
  <path class="cls-1"
        d="M71.08 251.6c-1.14.51-2.27 1-3.39 1.49h16.86c-.46-.24-.91-.49-1.35-.75-4.39-2.57-7.44-2.85-12.12-.74z"/>
  <path class="cls-19" d="M74.66 257.28h6.28v9.32h-6.28z"/>
  <path class="cls-13" d="M78.22 222.47l-11.03 12.45h22.19l-11.16-12.45z"/>
  <path class="cls-13" d="M77.75 228.89l-12.13 13.68h24.39l-12.26-13.68z"/>
  <path class="cls-13" d="M77.62 236.17l-13.3 15 26.75.01-13.45-15.01z"/>
  <path class="cls-13" d="M77.73 242.87l-14.15 15.95 28.46.01-14.31-15.96z"/>
  <path class="cls-3"
        d="M166.93 290.21a.74.74 0 0 1-.72-.58 6.05 6.05 0 0 1 2.27-6 .73.73 0 1 1 .86 1.19 4.61 4.61 0 0 0-1.7 4.47.74.74 0 0 1-.56.87z"/>
  <ellipse class="cls-7" cx="279.64" cy="298.15" rx="8.26" ry="4.49"/>
  <ellipse class="cls-7" cx="180.82" cy="302.76" rx="21.44" ry="6.34"/>
  <ellipse class="cls-7" cx="234.93" cy="310.91" rx="36.63" ry="7.51"/>
  <path class="cls-8" d="M215.43 256.42s-19.76 5.26-18.81 45.44h56.45s4.45-33.7-18.94-46.88z"/>
  <path class="cls-20"
        d="M232 265.22a3.13 3.13 0 0 1 .14.81c3.56-1.08 7.13-2.55 9.69-5.09-.6-.63-1.23-1.24-1.89-1.83-1.42.6-2.9 1.09-4.45 1.73-1.72.71-3.26 1.6-4.92 2.27a4.28 4.28 0 0 1 1.43 2.11zm-9.92.1a3.41 3.41 0 0 1 .54-1.16 18.14 18.14 0 0 1-12.09-5 26.13 26.13 0 0 0-4.71 4.77 4.61 4.61 0 0 1 .48.33c4.31 3.46 10.22 3.78 15.82 3.32a4.51 4.51 0 0 1-.04-2.26z"/>
  <path class="cls-16"
        d="M216.34 257c0 1.48-.55 3.53-.21 5s.91 1.57 2.3 2.15a25.19 25.19 0 0 0 8.66 1.89 10.87 10.87 0 0 0 8.22-3.29 22.66 22.66 0 0 0 1.08-4.54c0-.22.07-.45.11-.67a30.65 30.65 0 0 0-3.14-2l-17 1.31c-.02-.02-.02.05-.02.15z"/>
  <path class="cls-17"
        d="M216.14 259.35c5.41 3.46 13.54 3 19.75.32l.27-.16c.09-.52.17-1 .24-1.36s.07-.45.11-.67a30.65 30.65 0 0 0-3.14-2l-17 1.31v.21a20.58 20.58 0 0 1-.23 2.35z"/>
  <path class="cls-8"
        d="M234.48 251.51l-2.28.42a6.44 6.44 0 0 1-.12 5.35c-1.52 3.34-4.63 6.65-8.54 6.57a9.09 9.09 0 0 1-8.61-8 2.52 2.52 0 0 1 0-.75l-3.25-1.52s-5.26 2.7-4.39 6.28c0 0 1 4.56 10.4 7.77a16.38 16.38 0 0 0 13.32-1.6s9.26-4.5 9.5-8.7c.02.04-.23-3.23-6.03-5.82z"/>
  <path class="cls-16"
        d="M242.67 237.84c0 10.8-8.76 23.46-19.57 23.45s-19.55-12.66-19.55-23.46a19.56 19.56 0 0 1 39.12 0z"/>
  <path class="cls-17"
        d="M229.42 219.32c10.79 13.48 9.54 23.47 5 34a28 28 0 0 1-3.32 5.63c6.84-4.16 11.6-13.13 11.61-21.1a19.56 19.56 0 0 0-13.29-18.53z"/>
  <path class="cls-19"
        d="M233.37 229.55c.32.19 3 9.25 3 9.25l7.28-.49s1.23-21.83-19.49-21.83c0 0-21.34.74-21.34 19.24 0 0 3.21 5.3 10.24 2.22-.06 0 11.68-13.57 20.31-8.39z"/>
  <path class="cls-10" d="M243.13 229.49c4.25 0 7.73 2.6 7.73 5.77v5.48c0 3.18-3.48 5.77-7.73 5.77z"/>
  <path class="cls-10"
        d="M243.13 247.24a.73.73 0 0 1-.73-.74v-17a.73.73 0 0 1 .73-.74c4.67 0 8.47 2.92 8.47 6.51v5.48c-.01 3.58-3.8 6.49-8.47 6.49zm.74-17v15.5c3.51-.27 6.26-2.41 6.26-5v-5.48c-.01-2.6-2.75-4.74-6.27-5.01zm-39.67-.75c-4.25 0-7.73 2.6-7.73 5.77v5.48c0 3.18 3.48 5.77 7.73 5.77z"/>
  <path class="cls-10"
        d="M204.2 247.24c-4.67 0-8.47-2.92-8.47-6.51v-5.48c0-3.59 3.8-6.51 8.47-6.51a.73.73 0 0 1 .73.74v17a.73.73 0 0 1-.73.76zm-.74-17c-3.51.27-6.26 2.41-6.26 5v5.48c0 2.6 2.75 4.75 6.26 5z"/>
  <path class="cls-10"
        d="M245.75 236.16a1.1 1.1 0 0 1-1.1-1.1c0-11-9.52-19.93-21.22-19.93s-21.22 8.94-21.22 19.93a1.1 1.1 0 0 1-2.2 0c0-12.2 10.51-22.13 23.43-22.13s23.43 9.93 23.43 22.13a1.1 1.1 0 0 1-1.12 1.1z"/>
  <path class="cls-18"
        d="M223.38 248.79a1.58 1.58 0 0 1-1.29-.54c-.82-1 0-2.74.28-3.25a.73.73 0 0 1 1.3.69 3 3 0 0 0-.44 1.63h.13a2.7 2.7 0 0 0 .77-.14.73.73 0 1 1 .43 1.4 4.07 4.07 0 0 1-1.18.21zm-.15-1.8zm-8.13-4.13a.73.73 0 0 1-.62-1.12 4.07 4.07 0 0 1 2.82-1.91 3.21 3.21 0 0 1 2.7 1.43.74.74 0 0 1-1.14.93 1.88 1.88 0 0 0-1.46-.89 2.67 2.67 0 0 0-1.66 1.22.73.73 0 0 1-.64.34zm11.76 0a.73.73 0 0 1-.62-1.12 4.07 4.07 0 0 1 2.82-1.91 3.21 3.21 0 0 1 2.7 1.43.74.74 0 0 1-1.14.93 1.88 1.88 0 0 0-1.46-.89 2.67 2.67 0 0 0-1.66 1.22.73.73 0 0 1-.64.34zm-3.35 11.85a14.46 14.46 0 0 1-7.62-2.41.73.73 0 0 1 .86-1.19c.28.21 7 5 13.12-.36a.73.73 0 1 1 1 1.1 10.85 10.85 0 0 1-7.36 2.86z"/>
  <path class="cls-19" d="M229.39 227.2s-8 5.61-8.28 10.42c0 0-4-3.74-1.87-11.22z"/>
  <path class="cls-19" d="M234.39 229.2a49.28 49.28 0 0 0-7.24 7s-1-6.17 2.09-10.21z"/>
  <path class="cls-10"
        d="M241.17 275a.74.74 0 0 1-.73-.64 8.06 8.06 0 0 1 1.61-5.72 13.8 13.8 0 0 1 4.42-3.74l.92-.51c1.6-.88 3.26-1.78 4-3.29a3.76 3.76 0 0 0-.06-3.25A8.21 8.21 0 0 0 248 255a10.81 10.81 0 0 1-3.6-3 9 9 0 0 1-1.14-5.68.72.72 0 0 1 .78-.68.74.74 0 0 1 .68.78 7.4 7.4 0 0 0 .89 4.75 9.59 9.59 0 0 0 3.14 2.54 9.4 9.4 0 0 1 3.85 3.45 5.25 5.25 0 0 1 .09 4.55c-.91 1.94-2.78 3-4.59 4l-.89.5a12.37 12.37 0 0 0-4 3.33 6.58 6.58 0 0 0-1.34 4.65.74.74 0 0 1-.63.83z"/>
  <circle class="cls-10" cx="219.47" cy="267.12" r=".93"/>
  <circle class="cls-10" cx="227.69" cy="267.12" r=".93"/>
  <path class="cls-20"
        d="M218.06 281.32v-.38c-.76-6.94-.42-11.7 1-13.79l.19-.26.57.46-.15.21c-.91 1.35-1.79 4.74-.86 13.28v.45h-.37zm12.83-.74l-.72-.12c1-6.26-2.52-12.7-2.56-12.76l.64-.36c.15.27 3.75 6.73 2.64 13.24z"/>
  <ellipse class="cls-1" cx="175.78" cy="299.85" rx="17.49" ry="6.81"/>
  <ellipse class="cls-8" cx="175.93" cy="299.49" rx="11.87" ry="4.21"/>
  <path class="cls-3" d="M166.8 291.26l.67 6s1.47 4.17 8 4.17c0 0 8.17.15 8.84-4.62l.67-7-18.08-.3z"/>
  <path class="cls-1"
        d="M170.08 298.46c-.41 0-.49-.33-.49-.73v-7.35c0-.41.08-.74.49-.74s.49.33.49.74v7.35c0 .4-.08.73-.49.73zm3.43 1.47c-.41 0-1-.33-1-.74v-7.35c0-.41.57-.73 1-.73s1 .33 1 .73v7.35c-.02.41-.59.74-1 .74zm3.92 0c-.41 0-1-.33-1-.74v-7.35c0-.41.57-.73 1-.73s1 .33 1 .73v7.35c-.02.41-.59.74-1 .74zm3.43-1.47c-.41 0-.49-.33-.49-.73v-7.35c0-.41.08-.74.49-.74s.49.33.49.74v7.35c0 .4-.08.73-.49.73z"/>
  <path class="cls-17"
        d="M185.77 284.19c-1.75-1.31-1.82-3.53-4.08-3.62a5.5 5.5 0 0 0-1.46.18 3.13 3.13 0 0 0-.29-.28 5.46 5.46 0 0 0-6.6-.3 2.06 2.06 0 0 0-.34-.17 4.73 4.73 0 0 0-3.87-.31 4.66 4.66 0 0 0-2.73 4.4c-2.18 1.09-3.18 4.85-.48 6.59 5.91 3.79 12.72 2 19 .26 3.08-.85 3.13-5.04.85-6.75z"/>
  <path class="cls-19"
        d="M185.77 284.19c-1.75-1.31-1.82-3.53-4.08-3.62a4.74 4.74 0 0 0-.93.08 16.56 16.56 0 0 1-1 11.55c1.75-.36 3.49-.83 5.19-1.29 3.05-.82 3.1-5.01.82-6.72z"/>
  <circle class="cls-10" cx="170.01" cy="280.86" r="1.48"/>
  <circle class="cls-10" cx="172.97" cy="286.53" r="1.48"/>
  <circle class="cls-10" cx="175.29" cy="280.35" r="1.48"/>
  <circle class="cls-10" cx="180.45" cy="283.44" r="1.48"/>
  <circle class="cls-10" cx="184.76" cy="286.34" r="1.48"/>
  <circle class="cls-10" cx="170.01" cy="280.86" r="1.48"/>
  <circle class="cls-10" cx="172.97" cy="286.53" r="1.48"/>
  <circle class="cls-10" cx="175.29" cy="280.35" r="1.48"/>
  <circle class="cls-10" cx="180.45" cy="283.44" r="1.48"/>
  <circle class="cls-10" cx="184.76" cy="286.34" r="1.48"/>
  <rect class="cls-11" x="189.71" y="306.56" width="72.12" height="5.44" rx="1.69" ry="1.69"/>
  <path class="cls-11"
        d="M260.14 312.74h-68.73a2.43 2.43 0 0 1-2.43-2.43v-2.06a2.43 2.43 0 0 1 2.43-2.43h68.74a2.43 2.43 0 0 1 2.43 2.43v2.06a2.43 2.43 0 0 1-2.44 2.43zm-68.74-5.44a1 1 0 0 0-1 1v2.06a1 1 0 0 0 1 1h68.74a1 1 0 0 0 1-1v-2.06a1 1 0 0 0-1-1z"/>
  <rect class="cls-1" x="190.84" y="270.96" width="69.11" height="38.81" rx="9" ry="9"/>
  <path class="cls-11"
        d="M253.34 310.51h-55.89a7.36 7.36 0 0 1-7.35-7.35v-25.58a7.36 7.36 0 0 1 7.35-7.35h55.88a7.36 7.36 0 0 1 7.35 7.35v25.58a7.36 7.36 0 0 1-7.34 7.35zm-55.89-38.81a5.89 5.89 0 0 0-5.88 5.88v25.58a5.89 5.89 0 0 0 5.88 5.88h55.88a5.89 5.89 0 0 0 5.88-5.88v-25.58a5.89 5.89 0 0 0-5.88-5.88z"/>
  <ellipse class="cls-11" cx="273.4" cy="297.88" rx="9.84" ry="4.26"/>
  <path class="cls-8"
        d="M276.71 293.87h-1.33c-4.83 0-8.75 1.38-8.75 3.08s3.3 3.51 8.13 3.51a17.18 17.18 0 0 0 8.43-2.12 1.9 1.9 0 0 0 0-.42c.05-1.92-2.68-3.46-6.48-4.05z"/>
  <path class="cls-1" d="M273.23 299s-9.94.92-9.94-10.84h19.57c0 10.77-9.63 10.84-9.63 10.84z"/>
  <ellipse class="cls-3" cx="273.09" cy="288.06" rx="9.06" ry="5.09"/>
  <ellipse class="cls-11" cx="273.09" cy="288.06" rx="9.06" ry="5.09"/>
  <path class="cls-10"
        d="M273.09 293.15c4 0 7.31-1.43 8.55-3.42-1.24-2-4.59-3.42-8.55-3.42s-7.31 1.43-8.55 3.42c1.24 1.99 4.59 3.42 8.55 3.42z"/>
  <path class="cls-3"
        d="M273.09 293.89c-5.49 0-9.8-2.56-9.8-5.83s4.3-5.83 9.8-5.83 9.8 2.56 9.8 5.83-4.3 5.83-9.8 5.83zm0-10.19c-4.51 0-8.33 2-8.33 4.36s3.81 4.36 8.33 4.36 8.33-2 8.33-4.36-3.81-4.36-8.33-4.36z"/>
  <path class="cls-7"
        d="M270.6 256.27a7.36 7.36 0 0 0-3.26 8.07 6.63 6.63 0 0 0 1.9 3.28c1.26 1.13 4.73 1.6 3.45 3.75-.51.85-3.13 1.62-4 2.48a8.52 8.52 0 0 0-2.51 4.32c-.75 3.52 1.27 7.33 3.88 9.57s7.34-.68 5.14-4c-.73-1.09-2.1-2.22-2.52-3.45-.7-2 1.17-2.93 2.61-3.8 2.11-1.27 3.72-2.55 3.83-5.23a6.68 6.68 0 0 0-2.9-5.61c-.91-.66-2.48-.88-3.25-1.61-1.17-1.12 0-3.41.71-4.74 1-1.85-1.12-4.4-3.06-3.06z"/>
  <path class="cls-3"
        d="M207.14 231.31c-.41 0-.72-.1-.71-.5a9 9 0 0 1 7-8.9.78.78 0 0 1 .86.64.77.77 0 0 1-.57.9c-.23 0-5.56 1-5.78 7.39-.08.4-.41.47-.8.47z"/>
  <ellipse class="cls-7" cx="213.45" cy="176.76" rx="8.27" ry="4.23"/>
  <ellipse class="cls-7" cx="283.36" cy="184.47" rx="35.09" ry="6.9"/>
  <path class="cls-21"
        d="M283.46 110.07c0 10.8-8.76 23.46-19.57 23.45s-19.55-12.66-19.55-23.46a19.56 19.56 0 0 1 39.12 0z"/>
  <path class="cls-22"
        d="M279.9 98.82l.09 1.41a34 34 0 0 1-2.82 16.25c-2.26 5-6.22 8.42-10.6 11.52a82 82 0 0 1-7.36 4.7 14.33 14.33 0 0 0 4.68.81c10.8 0 19.56-12.65 19.57-23.45a19.46 19.46 0 0 0-3.56-11.24z"/>
  <rect class="cls-10" x="261.67" y="173.24" width="9.89" height="9.18" rx="2" ry="2"/>
  <rect class="cls-10" x="245.54" y="181.01" width="42.15" height="5.65" rx="2" ry="2"/>
  <rect class="cls-10" x="224.35" y="128.62" width="84.53" height="47.56" rx="2" ry="2"/>
  <path
    d="M303.75 152c-3.61 7.45-9.68 13.54-16.56 18a75.73 75.73 0 0 1-11.51 6.14h31.73a1.47 1.47 0 0 0 1.47-1.47v-39.33a55.16 55.16 0 0 1-5.13 16.66z"/>
  <ellipse class="cls-7" cx="232.76" cy="193.43" rx="10.61" ry="6.12"/>
  <path class="cls-3" d="M224.88 180.81l-11.37 15.24 19.26 1.83 10.57-15.65-18.46-1.42z"/>
  <path class="cls-11"
        d="M233.12 198.29h-.07l-19.8-1.8a.73.73 0 0 1-.53-1.16l10.83-15a.73.73 0 0 1 .66-.3l18.89 1.65a.74.74 0 0 1 .55 1.14L233.74 198a.73.73 0 0 1-.62.29zm-18.45-3.15l18.08 1.64 9-13.7-17.25-1.5z"/>
  <path class="cls-3" d="M218.27 183.01l-11.37 15.24 19.26 1.83 10.56-15.65-18.45-1.42z"/>
  <path class="cls-11"
        d="M226.51 200.49h-.07l-19.8-1.8a.73.73 0 0 1-.53-1.16l10.83-15a.72.72 0 0 1 .66-.3l18.89 1.65a.74.74 0 0 1 .55 1.14l-9.92 15.1a.73.73 0 0 1-.61.37zm-18.45-3.15l18.07 1.66 9-13.7-17.25-1.5z"/>
  <path class="cls-11"
        d="M224 196.66l-11.19-.9a.73.73 0 1 1 .12-1.46l11.19.9a.73.73 0 0 1-.06 1.47zm2.25-2.94h-.06l-11.19-.9a.74.74 0 0 1-.67-.79.73.73 0 0 1 .79-.67l11.19.9a.73.73 0 0 1-.06 1.47zm2.2-2.94h-.06l-11.19-.9a.73.73 0 1 1 .12-1.46l11.19.9a.73.73 0 0 1-.06 1.47zm2.21-2.94h-.06l-11.19-.9a.73.73 0 1 1 .12-1.46l11.19.9a.73.73 0 0 1-.06 1.47z"/>
  <path class="cls-23" d="M310.63 196.25L298 181.92a1.46 1.46 0 1 0-2.12 1.87l12.65 14.33 3 1.37z"/>
  <path class="cls-24" d="M308.51 198.12l3 1.37-.9-3.24a1.58 1.58 0 0 0-1.42.52c-.8.72-.68 1.35-.68 1.35z"/>
  <path class="cls-5" d="M215.74 174.9c0 2.37-3 4.29-6.74 4.29s-6.74-1.92-6.74-4.29v-15h13.47v14.92"/>
  <path class="cls-14" d="M212.15 159.95c.25 6.53.64 13.24-1.74 19.15 3-.41 5.32-2.13 5.32-4.19v-15z"/>
  <ellipse class="cls-15" cx="209" cy="160.11" rx="6.74" ry="4.29"/>
  <ellipse class="cls-14" cx="209" cy="160.11" rx="6.74" ry="4.29"/>
  <path class="cls-3"
        d="M204.38 175.47c-.41 0-.49-.33-.49-.74v-8.82c0-.41.08-.73.49-.73s.49.33.49.73v8.82c0 .41-.08.74-.49.74z"/>
  <ellipse class="cls-10" cx="210.99" cy="159.6" rx="2.67" ry="1.73"/>
  <path class="cls-8"
        d="M219.29 156.68a.74.74 0 0 1-.32.63l-4.26 3a.73.73 0 0 1-1-.2l-1.3-2a.73.73 0 0 1 .16-1l3.82-2.94a.73.73 0 0 1 1 .09l1.75 2a.74.74 0 0 1 .15.42zm-3.36 1.16l1.52-1.26-.74-.82-1.29 1.32z"/>
  <path class="cls-10"
        d="M284.83 106.83a4.44 4.44 0 0 0-3-7.58 4.43 4.43 0 0 0-4.31-7 4.44 4.44 0 0 0-6.61-5.25 4.44 4.44 0 0 0-8.12-1.22 4.44 4.44 0 0 0-6.47 2.59 4.44 4.44 0 0 0-4.23 4.43v.35a4.44 4.44 0 0 0-5.66 6.09h-.07a4.44 4.44 0 0 0-2.82 7.88 4.44 4.44 0 1 0 6.55 5.58 4.44 4.44 0 0 0 7-.42 4.44 4.44 0 0 0 7.32 0 4.44 4.44 0 0 0 7.32 0 4.44 4.44 0 0 0 7 .42 4.44 4.44 0 1 0 6.09-5.87z"/>
  <path class="cls-25"
        d="M265.63 125.47l-4.41-.36a.84.84 0 0 1-.57-.4.83.83 0 0 1-.1-.69l2.57-7.92a.74.74 0 0 1 .93-.48.73.73 0 0 1 .47.92l-2.27 7 3.44.14c.41 0 .72.53.7.94s-.39.85-.76.85zm-12.97-6.88a.73.73 0 0 1-.47-1.3c1.4-1.18 4.8-2.7 7.68 0a.74.74 0 0 1-1 1.08c-2.65-2.46-5.61 0-5.73.08a.73.73 0 0 1-.48.14zm16.17 0a.73.73 0 0 1-.47-1.3c1.4-1.18 4.8-2.7 7.68 0a.74.74 0 0 1-1 1.08c-2.65-2.46-5.61 0-5.73.08a.73.73 0 0 1-.48.14z"/>
  <path class="cls-3"
        d="M249.77 104.89c-.41 0-.72-.22-.71-.63a9.11 9.11 0 0 1 7-9 .76.76 0 0 1 .29 1.49c-.23 0-5.56 1.1-5.78 7.51-.08.44-.41.63-.8.63z"/>
  <ellipse class="cls-7" cx="287.34" cy="194.15" rx="3.34" ry=".8"/>
  <path class="cls-5"
        d="M286.7 194.07a6.93 6.93 0 0 1-2.52-.52 4.63 4.63 0 0 0-4.24.07.73.73 0 1 1-.62-1.31 6.26 6.26 0 0 1 5.38-.39 5.44 5.44 0 0 0 2 .18c2.08 0 4.44-.74 4.72-2.65a5.34 5.34 0 0 0-.51-2.52 5.41 5.41 0 0 1 .81-6.2 10.38 10.38 0 0 0 .89-1.46 4.66 4.66 0 0 0-3.57-6.56.73.73 0 1 1 .21-1.45 6.14 6.14 0 0 1 4.69 8.64 11.94 11.94 0 0 1-1 1.69 5.88 5.88 0 0 0-1.14 2.41 6 6 0 0 0 .51 2.66 6.88 6.88 0 0 1 .57 3.31c-.4 2.75-3.41 4.15-6.17 4.15z"/>
  <circle class="cls-5" cx="284.46" cy="89.37" r="10.25"/>
  <path class="cls-3"
        d="M283 93.66a.91.91 0 0 1 1-1 1 1 0 0 1 .73.27 1 1 0 0 1 .25.74 1.06 1.06 0 0 1-.26.75.94.94 0 0 1-.73.28 1 1 0 0 1-.74-.27 1 1 0 0 1-.25-.77zm1.59-2.14h-1.17l-.35-6.82H285z"/>
  <circle class="cls-5" cx="146.8" cy="153.02" r="10.25"/>
  <path class="cls-3"
        d="M145.36 157.31a.91.91 0 0 1 1-1 1 1 0 0 1 .73.27 1 1 0 0 1 .25.74 1.06 1.06 0 0 1-.26.75.94.94 0 0 1-.73.28 1 1 0 0 1-.74-.27 1 1 0 0 1-.25-.77zm1.59-2.14h-1.17l-.35-6.82h1.86z"/>
  <circle class="cls-5" cx="257.24" cy="228.95" r="10.25"/>
  <path class="cls-3"
        d="M255.8 233.24a.91.91 0 0 1 1-1 1 1 0 0 1 .73.27 1 1 0 0 1 .25.74 1.06 1.06 0 0 1-.26.75.94.94 0 0 1-.73.28 1 1 0 0 1-.74-.27 1 1 0 0 1-.25-.77zm1.59-2.14h-1.17l-.35-6.82h1.86z"/>
</svg>