<svg id="Layer_1" data-name="Layer 1" xmlns="http://www.w3.org/2000/svg" viewBox="0 0 320 320">
  <defs>
    <style>
      .cls-1,.cls-16,.cls-30,.cls-31,.cls-32,.cls-34,.cls-35,.cls-36,.cls-37,.cls-9{fill:none}.cls-1{clip-rule:evenodd}.cls-2{fill:#e5dfda}.cls-10,.cls-28,.cls-3,.cls-33,.cls-5{fill:#fff}.cls-3,.cls-8,.cls-9{stroke:#828282}.cls-16,.cls-28,.cls-3,.cls-30,.cls-31,.cls-32,.cls-33,.cls-34,.cls-35,.cls-36,.cls-5,.cls-8,.cls-9{stroke-linecap:round;stroke-linejoin:round}.cls-16,.cls-28,.cls-3,.cls-5,.cls-8,.cls-9{stroke-width:2px}.cls-4,.cls-8{fill:#ededed}.cls-16,.cls-32,.cls-33,.cls-5{stroke:#e5dcd6}.cls-6{fill:#8e8e8e}.cls-7{fill:#ff2e63}.cls-11{fill:#ff80aa}.cls-12{fill:#c49a6c}.cls-13{fill:#b7885a}.cls-14{fill:#222}.cls-15{fill:#7c5b3a}.cls-17{fill:#e5dcd6}.cls-18{fill:#828282}.cls-19{fill:#d6184f}.cls-20{fill:#ffdbc0}.cls-21{fill:#edc9b0}.cls-22{fill:#b28d74}.cls-23{fill:#41cc8d}.cls-24{fill:#1e965c}.cls-25{fill:#424242}.cls-26{fill:#686868}.cls-27{fill:#ce926a}.cls-28{stroke:#333}.cls-29{clip-path:url(#clip-path)}.cls-30,.cls-34{stroke:#b28d74}.cls-30{stroke-width:.7px}.cls-31,.cls-35,.cls-36{stroke:#fff}.cls-31{stroke-width:1.39px}.cls-32,.cls-33{stroke-width:1.83px}.cls-34,.cls-35{stroke-width:.78px}.cls-36,.cls-37{stroke-width:1.56px}.cls-37{stroke:#1e965c;stroke-miterlimit:10}
    </style>
    <clipPath id="clip-path">
      <path class="cls-1"
            d="M255.93 228.12l-.4-.28a.31.31 0 0 1-.13-.25v-1.44a.3.3 0 0 1 .13-.25l.4-.28a.08.08 0 0 1 .13.06v2.37a.08.08 0 0 1-.13.07z"/>
    </clipPath>
  </defs>
  <title>Talk</title>
  <ellipse class="cls-2" cx="276.08" cy="302.45" rx="38.16" ry="9.54"/>
  <ellipse class="cls-2" cx="194.39" cy="244.69" rx="119.71" ry="21.85"/>
  <path class="cls-3"
        d="M29.16 235.32a6.09 6.09 0 0 1-6.07-6.07V57.56a6.09 6.09 0 0 1 6.07-6.07h235.06a6.09 6.09 0 0 1 6.07 6.07v171.69a6.09 6.09 0 0 1-6.07 6.07"/>
  <rect class="cls-4" x="35.12" y="67" width="222.82" height="160" rx="5" ry="5"/>
  <path class="cls-5" d="M43.89 75.26h203.36v20.8H43.89z"/>
  <path class="cls-6"
        d="M54.39 89l-.22-.71a2.09 2.09 0 0 1-.74.63 2.34 2.34 0 0 1-1 .17 1.62 1.62 0 0 1-1.17-.41 1.52 1.52 0 0 1-.42-1.15 1.35 1.35 0 0 1 .59-1.19 3.37 3.37 0 0 1 1.78-.44h.88v-.27a1 1 0 0 0-.23-.73.93.93 0 0 0-.71-.24 2.44 2.44 0 0 0-.75.12 5.56 5.56 0 0 0-.69.27l-.35-.77a3.77 3.77 0 0 1 .91-.33 4.19 4.19 0 0 1 .93-.11 2.2 2.2 0 0 1 1.47.42 1.66 1.66 0 0 1 .5 1.33V89zm-1.61-.74a1.34 1.34 0 0 0 .95-.33 1.19 1.19 0 0 0 .36-.92v-.44h-.65a2.24 2.24 0 0 0-1.11.26.78.78 0 0 0-.35.7.68.68 0 0 0 .2.53.87.87 0 0 0 .6.16zm6.3.79a1.79 1.79 0 0 1-1.5-.7h-.06q.06.64.06.78v2.09h-1.09v-7.36h.88q0 .14.15.68h.06a1.7 1.7 0 0 1 1.52-.77 1.77 1.77 0 0 1 1.49.69 3.79 3.79 0 0 1 0 3.89 1.79 1.79 0 0 1-1.51.7zm-.26-4.4a1.12 1.12 0 0 0-.94.38 2 2 0 0 0-.3 1.21v.16a2.38 2.38 0 0 0 .29 1.35 1.1 1.1 0 0 0 1 .42 1 1 0 0 0 .87-.46 2.38 2.38 0 0 0 .3-1.31 2.3 2.3 0 0 0-.3-1.3 1 1 0 0 0-.93-.44zm5.95 4.4a1.79 1.79 0 0 1-1.5-.7h-.07q.07.64.06.78v2.09h-1.08v-7.36h.88q0 .14.15.68h.06a1.7 1.7 0 0 1 1.52-.77 1.77 1.77 0 0 1 1.49.69 3.79 3.79 0 0 1 0 3.89 1.79 1.79 0 0 1-1.51.7zm-.26-4.4a1.13 1.13 0 0 0-.94.38 2 2 0 0 0-.3 1.21v.16a2.39 2.39 0 0 0 .29 1.35 1.1 1.1 0 0 0 1 .42 1 1 0 0 0 .87-.46 2.38 2.38 0 0 0 .3-1.31 2.3 2.3 0 0 0-.3-1.3 1 1 0 0 0-.92-.44zm5.59 4.4a2.46 2.46 0 0 1-1.86-.69 2.63 2.63 0 0 1-.67-1.91 2.89 2.89 0 0 1 .62-2 2.15 2.15 0 0 1 1.71-.71 2.1 2.1 0 0 1 1.59.61 2.34 2.34 0 0 1 .59 1.69v.59h-3.4a1.67 1.67 0 0 0 .4 1.14 1.4 1.4 0 0 0 1.06.4 3.9 3.9 0 0 0 .84-.09 4.42 4.42 0 0 0 .84-.28v.88A3.35 3.35 0 0 1 71 89a4.93 4.93 0 0 1-.9.05zm-.2-4.46a1.09 1.09 0 0 0-.83.33 1.56 1.56 0 0 0-.37 1H71a1.41 1.41 0 0 0-.3-1 1 1 0 0 0-.8-.33zM76.31 89l-.22-.71a2.08 2.08 0 0 1-.74.63 2.34 2.34 0 0 1-1 .17 1.63 1.63 0 0 1-1.17-.41 1.52 1.52 0 0 1-.42-1.15 1.35 1.35 0 0 1 .59-1.19 3.37 3.37 0 0 1 1.78-.44h.88v-.27a1 1 0 0 0-.23-.73.93.93 0 0 0-.71-.24 2.44 2.44 0 0 0-.75.12 5.56 5.56 0 0 0-.69.27l-.35-.77a3.76 3.76 0 0 1 .91-.33 4.19 4.19 0 0 1 .93-.11 2.2 2.2 0 0 1 1.47.42 1.66 1.66 0 0 1 .5 1.33V89zm-1.61-.74a1.34 1.34 0 0 0 .95-.33A1.19 1.19 0 0 0 76 87v-.44h-.65a2.24 2.24 0 0 0-1.11.26.78.78 0 0 0-.35.7.68.68 0 0 0 .2.53.87.87 0 0 0 .61.17zm6.3-4.49a2.59 2.59 0 0 1 .54 0l-.11 1a2 2 0 0 0-.48-.06 1.39 1.39 0 0 0-1.05.42 1.53 1.53 0 0 0-.4 1.1V89h-1.09v-5.1h.85l.14.9h.06a2 2 0 0 1 .66-.72 1.57 1.57 0 0 1 .88-.31zm.38 4.61a.71.71 0 0 1 .18-.52.67.67 0 0 1 .51-.18.67.67 0 0 1 .51.19.71.71 0 0 1 .18.51.73.73 0 0 1-.18.52.77.77 0 0 1-1 0 .74.74 0 0 1-.2-.52zm2.5-5.87a.6.6 0 0 1 .16-.45.62.62 0 0 1 .45-.16.6.6 0 0 1 .44.16.6.6 0 0 1 .16.45.59.59 0 0 1-.16.44.6.6 0 0 1-.44.16.61.61 0 0 1-.45-.16.59.59 0 0 1-.16-.44zM85 89h-1.06v-5.1H85zm5.87 0h-1.09v-3.17a1.36 1.36 0 0 0-.24-.88.92.92 0 0 0-.75-.29 1.2 1.2 0 0 0-1 .41 2.24 2.24 0 0 0-.32 1.36V89h-1.09v-5.1h.85l.15.67h.06a1.5 1.5 0 0 1 .65-.56 2.18 2.18 0 0 1 .94-.2 1.64 1.64 0 0 1 1.83 1.87zM95 82.22L92.51 89h-1L94 82.22z"/>
  <path class="cls-7"
        d="M98.87 89l-.22-.71a2.09 2.09 0 0 1-.74.63 2.34 2.34 0 0 1-1 .17 1.63 1.63 0 0 1-1.17-.41 1.52 1.52 0 0 1-.42-1.15 1.35 1.35 0 0 1 .59-1.19 3.37 3.37 0 0 1 1.78-.44h.88v-.27a1 1 0 0 0-.23-.73.93.93 0 0 0-.71-.24 2.44 2.44 0 0 0-.75.12 5.56 5.56 0 0 0-.69.27l-.35-.77a3.78 3.78 0 0 1 .91-.33 4.2 4.2 0 0 1 .93-.11 2.2 2.2 0 0 1 1.47.42 1.66 1.66 0 0 1 .5 1.33V89zm-1.61-.74a1.34 1.34 0 0 0 .95-.33 1.19 1.19 0 0 0 .36-.92v-.44h-.65a2.24 2.24 0 0 0-1.11.26.78.78 0 0 0-.35.7.68.68 0 0 0 .2.53.87.87 0 0 0 .6.16zm7.89.74l-.66-2.38q-.12-.38-.43-1.76-.27 1.24-.42 1.77l-.73 2.37h-1.2l-1.43-5.1h1.11l.65 2.51q.22.93.31 1.59c0-.22.08-.48.14-.77s.12-.51.16-.65l.77-2.68h1.19l.75 2.68q.07.23.17.69a5.35 5.35 0 0 1 .12.72 13.93 13.93 0 0 1 .32-1.59l.66-2.51h1.09L106.36 89zm5.56.05a2.46 2.46 0 0 1-1.86-.69 2.63 2.63 0 0 1-.67-1.91 2.89 2.89 0 0 1 .62-2 2.15 2.15 0 0 1 1.71-.71 2.1 2.1 0 0 1 1.59.61 2.34 2.34 0 0 1 .58 1.69v.59h-3.4a1.67 1.67 0 0 0 .4 1.14 1.4 1.4 0 0 0 1.07.4 3.92 3.92 0 0 0 .84-.09 4.45 4.45 0 0 0 .84-.28v.88a3.37 3.37 0 0 1-.8.27 5 5 0 0 1-.92.1zm-.2-4.46a1.08 1.08 0 0 0-.83.33 1.55 1.55 0 0 0-.37 1h2.31a1.42 1.42 0 0 0-.3-1 1 1 0 0 0-.8-.33zm6.65 2.92a1.33 1.33 0 0 1-.54 1.14 2.6 2.6 0 0 1-1.56.4 3.68 3.68 0 0 1-1.64-.31v-.94a4 4 0 0 0 1.67.41q1 0 1-.6a.48.48 0 0 0-.11-.32 1.3 1.3 0 0 0-.36-.27 6.24 6.24 0 0 0-.7-.31 3.28 3.28 0 0 1-1.19-.68 1.27 1.27 0 0 1-.31-.88 1.16 1.16 0 0 1 .53-1 2.5 2.5 0 0 1 1.44-.36 4.06 4.06 0 0 1 1.7.36l-.35.82a3.77 3.77 0 0 0-1.39-.34q-.86 0-.86.49a.49.49 0 0 0 .22.41 4.88 4.88 0 0 0 1 .46 4.41 4.41 0 0 1 .92.45 1.33 1.33 0 0 1 .42.47 1.36 1.36 0 0 1 .11.6zm5.5-1.11a2.79 2.79 0 0 1-.64 1.95 2.3 2.3 0 0 1-1.78.7 2.45 2.45 0 0 1-1.26-.32 2.13 2.13 0 0 1-.84-.93 3.14 3.14 0 0 1-.29-1.4 2.76 2.76 0 0 1 .64-1.94 2.31 2.31 0 0 1 1.79-.7 2.24 2.24 0 0 1 1.75.71 2.75 2.75 0 0 1 .63 1.93zm-3.71 0q0 1.76 1.3 1.77t1.29-1.77q0-1.75-1.3-1.75a1.11 1.11 0 0 0-1 .45 2.29 2.29 0 0 0-.24 1.3zM128 89h-1.09v-3.18a1.43 1.43 0 0 0-.22-.87.82.82 0 0 0-.69-.29 1.05 1.05 0 0 0-.92.41 2.38 2.38 0 0 0-.29 1.36V89h-1.08v-5.1h.85l.15.67h.06a1.41 1.41 0 0 1 .62-.56 2 2 0 0 1 .89-.2 1.55 1.55 0 0 1 1.56.8h.07a1.56 1.56 0 0 1 .64-.59 2 2 0 0 1 .94-.21 1.71 1.71 0 0 1 1.33.46 2 2 0 0 1 .42 1.41V89h-1.08v-3.18a1.42 1.42 0 0 0-.22-.87.83.83 0 0 0-.69-.29 1.07 1.07 0 0 0-.92.39 2 2 0 0 0-.29 1.21zm6.78.05a2.46 2.46 0 0 1-1.86-.69 2.63 2.63 0 0 1-.67-1.91 2.89 2.89 0 0 1 .62-2 2.15 2.15 0 0 1 1.71-.71 2.1 2.1 0 0 1 1.59.61 2.34 2.34 0 0 1 .58 1.69v.59h-3.4a1.67 1.67 0 0 0 .4 1.14 1.4 1.4 0 0 0 1.07.4 3.92 3.92 0 0 0 .84-.09 4.45 4.45 0 0 0 .84-.28v.88a3.37 3.37 0 0 1-.8.27 5 5 0 0 1-.92.1zm-.2-4.46a1.08 1.08 0 0 0-.83.33 1.55 1.55 0 0 0-.37 1h2.31a1.42 1.42 0 0 0-.3-1 1 1 0 0 0-.81-.33zm2.78 2.3V86h2.37v.92zm5.35 2.16a2.23 2.23 0 0 1-1.76-.68 3.42 3.42 0 0 1 0-3.91 2.33 2.33 0 0 1 1.82-.69 3.4 3.4 0 0 1 1.45.3l-.33.87a3.28 3.28 0 0 0-1.13-.27q-1.32 0-1.32 1.76a2.11 2.11 0 0 0 .33 1.29 1.14 1.14 0 0 0 1 .43 2.77 2.77 0 0 0 1.37-.36v.94a2.16 2.16 0 0 1-.62.24 3.74 3.74 0 0 1-.81.08zm5.62-.05l-.22-.71a2.08 2.08 0 0 1-.74.63 2.34 2.34 0 0 1-1 .17 1.62 1.62 0 0 1-1.17-.41 1.52 1.52 0 0 1-.42-1.15 1.35 1.35 0 0 1 .58-1.19 3.38 3.38 0 0 1 1.78-.44h.88v-.27a1 1 0 0 0-.23-.73.93.93 0 0 0-.71-.24 2.44 2.44 0 0 0-.75.12 5.56 5.56 0 0 0-.69.27l-.35-.77a3.77 3.77 0 0 1 .91-.33 4.18 4.18 0 0 1 .93-.11 2.2 2.2 0 0 1 1.47.42 1.66 1.66 0 0 1 .5 1.33V89zm-1.61-.74a1.34 1.34 0 0 0 .95-.33A1.19 1.19 0 0 0 148 87v-.44h-.65a2.24 2.24 0 0 0-1.11.26.78.78 0 0 0-.35.7.68.68 0 0 0 .2.53.87.87 0 0 0 .62.17zm5.6-.08a2.64 2.64 0 0 0 .79-.12v.82a2.17 2.17 0 0 1-.46.13 3.16 3.16 0 0 1-.59.05q-1.54 0-1.54-1.62v-2.76h-.7v-.48l.75-.4.37-1.08h.67v1.13h1.45v.82h-1.45v2.73a.76.76 0 0 0 .2.58.71.71 0 0 0 .51.2z"/>
  <rect class="cls-8" x="9.61" y="235.77" width="274.17" height="16.18" rx="7.78" ry="7.78"/>
  <circle class="cls-7" cx="146.02" cy="58.96" r="2.91"/>
  <path class="cls-9" d="M123.1 236.44v5.39h46.52v-5.39"/>
  <path class="cls-10" d="M44.15 163.45h98.79v50.87H44.15z"/>
  <path class="cls-11" d="M101.05 199.82h-19s-11.55 0-14.77 14.24h46.24a20.14 20.14 0 0 0-12.47-14.24z"/>
  <path class="cls-12"
        d="M96.76 163.66c-4.49.26-9 .41-13.47.26a19.55 19.55 0 0 0-12.47 18.21c0 10.8 8.75 23.46 19.55 23.46s19.56-12.65 19.57-23.45a19.55 19.55 0 0 0-13.18-18.48z"/>
  <path class="cls-13"
        d="M106.38 170.9l.09 1.41a34 34 0 0 1-2.82 16.25c-2.26 5-6.22 8.42-10.6 11.52a82 82 0 0 1-7.36 4.7 14.33 14.33 0 0 0 4.68.81c10.8 0 19.56-12.65 19.57-23.45a19.46 19.46 0 0 0-3.56-11.24z"/>
  <path class="cls-14"
        d="M111.31 178.9a4.44 4.44 0 0 0-3-7.58 4.43 4.43 0 0 0-4.31-7 4.49 4.49 0 0 0 .25-1.16c-8.5.6-17 1.21-25.51.5a4.39 4.39 0 0 0-.19 1.22v.35a4.44 4.44 0 0 0-5.66 6.09h-.07A4.44 4.44 0 0 0 70 179.2a4.44 4.44 0 1 0 6.55 5.58 4.44 4.44 0 0 0 7-.42 4.44 4.44 0 0 0 7.32 0 4.44 4.44 0 0 0 7.32 0 4.44 4.44 0 0 0 7 .42 4.44 4.44 0 1 0 6.09-5.87z"/>
  <path class="cls-15"
        d="M92.11 197.54l-4.41-.36a.84.84 0 0 1-.57-.4.83.83 0 0 1-.1-.69l2.57-7.92a.74.74 0 0 1 .93-.48.73.73 0 0 1 .47.92l-2.27 7 3.44.14c.41 0 .72.53.7.94s-.37.85-.76.85zm-12.97-6.88a.73.73 0 0 1-.47-1.3c1.4-1.18 4.8-2.7 7.68 0a.74.74 0 0 1-1 1.08c-2.65-2.46-5.61 0-5.73.08a.73.73 0 0 1-.48.14zm16.17 0a.73.73 0 0 1-.47-1.3c1.4-1.18 4.8-2.7 7.68 0a.74.74 0 0 1-1 1.08c-2.65-2.46-5.61 0-5.73.08a.73.73 0 0 1-.48.14z"/>
  <path class="cls-10"
        d="M76.25 177c-.41 0-.72-.22-.71-.63a9.11 9.11 0 0 1 7-9 .76.76 0 0 1 .29 1.49c-.23 0-5.56 1.1-5.78 7.51-.05.4-.41.63-.8.63z"/>
  <path class="cls-15"
        d="M90.57 202.49a5.86 5.86 0 0 1-3.8-1.45.67.67 0 0 1 .94-1c.11.1 2.55 2.39 6-.06a.67.67 0 1 1 .78 1.09 6.59 6.59 0 0 1-3.92 1.42z"/>
  <path class="cls-16" d="M44.15 163.45h98.79v50.87H44.15z"/>
  <path class="cls-10" d="M154.88 101.27h98.79v50.87h-98.79z"/>
  <circle class="cls-17" cx="221.13" cy="110.86" r="6.9"/>
  <circle class="cls-17" cx="230.91" cy="112.51" r="6.9"/>
  <circle class="cls-17" cx="240.88" cy="108.87" r="6.9"/>
  <path class="cls-17"
        d="M231.06 111.41a6.9 6.9 0 0 0 6.9-6.9 6.82 6.82 0 0 0-.85-3.25H225a6.82 6.82 0 0 0-.85 3.25 6.9 6.9 0 0 0 6.91 6.9z"/>
  <path class="cls-14" d="M183.27 118.67h28.45v23.71h-28.45z"/>
  <path class="cls-4"
        d="M177 130.93l-9.18-11.79L154 137.59c0 .18-.05.36-.08.54a55.9 55.9 0 0 1 .91 13.81c3 .35 6.13-.81 9.14-.23 6.61.52 13.24.92 19.92 1h.07v-17.2z"/>
  <path class="cls-7"
        d="M192 152.77c8.5-.1 17-.33 25.51-.58v-3.93l-9.25-10.07h-21.81l-8.93 14.35c2.11.08 4.21.15 6.33.18q4.06.06 8.15.05z"/>
  <path class="cls-11" d="M197.27 152.68l.06-10.39H196l-.06 10.42z"/>
  <path class="cls-18"
        d="M199.32 149.3h-.1a.67.67 0 0 1-.46-.3l-2.55-4a.67.67 0 0 1 .22-.93l1.84-1.12a.67.67 0 0 1 .9.18l2.55 3.58a.67.67 0 0 1-.12.91l-1.84 1.53a.67.67 0 0 1-.44.15zm-.95-3.1l1.1 1.43.78-.65-1.16-1.22z"/>
  <path class="cls-7" d="M223 152c-3.85-12-16.24-14.25-16.24-14.25l4.32 14.58z"/>
  <path class="cls-19"
        d="M218.85 152.16L223 152c-3.85-12-16.24-14.25-16.24-14.25l.31 1.06a30.88 30.88 0 0 1 11.78 13.35z"/>
  <path class="cls-7"
        d="M180.63 152.64l2.47-4.6 5.06-10.18s-1.11.22-5.06.69A19.23 19.23 0 0 0 168.24 152q6.18.46 12.39.64z"/>
  <path class="cls-20"
        d="M214.06 122.58c0 9.86-8 21.41-17.86 21.41s-17.85-11.56-17.85-21.42a17.86 17.86 0 1 1 35.71 0z"/>
  <path class="cls-21"
        d="M201.29 105.45c2.56 3.35 1.52 7.5 3.2 11.42 2.35 5.46 3.68 12.75 1.37 18.2-2 4.81-3 6.38-7.5 8.71 8.84-1.52 15.69-12.09 15.69-21.22a17.86 17.86 0 0 0-12.76-17.11z"/>
  <path class="cls-22"
        d="M196.31 141.35a5.86 5.86 0 0 1-3.8-1.45.67.67 0 0 1 .94-1c.11.1 2.55 2.39 6-.06a.67.67 0 1 1 .78 1.09 6.59 6.59 0 0 1-3.92 1.42z"/>
  <path class="cls-14"
        d="M174.08 144.9h10.52l.4-25.54 3 5.41h19.46l2.48-5.85.2 26h11.36s4.12-32.4-11-43.65h-25.6c-16.29 11.24-10.82 43.63-10.82 43.63z"/>
  <path class="cls-22"
        d="M193 130.47a.67.67 0 0 1-.47-.2c-2.32-2.32-5.3 0-5.43.05a.67.67 0 0 1-.83-1.06c1.39-1.09 4.67-2.47 7.2.06a.67.67 0 0 1-.47 1.15zm13.4 0a.67.67 0 0 1-.47-.2c-2.32-2.32-5.3 0-5.43.05a.67.67 0 0 1-.83-1.06c1.39-1.09 4.67-2.47 7.2.06a.67.67 0 0 1-.47 1.15zm-10.26 6.28a4 4 0 0 1-1.37-.24.67.67 0 0 1-.39-.81l.78-2.67a.67.67 0 1 1 1.29.38l-.58 2a1.93 1.93 0 0 0 1-.12.67.67 0 0 1 .55 1.23 3.1 3.1 0 0 1-1.28.23z"/>
  <path class="cls-10"
        d="M178.15 127.22c-.35 0-.65 0-.67-.38 0-.14-.72-14.32 10.94-21.43a.69.69 0 0 1 .92.29.71.71 0 0 1-.22 1c-11 6.68-10.3 20-10.3 20.1 0 .37-.26.48-.63.48z"/>
  <path class="cls-23" d="M235.3 129.21l-7.74 8.73h15.57l-7.83-8.73z"/>
  <path class="cls-23" d="M234.96 133.71l-8.5 9.6h17.11l-8.61-9.6z"/>
  <path class="cls-23" d="M234.88 138.82l-9.34 10.52 18.77.01-9.43-10.53z"/>
  <path class="cls-23" d="M243.19 151.64l-8.19-9.19-8.48 9.55q8.33-.27 16.67-.36z"/>
  <path class="cls-16" d="M154.88 101.27h98.79v50.87h-98.79z"/>
  <path class="cls-10" d="M44.94 101.58h98.79v50.87H44.94z"/>
  <path class="cls-23"
        d="M104.31 152.26c3.79 0 7.59-.23 11.39-.43-2.12-16.28-14.88-19.49-14.88-19.49H88.23c-13 4.66-15.16 15-15.36 20.29 10.48-.07 20.96-.3 31.44-.37z"/>
  <path class="cls-24"
        d="M104.53 131a.5.5 0 0 0-.33-.24c-.21 0-.76-.14-9.68 6l-8.77-7.11a.44.44 0 0 0-.71.4l1.43 9.89a.44.44 0 0 0 .43.37h.14l7.45-2.53 7.32 2.53h.14a.44.44 0 0 0 .42-.3c1.74-5.5 2.46-8.53 2.16-9.01z"/>
  <path class="cls-24" d="M95.3 152.35v-15.23h-1.6v15.26z"/>
  <circle class="cls-10" cx="96.73" cy="142.26" r="1.12"/>
  <circle class="cls-10" cx="96.73" cy="148.59" r="1.12"/>
  <path class="cls-20"
        d="M101.6 101.27H90.11A16.75 16.75 0 0 0 79.1 117c0 9.25 7.5 20.1 16.76 20.1s16.76-10.84 16.76-20.1a16.75 16.75 0 0 0-11.02-15.73z"/>
  <path class="cls-21"
        d="M112.12 113.61l-.65-1.44a.44.44 0 0 0-.39-.26l-27.46-.16a.37.37 0 0 0-.24.07l-4.62 3.08a.44.44 0 0 0-.15.56l.82 1.6a.43.43 0 0 0 .28.22.44.44 0 0 0 .35-.07l2.53-2.42.68 1.27a.36.36 0 0 0 .09.2l.95 1.3a.49.49 0 0 0 .34.21.48.48 0 0 0 .34-.22l2.25-3 2.43 3.06a.42.42 0 0 0 .33.15.44.44 0 0 0 .34-.15l2.45-2.61 3 2.41a.44.44 0 0 0 .57 0l2.67-2.48c3.2 3.08 3.21 3.07 3.54 2.93a.44.44 0 0 0 .21-.19c.21-.27 1.83-2 3-3.17 2.62 3.06 3 3.4 3.3 3.4h.1a.46.46 0 0 0 .32-.26c.13-.24 1.4-2 2.54-3.58a.44.44 0 0 0 .08-.45z"/>
  <path class="cls-21"
        d="M101.63 101.27h-2c4.54 5 8.46 12 7.95 18.32-.49 6 .22 10.68-8.41 17 7.67-2.17 13.44-11.51 13.44-19.63a16.75 16.75 0 0 0-10.98-15.69z"/>
  <path class="cls-25"
        d="M81.35 101.27a29.4 29.4 0 0 0-5 12.93.45.45 0 0 0 0 .2l1.18 3.22a.46.46 0 0 0 .38.3.47.47 0 0 0 .44-.2l2-2.9 2.2 2.79c.09.1.22.38.35.38.14 0 .27-.28.35-.39l2.75-3.33 1.81 3.06a.44.44 0 0 0 .36.2.48.48 0 0 0 .39-.17l2.61-2.92 2.24 3.38a.41.41 0 0 0 .35.19.45.45 0 0 0 .34-.13l3.42-3.55 2.65 3.46a.46.46 0 0 0 .72 0l3.41-3.89 2.7 3.73a.46.46 0 0 0 .37.19.48.48 0 0 0 .38-.19l2.61-3.5 2.56 3.5a.47.47 0 0 0 .82-.15l.85-3.13a.47.47 0 0 0 0-.17 29.69 29.69 0 0 0-5.14-12.93z"/>
  <path class="cls-10"
        d="M85.5 101.27a11 11 0 0 0-3.23 5.8.87.87 0 0 0 .66 1h.19a.87.87 0 0 0 .85-.68 9.08 9.08 0 0 1 4.46-6.19z"/>
  <path class="cls-22"
        d="M95.64 133.39a5.86 5.86 0 0 1-3.8-1.45.67.67 0 0 1 .94-1c.11.1 2.55 2.39 6-.06a.67.67 0 1 1 .78 1.09 6.59 6.59 0 0 1-3.92 1.42zm3.77-13.23a.67.67 0 0 1 .47.2c2.32 2.32 5.3 0 5.43-.05a.67.67 0 0 1 .83 1.06c-1.39 1.09-4.67 2.47-7.2-.06a.67.67 0 0 1 .47-1.15zM86 120.15a.67.67 0 0 1 .47.2c2.32 2.32 5.3 0 5.43-.05a.67.67 0 0 1 .83 1.06c-1.39 1.09-4.67 2.47-7.2-.06a.67.67 0 0 1 .47-1.15zm9.47 8.64a4 4 0 0 1-1.37-.24.67.67 0 0 1-.39-.81l.78-2.67a.67.67 0 1 1 1.29.38l-.58 2a1.93 1.93 0 0 0 1-.12.67.67 0 0 1 .55 1.23 3.1 3.1 0 0 1-1.28.23z"/>
  <path class="cls-16" d="M44.94 101.58h98.79v50.87H44.94z"/>
  <path class="cls-10" d="M153.8 163.19h98.79v50.87H153.8z"/>
  <path class="cls-18"
        d="M222.09 213.77c-2.64-5.19-7.05-10.92-13-14.28L192 200.83s-7.58 2-12.68 13.44c14.54-.22 28.79-.08 42.77-.5z"/>
  <path class="cls-26"
        d="M207.12 208.9a2.86 2.86 0 0 1 .13.74c3.25-1 6.51-2.32 8.84-4.64-.55-.57-1.12-1.13-1.72-1.67-1.29.55-2.65 1-4.06 1.58-1.57.65-3 1.46-4.5 2.07a3.91 3.91 0 0 1 1.31 1.92zm-9.02.1a3.11 3.11 0 0 1 .49-1.06 16.56 16.56 0 0 1-11-4.56 23.86 23.86 0 0 0-4.3 4.35 4.21 4.21 0 0 1 .44.3c3.94 3.16 9.33 3.45 14.44 3a4.11 4.11 0 0 1-.07-2.03z"/>
  <path class="cls-20"
        d="M192.86 201.37c0 1.35-.5 3.22-.2 4.54s.83 1.43 2.1 2a23 23 0 0 0 7.91 1.73 9.92 9.92 0 0 0 7.5-3 20.69 20.69 0 0 0 1-4.14c0-.2.07-.41.1-.61a28 28 0 0 0-2.87-1.89l-15.56 1.19c.01.05.02.12.02.18z"/>
  <path class="cls-21"
        d="M192.67 203.54c4.94 3.16 12.36 2.7 18 .29l.24-.14c.08-.48.15-.91.22-1.24s.07-.41.1-.61a28 28 0 0 0-2.83-1.84l-15.56 1.19v.19a18.79 18.79 0 0 1-.17 2.16z"/>
  <path class="cls-18"
        d="M209.42 196.38l-2.08.39a5.88 5.88 0 0 1-.11 4.88c-1.39 3.05-4.23 6.08-7.8 6a8.3 8.3 0 0 1-7.86-7.26 2.3 2.3 0 0 1 0-.69l-3-1.39s-4.8 2.47-4 5.73c0 0 .94 4.16 9.5 7.09a15 15 0 0 0 12.16-1.46s8.45-4.11 8.68-7.94c.03 0-.2-2.98-5.49-5.35z"/>
  <path class="cls-20"
        d="M216.89 183.91c0 9.86-8 21.41-17.86 21.41s-17.85-11.56-17.85-21.42a17.86 17.86 0 1 1 35.71 0z"/>
  <path class="cls-21"
        d="M204.8 167c9.85 12.31 8.71 21.42 4.53 31a25.57 25.57 0 0 1-3 5.14c6.24-3.8 10.59-12 10.6-19.26A17.86 17.86 0 0 0 204.8 167z"/>
  <path class="cls-27"
        d="M202.06 164.5q-2 .08-4 .09c-4.87.67-17.62 3.72-17.62 17.38 0 0 2.93 4.84 9.35 2 0 0 10.7-12.39 18.58-7.66.29.17 2.7 8.45 2.7 8.45l6.64-.45s1.07-18.38-15.65-19.81z"/>
  <path class="cls-14" d="M217.31 176.28c3.88 0 7.06 2.37 7.06 5.27v5c0 2.9-3.18 5.27-7.06 5.27z"/>
  <path class="cls-14"
        d="M217.31 192.49a.67.67 0 0 1-.67-.67v-15.54a.67.67 0 0 1 .67-.67c4.26 0 7.73 2.67 7.73 5.94v5c-.04 3.28-3.47 5.94-7.73 5.94zM218 177v14.15c3.21-.24 5.72-2.2 5.72-4.57v-5c-.02-2.4-2.53-4.36-5.72-4.58zm-36.23-.72c-3.88 0-7.06 2.37-7.06 5.27v5c0 2.9 3.18 5.27 7.06 5.27z"/>
  <path class="cls-14"
        d="M181.77 192.49c-4.26 0-7.73-2.67-7.73-5.94v-5c0-3.28 3.47-5.94 7.73-5.94a.67.67 0 0 1 .67.67v15.54a.67.67 0 0 1-.67.67zM181.1 177c-3.21.24-5.72 2.2-5.72 4.57v5c0 2.37 2.51 4.33 5.72 4.57z"/>
  <path class="cls-14"
        d="M188.32 164.07a20 20 0 0 0-10.39 17.3 1 1 0 1 0 2 0c0-7.7 5.13-14.29 12.35-16.94q-1.97-.12-3.96-.36zm21.88-.07q-2.12.16-4.23.3c7.41 2.56 12.73 9.23 12.73 17.07a1 1 0 0 0 2 0A20 20 0 0 0 210.2 164z"/>
  <path class="cls-22"
        d="M199.28 193.9a1.45 1.45 0 0 1-1.18-.49c-.75-.91 0-2.5.25-3a.67.67 0 0 1 1.19.63 2.72 2.72 0 0 0-.4 1.49h.12a2.46 2.46 0 0 0 .71-.13.67.67 0 1 1 .39 1.28 3.72 3.72 0 0 1-1.08.22zm-.14-2.63zm-7.42-2.78a.67.67 0 0 1-.57-1 3.71 3.71 0 0 1 2.57-1.74 2.93 2.93 0 0 1 2.46 1.31.67.67 0 0 1-1 .84 1.71 1.71 0 0 0-1.34-.81 2.44 2.44 0 0 0-1.52 1.11.67.67 0 0 1-.6.29zm10.74 0a.67.67 0 0 1-.57-1 3.71 3.71 0 0 1 2.57-1.74 2.93 2.93 0 0 1 2.46 1.31.67.67 0 0 1-1 .84 1.71 1.71 0 0 0-1.34-.81 2.44 2.44 0 0 0-1.52 1.11.67.67 0 0 1-.6.29zm-3.06 10.82a13.2 13.2 0 0 1-7-2.2.67.67 0 0 1 .79-1.09c.26.19 6.43 4.54 12-.33a.67.67 0 1 1 .88 1 9.91 9.91 0 0 1-6.67 2.62z"/>
  <path class="cls-27" d="M204.77 174.2s-7.32 5.12-7.56 9.51c0 0-3.66-3.41-1.71-10.24z"/>
  <path class="cls-27" d="M209.33 176a45 45 0 0 0-6.61 6.39s-.89-5.63 1.91-9.32z"/>
  <path class="cls-14"
        d="M217.58 212.67a11.52 11.52 0 0 1 3.46-2.85l.82-.45c1.65-.9 3.36-1.84 4.19-3.61a4.8 4.8 0 0 0-.08-4.16 8.58 8.58 0 0 0-3.52-3.15 8.75 8.75 0 0 1-2.87-2.32 6.75 6.75 0 0 1-.81-4.34.67.67 0 0 0-.63-.71.66.66 0 0 0-.71.62 8.26 8.26 0 0 0 1 5.18 9.87 9.87 0 0 0 3.28 2.71 7.5 7.5 0 0 1 3 2.62 3.43 3.43 0 0 1 .06 3c-.65 1.38-2.16 2.21-3.62 3l-.84.47a12.59 12.59 0 0 0-4 3.42c-.13.18-.22.37-.34.56z"/>
  <circle class="cls-14" cx="195.71" cy="210.64" r=".85"/>
  <circle class="cls-14" cx="203.22" cy="210.64" r=".85"/>
  <path class="cls-10"
        d="M183.05 178.46a.7.7 0 0 1-.64-.75 8.46 8.46 0 0 1 6.47-8.17.66.66 0 1 1 .25 1.3 7.06 7.06 0 0 0-5.37 6.94.71.71 0 0 1-.71.68z"/>
  <path class="cls-16" d="M153.8 163.19h98.79v50.87H153.8z"/>
  <path class="cls-28"
        d="M279.67 70.59h-55.62a5.94 5.94 0 0 0-5.9 6.07v27.14a5.8 5.8 0 0 0 5.9 5.9h2l-1.54 10.94 14.69-10.94h40.47a5.8 5.8 0 0 0 5.9-5.9V76.66a5.94 5.94 0 0 0-5.9-6.07zM11 134h46.2a5.94 5.94 0 0 1 5.9 6.07v23.73a5.8 5.8 0 0 1-5.9 5.9h-2l1.54 10.94-14.69-10.94H11a5.8 5.8 0 0 1-5.9-5.9V140a5.94 5.94 0 0 1 5.9-6z"/>
  <rect class="cls-4" x="231.41" y="169.16" width="72.81" height="135.63" rx="8" ry="8"/>
  <path class="cls-10" d="M240.14 185.5h52.97v88.44h-52.97z"/>
  <rect class="cls-9" x="230.82" y="169.16" width="72.81" height="135.63" rx="8" ry="8"/>
  <path class="cls-23" d="M240.9 223.69a13.48 13.48 0 0 1 8.77-14.09h7.24s8.8 2.94 8.55 14.68v5.38h-24.61z"/>
  <path class="cls-24"
        d="M259.69 208.77a.3.3 0 0 0-.2-.15c-.13 0-.45-.09-5.79 3.58l-5.25-4.2a.26.26 0 0 0-.42.24l.86 5.92a.26.26 0 0 0 .26.22h.08l4.46-1.51 4.38 1.51h.21a.26.26 0 0 0 .13-.15c1.02-3.34 1.46-5.15 1.28-5.46z"/>
  <path class="cls-20" d="M264.52 200.41c0 5.54-4.49 12-10 12s-10-6.49-10-12a10 10 0 0 1 20 0z"/>
  <path class="cls-21"
        d="M264.22 198.39l-.39-.86a.26.26 0 0 0-.24-.15l-16.43-.1a.22.22 0 0 0-.15 0l-2.76 1.84a.26.26 0 0 0-.09.34l.49 1a.26.26 0 0 0 .17.13.26.26 0 0 0 .21 0l1.52-1.44.41.76a.22.22 0 0 0 .05.12l.57.7c0 .06.13 0 .21 0h.21l1.34-1.73 1.45 1.85a.26.26 0 0 0 .2.1.26.26 0 0 0 .2-.08l1.47-1.61 1.81 1.45a.26.26 0 0 0 .34 0l1.6-1.48c1.92 1.84 1.92 1.84 2.11 1.75a.26.26 0 0 0 .13-.11c.13-.16 1.09-1.17 1.8-1.89 1.57 1.83 1.82 2 2 2h.06a.27.27 0 0 0 .19-.16c.08-.14.84-1.21 1.52-2.14a.26.26 0 0 0 0-.29z"/>
  <path class="cls-21"
        d="M256.35 190.56c2.88 3 5.48 7.46 5.16 11.41-.29 3.6.13 6.39-5 10.19 4.59-1.3 8-6.88 8-11.74a10 10 0 0 0-8.16-9.86z"/>
  <path class="cls-30"
        d="M252.38 208.94a4.33 4.33 0 0 0 4.05 0m-2.25-7.83l-1.52 5.61h1.96m-6.33-4.49a3.33 3.33 0 0 0 3.83 0m3.99 0a3.33 3.33 0 0 0 3.83 0"/>
  <path class="cls-14"
        d="M254.23 186.81c-10.13 0-11.39 11.81-11.4 11.93a.27.27 0 0 0 0 .12l.71 1.93a.28.28 0 0 0 .23.18.28.28 0 0 0 .26-.12l1.2-1.74 1.31 1.53a.27.27 0 0 0 .21.08.27.27 0 0 0 .21-.08l1.64-1.93 1.08 1.87a.28.28 0 0 0 .45 0l1.56-1.74 1.34 2a.28.28 0 0 0 .21.12.28.28 0 0 0 .2-.09l2-2.13 1.59 2.06a.28.28 0 0 0 .43 0l2-2.33 1.62 2.23a.28.28 0 0 0 .22.12.29.29 0 0 0 .23-.11l1.56-2.1 1.53 2.09a.28.28 0 0 0 .28.11.28.28 0 0 0 .22-.2l.51-1.87a.28.28 0 0 0 0-.1c.11-.02-1.27-11.83-11.4-11.83z"/>
  <path class="cls-31" d="M251.1 190a5.88 5.88 0 0 0-4.22 4.56"/>
  <path class="cls-32" d="M240.23 185.6h26.42v44.52h-26.42"/>
  <circle class="cls-33" cx="267.86" cy="289.37" r="6.15"/>
  <path class="cls-11"
        d="M292.73 230c-.77-5.54-1.59-13.25-7.94-16.72h-10.51s-6.34 0-8.16 16.46c8.49-1.1 18.11.26 26.61.26z"/>
  <path class="cls-12" d="M289.27 205.32c0 5.47-4.44 11.88-9.91 11.88s-9.9-6.41-9.9-11.88a9.91 9.91 0 1 1 19.81 0z"/>
  <path class="cls-13"
        d="M287.46 199.62v.72a17.21 17.21 0 0 1-1.43 8.23 15 15 0 0 1-5.37 5.84 41.53 41.53 0 0 1-3.73 2.38 7.25 7.25 0 0 0 2.37.41c5.47 0 9.91-6.41 9.91-11.88a9.85 9.85 0 0 0-1.75-5.7z"/>
  <path class="cls-14"
        d="M275.53 194.34a2.25 2.25 0 0 0-2.14 2.25v.18a2.25 2.25 0 0 0-2.86 3.08 2.25 2.25 0 0 0-1.43 4 2.25 2.25 0 1 0 3.32 2.83 2.25 2.25 0 0 0 3.54-.21 2.25 2.25 0 0 0 3.71 0 2.25 2.25 0 0 0 3.71 0 2.25 2.25 0 0 0 3.54.21 2.25 2.25 0 1 0 3.08-3 2.25 2.25 0 0 0-1.5-3.84 2.24 2.24 0 0 0-2.19-3.55 2.25 2.25 0 0 0-3.36-2.66 2.24 2.24 0 0 0-.34-.73h-3.68s-.07.07-.09.12a2.3 2.3 0 0 0-.28-.12h-1.7a2.25 2.25 0 0 0-1.33 1.44z"/>
  <path class="cls-15"
        d="M280.24 213.72l-2.23-.2a.44.44 0 0 1-.29-.21.43.43 0 0 1 0-.35l1.3-4a.38.38 0 0 1 .47-.25.37.37 0 0 1 .24.47l-1.15 3.53 1.74.07c.21 0 .36.29.36.49s-.24.45-.44.45zm-6.57-3.52a.37.37 0 0 1-.24-.66 2.91 2.91 0 0 1 3.89 0 .37.37 0 0 1-.51.55 2.2 2.2 0 0 0-2.9 0 .37.37 0 0 1-.24.11zm8.19 0a.37.37 0 0 1-.24-.66 2.91 2.91 0 0 1 3.89 0 .37.37 0 0 1-.51.55 2.2 2.2 0 0 0-2.9 0 .37.37 0 0 1-.24.11z"/>
  <path class="cls-10"
        d="M272.2 203.25c-.21 0-.37-.1-.36-.31a4.61 4.61 0 0 1 3.52-4.53.39.39 0 0 1 .15.76 3.76 3.76 0 0 0-2.93 3.8c-.01.19-.18.28-.38.28z"/>
  <path class="cls-15"
        d="M279.68 215.82a5.58 5.58 0 0 1-2-.36h.07a.59.59 0 0 1 0-1.18.8.8 0 0 1 .31.07 4.37 4.37 0 0 0 3.06 0 .59.59 0 0 1 .39 1.11 5.69 5.69 0 0 1-1.83.36zm-1.86-.36zm0 0z"/>
  <path class="cls-32" d="M266.67 185.6h26.42v44.53h-26.42z"/>
  <circle class="cls-14" cx="277.89" cy="194.69" r="2.26"/>
  <circle class="cls-14" cx="280.52" cy="193.69" r="2.26"/>
  <path class="cls-27"
        d="M289.76 249.61a.29.29 0 0 0-.32.08l-2.05 2.41a.29.29 0 0 0 0 .4l.91.91a.29.29 0 0 0 .21.09h.1a.29.29 0 0 0 .19-.25c0-.34.08-.76.12-1.13l.15.31a.29.29 0 0 0 .56-.08c.1-.68.32-2.29.32-2.45a.29.29 0 0 0-.19-.29zm-15.7 1.27a.29.29 0 0 0-.16-.16l-2.45-.95a.29.29 0 0 0-.4.3l.24 2.76a.3.3 0 0 0 .41.25l.3-.12.39.79a.32.32 0 0 0 .26.19.31.31 0 0 0 .26-.2l1.14-2.63a.29.29 0 0 0 .01-.23z"/>
  <path class="cls-18"
        d="M293 260.6a18 18 0 0 0-6.59-6.42l-10.06.74s-8.57 2.31-9.94 18.48a6.41 6.41 0 0 1 .25.92 5.89 5.89 0 0 1 2.38-.47c7.65 0 15.31.21 23 .19 1.39-3.46.96-10.23.96-13.44z"/>
  <path class="cls-26"
        d="M285.24 259.6a1.68 1.68 0 0 1 .07.44 12.42 12.42 0 0 0 5.21-2.74c-.32-.34-.66-.67-1-1-.76.33-1.56.59-2.4.93s-1.76.86-2.65 1.22a2.3 2.3 0 0 1 .77 1.15zm-5.31.05a1.83 1.83 0 0 1 .29-.62 9.76 9.76 0 0 1-6.5-2.69 14.06 14.06 0 0 0-2.54 2.56l.26.18c2.32 1.86 4.38 1.49 7.39 1.25-.12-.4 1.01-.33 1.1-.68z"/>
  <path class="cls-20"
        d="M276.84 255.16a14 14 0 0 0-.12 2.67c.17.71.49.84 1.24 1.16a13.56 13.56 0 0 0 4.66 1 5.85 5.85 0 0 0 4.42-1.77 12.2 12.2 0 0 0 .58-2.44c0-.12 0-.24.06-.36a16.49 16.49 0 0 0-1.69-1.09l-9.17.7s.02.09.02.13z"/>
  <path class="cls-21"
        d="M276.73 256.44c5.19 3.36 7.26 2.17 10.6.75 0 0 .12-.64.17-.67 0-.28.09-.54.13-.73s0-.24.06-.36a16.49 16.49 0 0 0-1.69-1.09l-9.17.7v.11a11.07 11.07 0 0 1-.1 1.29z"/>
  <path class="cls-18"
        d="M286.6 252.22l-1.23.23a3.46 3.46 0 0 1-.07 2.88c-.82 1.8-2.49 3.58-4.59 3.53a4.89 4.89 0 0 1-4.63-4.28 1.36 1.36 0 0 1 0-.4l-1.75-.82s-2.83 1.45-2.36 3.38c0 0 .55 2.45 5.6 4.18a8.81 8.81 0 0 0 7.17-.86s5-2.42 5.11-4.68c.01-.01-.13-1.77-3.25-3.16z"/>
  <path class="cls-20" d="M291 244.86c0 5.81-4.72 12.62-10.53 12.62S270 250.67 270 244.86a10.52 10.52 0 0 1 21 0z"/>
  <path class="cls-21"
        d="M283.88 234.9c5.81 7.25 5.13 12.63 2.67 18.29a15.07 15.07 0 0 1-1.79 3 14.08 14.08 0 0 0 6.24-11.33 10.53 10.53 0 0 0-7.12-9.96z"/>
  <path class="cls-34" d="M276.17 247.17s1.09-1.74 2.32-.22m4.01.22s1.09-1.74 2.32-.22m-7.05 6.38s3 2.18 5.67-.16"/>
  <path class="cls-27"
        d="M269.25 243.76a.18.18 0 0 0 0 .12 3.74 3.74 0 0 0 3.27 2.38 9.37 9.37 0 0 0 2.61-1.07.29.29 0 0 0 .1-.08 22 22 0 0 1 2.68-2.52 5 5 0 0 0 1.29 2.41.29.29 0 0 0 .49-.2c.08-1.47 1.69-3.15 2.82-4.16a9.85 9.85 0 0 0-.15 3.43.29.29 0 0 0 .52.13 22.11 22.11 0 0 1 3.07-3.08c.44 1.28 1.63 5.23 1.64 5.27a.3.3 0 0 0 .3.21l3.92-.26a.28.28 0 0 0 .27-.27c0-.23.22-6.54-3.12-10.07a11.81 11.81 0 0 0-8.28-3.45s-11.15.56-11.43 11.21z"/>
  <circle class="cls-14" cx="278.52" cy="260.62" r=".75"/>
  <circle class="cls-14" cx="282.95" cy="260.62" r=".75"/>
  <path class="cls-35" d="M278 268.27c0-.19-.77-5.67.47-7.52l.09-.13m4.52.22a12.25 12.25 0 0 1 1.4 7"/>
  <path class="cls-36" d="M276.79 236.6a4.89 4.89 0 0 0-3.74 4.63"/>
  <path class="cls-14"
        d="M291.17 249.82a5.44 5.44 0 0 0 2.11-.43q.13-4.4.2-8.81a5.4 5.4 0 0 0-2.31-.51.27.27 0 0 0-.26.29v9.16a.27.27 0 0 0 .26.3zM270 240.08a5.42 5.42 0 0 0-3.27 1v.07c0 2.41-.19 4.81-.43 7.2a5.22 5.22 0 0 0 3.69 1.43c.16 0 .41-.13.41-.29v-9.16c0-.12-.25-.25-.4-.25z"/>
  <path class="cls-35" d="M292.38 241.64v3.22"/>
  <rect class="cls-18" x="268.83" y="239.65" width="2.61" height="10.61" rx="1.11" ry="1.11"/>
  <rect class="cls-18" x="290.07" y="239.65" width="2.61" height="10.61" rx="1.11" ry="1.11"/>
  <path class="cls-14"
        d="M267.76 244.12a.75.75 0 0 1-.75-.75c0-7 5.15-10.7 10-11.81 5.81-1.34 13.3.59 16.39 6.9a.75.75 0 1 1-1.35.66c-2.75-5.6-9.48-7.31-14.71-6.1-4.25 1-8.79 4.22-8.79 10.35a.75.75 0 0 1-.79.75z"/>
  <path class="cls-14"
        d="M289 236.27a2 2 0 0 1-1-.27 13 13 0 0 0-7.13-2 13.71 13.71 0 0 0-7.31 2 2 2 0 0 1-2.13-3.27 17.46 17.46 0 0 1 9.44-2.66 16.9 16.9 0 0 1 9.26 2.66 2 2 0 0 1-1.07 3.59z"/>
  <path class="cls-34" d="M280.22 247.5l-.73 3.81h1.75"/>
  <path class="cls-32" d="M266.67 230.12h26.42v44.53h-26.42z"/>
  <path class="cls-37" d="M253.68 212.8v16.81"/>
  <path class="cls-32" d="M240.23 230.12V185.6"/>
  <path class="cls-14" d="M245.96 245.4h14.83v12.36h-14.83z"/>
  <path class="cls-4"
        d="M240.39 273.44v.16a3.48 3.48 0 0 0 2.42-1.63c1.29-1.83 4.32-.08 3 1.77h.5v-19.56l-3.59-2.38-2.32-3c0 2.39-.12 4.76-.26 7.14.14 4.92.16 9.85.2 14.78a10.71 10.71 0 0 1 .05 2.72z"/>
  <path class="cls-7"
        d="M259 255.58h-11.38l-5 8.06-.55 10.16c3.44 0 6.88-.1 10.33-.1a5.11 5.11 0 0 1 2 .38c3.15-.12 6.29-.19 9.4-.08v-13.17z"/>
  <path class="cls-11" d="M253.24 274.13l-.7-.19.05-16.23.7.84-.05 15.58z"/>
  <path class="cls-18"
        d="M254.33 260.81h-.05a.35.35 0 0 1-.24-.16l-1.33-2.08a.35.35 0 0 1 .11-.49l1-.59a.35.35 0 0 1 .47.1l1.33 1.86a.35.35 0 0 1-.06.47l-1 .8a.35.35 0 0 1-.23.09zm-.49-1.62l.57.74.4-.34-.6-.64z"/>
  <path class="cls-7"
        d="M266.93 263.77c-1.61-7.08-8.72-8.4-8.72-8.4l2.29 7.72c1.86 5.89.29 9.57-.43 10.84 2 0 4 0 6 .18a18 18 0 0 0 1.22-7.18c-.15-1.05-.29-2.1-.36-3.16z"/>
  <path class="cls-19"
        d="M266.93 263.77c-1.61-7.08-8.72-8.4-8.72-8.4l.16.55a16.71 16.71 0 0 1 7.73 13.1 16.38 16.38 0 0 1 .75 2.67 21.71 21.71 0 0 0 .43-4.75c-.14-1.05-.28-2.11-.35-3.17z"/>
  <path class="cls-7"
        d="M240.39 273.44v.37l9.38-.09a9.66 9.66 0 0 0-.56-3.33s-8.44.43-4.79-6.92l1.48-2.76 2.64-5.3s-.58.11-2.64.36a10.12 10.12 0 0 0-5.68 3.25c.08 3.9.1 7.8.13 11.71a10.71 10.71 0 0 1 .04 2.71z"/>
  <path class="cls-20" d="M262 247.44c0 5.14-4.17 11.16-9.31 11.16s-9.3-6-9.3-11.16a9.31 9.31 0 0 1 18.61 0z"/>
  <path class="cls-21"
        d="M255.35 238.52c1.33 1.74.79 3.91 1.67 6 1.22 2.85 1.92 6.64.71 9.49-1.06 2.51-1.59 3.32-3.91 4.54 4.61-.79 8.18-6.3 8.18-11.06a9.31 9.31 0 0 0-6.65-8.97z"/>
  <path class="cls-22"
        d="M252.76 256.67a3.05 3.05 0 0 1-2-.76.35.35 0 0 1 .49-.5 2.36 2.36 0 0 0 3.11 0 .35.35 0 1 1 .41.57 3.43 3.43 0 0 1-2.01.69z"/>
  <path class="cls-14"
        d="M259.84 245.54l-1.29 3H248.4l-1.54-2.82-.21 13.31h-5.48s-4.19-24.73 12.6-24.72c15.27 0 12.12 24.73 12.12 24.73h-5.94z"/>
  <path class="cls-22"
        d="M251 251a.35.35 0 0 1-.25-.1c-1.21-1.21-2.76 0-2.83 0a.35.35 0 0 1-.43-.55 2.82 2.82 0 0 1 3.75 0 .35.35 0 0 1-.25.6zm7 0a.35.35 0 0 1-.25-.1c-1.21-1.21-2.76 0-2.83 0a.35.35 0 0 1-.43-.55 2.82 2.82 0 0 1 3.75 0 .35.35 0 0 1-.25.6zm-5.33 3.27a2.1 2.1 0 0 1-.72-.13.35.35 0 0 1-.21-.42l.41-1.39a.35.35 0 0 1 .67.2l-.3 1a1 1 0 0 0 .52-.06.35.35 0 0 1 .28.64 1.61 1.61 0 0 1-.65.16z"/>
  <path class="cls-10"
        d="M243.29 249.56a.35.35 0 0 1-.35-.33c0-.07-.38-7.53 5.7-11.23a.35.35 0 0 1 .36.6c-5.71 3.48-5.37 10.52-5.37 10.59a.35.35 0 0 1-.33.37z"/>
  <path class="cls-32" d="M240.23 230.12h26.42v44.53h-26.42z"/>
  <circle class="cls-18" cx="275.64" cy="177.22" r="1.63"/>
  <path class="cls-9" d="M262.64 177.27h8.33"/>
  <path class="cls-18" d="M303.26 185.59h3.37v11.45h-3.37z"/>
</svg>