<?xml version="1.0" encoding="iso-8859-1"?>
<!-- Generator: Adobe Illustrator 19.0.0, SVG Export Plug-In . SVG Version: 6.00 Build 0)  -->
<svg version="1.1" id="Capa_1" xmlns="http://www.w3.org/2000/svg"  x="0px" y="0px"
	 viewBox="0 0 512.768 512.768" style="enable-background:new 0 0 512.768 512.768;" xml:space="preserve">
<path style="fill:#455A64;" d="M384.668,351.776V128.768c0.34-17.29-13.368-31.598-30.656-32H186.268
	c-11.717,0.029-21.192,9.551-21.163,21.269c0.012,4.783,1.64,9.422,4.619,13.163l190.08,237.568L384.668,351.776z"/>
<path style="fill:#607D8B;" d="M505.084,131.168c-4.721-2.923-10.619-3.189-15.584-0.704l-128,64
	c-5.413,2.713-8.832,8.249-8.832,14.304v96c0,6.055,3.419,11.591,8.832,14.304l128,64c2.228,1.106,4.68,1.687,7.168,1.696
	c8.837,0,16-7.163,16-16v-224C512.665,139.228,509.796,134.083,505.084,131.168z"/>
<path style="fill:#455A64;" d="M80.668,96.768H31.324c-17.288,0.402-30.996,14.71-30.656,32v256
	c-0.34,17.29,13.368,31.598,30.656,32h305.344L80.668,96.768z"/>
<path d="M410.652,509.28c-6.894,5.453-16.895,4.324-22.4-2.528l-384-480C-1.686,20.209-1.195,10.09,5.348,4.151
	s16.663-5.447,22.601,1.096c0.441,0.486,0.852,1,1.231,1.536l384,480c5.515,6.905,4.388,16.972-2.517,22.487
	C410.659,509.274,410.656,509.277,410.652,509.28z"/>
<path d="M323.868,416.768H31.388c-17.306-0.385-31.042-14.693-30.72-32v-256c-0.004-5.372,1.386-10.653,4.032-15.328
	c4.918-10.255,15.315-16.75,26.688-16.672h62.08c8.837,0,16,7.163,16,16s-7.163,16-16,16h-62.08l1.28,256h291.2
	c8.837,0,16,7.163,16,16S332.704,416.768,323.868,416.768z"/>
<path d="M368.668,370.368c-8.837,0-16-7.163-16-16v-225.6h-177.28c-8.837,0-16-7.163-16-16s7.163-16,16-16h178.56
	c17.306,0.385,31.042,14.693,30.72,32v225.6C384.668,363.205,377.504,370.368,368.668,370.368z"/>
<path d="M496.668,384.768c-2.488-0.009-4.94-0.59-7.168-1.696l-128-64c-7.869-4.02-10.99-13.658-6.97-21.527
	c3.976-7.783,13.462-10.936,21.306-7.081l104.832,52.416V170.656l-104.832,52.416c-7.931,3.898-17.519,0.628-21.417-7.302
	c-3.855-7.844-0.702-17.33,7.081-21.306l128-64c7.9-3.959,17.514-0.764,21.473,7.137c1.115,2.225,1.695,4.679,1.695,7.167v224
	c-0.003,5.541-2.872,10.686-7.584,13.6C502.556,383.935,499.642,384.766,496.668,384.768z"/>
<path d="M400.668,512.768c-4.869,0.003-9.474-2.211-12.512-6.016l-384-480C-1.358,19.842-0.226,9.77,6.684,4.256
	S23.666-0.126,29.18,6.784l384,480c5.514,6.905,4.386,16.973-2.519,22.487C407.823,511.537,404.299,512.77,400.668,512.768z"/>
<g>
</g>
<g>
</g>
<g>
</g>
<g>
</g>
<g>
</g>
<g>
</g>
<g>
</g>
<g>
</g>
<g>
</g>
<g>
</g>
<g>
</g>
<g>
</g>
<g>
</g>
<g>
</g>
<g>
</g>
</svg>
