<svg id="Layer_1" data-name="Layer 1" xmlns="http://www.w3.org/2000/svg" viewBox="0 0 600 450">
  <defs>
    <style>
      .cls-1,.cls-2,.cls-31{fill:#41cc8d}.cls-1,.cls-4,.cls-6{clip-rule:evenodd}.cls-13,.cls-16,.cls-21,.cls-22,.cls-29,.cls-3,.cls-39,.cls-46,.cls-47,.cls-48,.cls-49,.cls-53,.cls-56,.cls-6{fill:none}.cls-34,.cls-4,.cls-5{fill:#ff2e63}.cls-7{fill:#b78555}.cls-8{fill:#e5dfda}.cls-12,.cls-54,.cls-9{fill:#222}.cls-10,.cls-50{fill:#d6184f}.cls-11{fill:#2ea069}.cls-12,.cls-40{opacity:.15}.cls-13{stroke:#8b5e3c}.cls-13,.cls-16,.cls-21,.cls-22,.cls-29,.cls-47,.cls-48,.cls-49,.cls-50,.cls-51,.cls-52,.cls-53,.cls-54{stroke-linecap:round;stroke-linejoin:round}.cls-13,.cls-16,.cls-29,.cls-39,.cls-49,.cls-50,.cls-51,.cls-52,.cls-53,.cls-54{stroke-width:2px}.cls-14{fill:#828282}.cls-15{fill:#bcbcbc}.cls-16,.cls-48{stroke:#fff}.cls-17{fill:#ffeea9}.cls-18{fill:#ffdd4d}.cls-19{fill:#ffdbc0}.cls-20{fill:#edc9b0}.cls-21{stroke:#ffdbc0;stroke-width:13px}.cls-22,.cls-29,.cls-47{stroke:#b28d74}.cls-22{stroke-width:1.05px}.cls-23{fill:#e5dcd6}.cls-24{fill:#fff}.cls-25{fill:#cec3be}.cls-26{fill:#218450}.cls-27,.cls-30{fill:#ededed}.cls-27{stroke:#2ea069}.cls-27,.cls-39,.cls-46,.cls-56{stroke-miterlimit:10}.cls-28{fill:#6eedb0}.cls-31,.cls-34{fill-rule:evenodd}.cls-32{clip-path:url(#clip-path)}.cls-33{clip-path:url(#clip-path-2)}.cls-35{clip-path:url(#clip-path-3)}.cls-36{clip-path:url(#clip-path-4)}.cls-37{clip-path:url(#clip-path-5)}.cls-38{clip-path:url(#clip-path-6)}.cls-39{stroke:#bcbcbc}.cls-41{opacity:.25}.cls-42{opacity:.65}.cls-43,.cls-52{fill:#e5ab83}.cls-44,.cls-51{fill:#ce926a}.cls-45{fill:#666}.cls-46{stroke:#ff80aa}.cls-46,.cls-47{stroke-width:2.4px}.cls-48{stroke-width:4px}.cls-49{stroke:#6eedb0}.cls-50{stroke:#d6184f}.cls-51,.cls-53{stroke:#ce926a}.cls-52{stroke:#e5ab83}.cls-54{stroke:#222}.cls-55{fill:#109ccc}.cls-56{stroke:#ededed}.cls-57{fill:#b5815e}.cls-58{fill:#754c29}.cls-59{fill:#603a1e}.cls-60{clip-path:url(#clip-path-7)}.cls-61{fill:#686868}.cls-62{clip-path:url(#clip-path-8)}.cls-63{clip-path:url(#clip-path-9)}.cls-64{fill:#1e965c}.cls-65{fill:#424242}.cls-66{clip-path:url(#clip-path-10)}.cls-67{fill:#ff80aa}
    </style>
    <clipPath id="clip-path">
      <path class="cls-1"
            d="M338.8 103.62a.59.59 0 0 1-.57.56H332a.56.56 0 0 1-.54-.56v-4.1A.52.52 0 0 1 332 99h6.27a.54.54 0 0 1 .57.5z"/>
    </clipPath>
    <clipPath id="clip-path-2">
      <path class="cls-2" d="M298.95 90.8h374.29v603.02H298.95z"/>
    </clipPath>
    <clipPath id="clip-path-3">
      <path class="cls-4"
            d="M337.14 100.06h-6.27a.55.55 0 0 0-.57.52v4.1a.57.57 0 0 0 .57.54h1.83l2.63 1.58v-1.58h1.81a.55.55 0 0 0 .54-.54v-4.1a.53.53 0 0 0-.54-.52z"/>
    </clipPath>
    <clipPath id="clip-path-4">
      <path class="cls-5" d="M298.95 90.8h374.29v603.02H298.95z"/>
    </clipPath>
    <clipPath id="clip-path-5">
      <path class="cls-6"
            d="M340.37 104l-.79-.56a.61.61 0 0 1-.26-.49v-2.86a.6.6 0 0 1 .25-.49l.8-.56a.16.16 0 0 1 .25.11v4.73a.17.17 0 0 1-.25.12z"/>
    </clipPath>
    <clipPath id="clip-path-6">
      <path class="cls-3" d="M298.95 90.8h374.29v603.02H298.95z"/>
    </clipPath>
    <clipPath id="clip-path-7">
      <path class="cls-3" d="M460.84 297.11h17.65v10.52h-17.65z"/>
    </clipPath>
    <clipPath id="clip-path-8">
      <path class="cls-3" d="M438.97 297.04h20.53v10.52h-20.53z"/>
    </clipPath>
    <clipPath id="clip-path-9">
      <path class="cls-3" d="M438.83 284.86h20.67v10.52h-20.67z"/>
    </clipPath>
    <clipPath id="clip-path-10">
      <path class="cls-3" d="M460.85 285h20.79v10.52h-20.79z"/>
    </clipPath>
  </defs>
  <title>Users-globe</title>
  <path class="cls-7"
        d="M549.49 191.74s8.25 8 10.75 4.7c2.69-3.58-.89-8.85-6.72-10.53zm-49.87-24.3s-.89-7.2-4.54-5.21l1.33 5.32z"/>
  <ellipse class="cls-8" cx="545.3" cy="258.87" rx="35.17" ry="10.87"/>
  <path class="cls-9"
        d="M576.86 242.38l-3.21 16.26a5.54 5.54 0 0 1-6.49 4.35 5.54 5.54 0 0 1-4.35-6.49l.91-4.61 2.3-11.64a5.54 5.54 0 0 1 6.49-4.35 5.54 5.54 0 0 1 4.35 6.49m-69.06 17.19l-15.79-5a5.53 5.53 0 0 1-3.58-6.94 5.55 5.55 0 0 1 7-3.58l4.48 1.43 11.26 3.51a5.53 5.53 0 0 1 3.58 6.94 5.55 5.55 0 0 1-7 3.58"/>
  <path class="cls-8"
        d="M506.84 242.55l-1.92 4.92s3.66 4.13 8.14 3.66l2.24-4.48zm53.94 1.37l4.85 2.1s4.26-3.51 3.95-8l-4.4-2.4z"/>
  <path class="cls-5"
        d="M552.62 194a5.36 5.36 0 0 1-3.64-1.42c-21.15-19.45-20-39.89-19.89-40.75a5.38 5.38 0 0 1 10.73.73c0 .75-.64 16.4 16.44 32.11a5.38 5.38 0 0 1-3.64 9.33z"/>
  <path class="cls-10"
        d="M548.19 177.35q-.4-1.44-.81-2.87c-8-11.69-7.59-21.35-7.56-21.94a5.38 5.38 0 0 0-10.73-.73c-.06.86-1.26 21.3 19.89 40.75a5.37 5.37 0 0 0 1.2.83 85 85 0 0 1-1.99-16.04z"/>
  <path class="cls-2"
        d="M542.25 198.05a1.21 1.21 0 0 0-.92-.63l-16.62-2.06a1.21 1.21 0 0 0-.53.05c-.69.23-2.11.71-18.89 47.48a1.21 1.21 0 0 0 .39 1.36c1.56 1.22 6.24 4.66 9.52 4.66a3.28 3.28 0 0 0 1.71-.43 1.21 1.21 0 0 0 .45-.49l24.88-48.82a1.21 1.21 0 0 0 .01-1.12z"/>
  <path class="cls-11"
        d="M542.25 198.05a1.21 1.21 0 0 0-.92-.63L529.54 196c-.76 2.5-1.5 5-2.19 7.54-3.68 13.39-6 27.08-9.36 40.52-.15.8-.32 1.59-.5 2.39.06.32.12.64.2 1l24.56-48.19a1.21 1.21 0 0 0 0-1.21z"/>
  <path class="cls-2"
        d="M567.7 233.66c-.2-.12-22.22-15.31-23.22-40.78a1.21 1.21 0 0 0-1.18-1.16l-18.69-.52a1.15 1.15 0 0 0-.94.41 1.21 1.21 0 0 0-.28 1c.06.35 8.16 38.39 36.91 53.55a1.21 1.21 0 0 0 1.42-.21c.67-.67 6.58-6.72 6.58-11.24a1.21 1.21 0 0 0-.6-1.05z"/>
  <path class="cls-11"
        d="M525.3 191.52c6.58 2.53 13 5.86 19.84 7.55a47.89 47.89 0 0 1-.65-6.19 1.21 1.21 0 0 0-1.18-1.16l-18.69-.52a1.06 1.06 0 0 0-.25 0 6.71 6.71 0 0 1 .93.32zm42.1 46.69a8.65 8.65 0 0 0 .91-3.51 1.21 1.21 0 0 0-.61-1c-.14-.08-12.09-9.33-18.32-21.67h-.2c3.53 8.21 11.45 19.44 18.22 26.18z"/>
  <path
    d="M496.74 172.11a1.34 1.34 0 0 1-1.27-.89l-7.29-20.49a1.34 1.34 0 0 1 2.53-.9l7.29 20.48a1.35 1.35 0 0 1-1.27 1.79z"/>
  <path class="cls-7"
        d="M506.1 169.2s-5.54-1.27-7.27-3.58c0 0-10.56-8.43-10.45-1.27a10.37 10.37 0 0 0 2.48 7.25c3.74 4.09 11.32 5.82 11.32 5.82z"/>
  <path class="cls-5"
        d="M540.57 140.23a1.21 1.21 0 0 0-1.7-.16 1.19 1.19 0 0 0-.41 1.05l-12.67 1.31v-.12a1.21 1.21 0 0 0-2.37.49c3.53 17.13-5.58 44.78-5.67 45.06a1.21 1.21 0 0 0 .22 1.16c6 7.1 26 7.18 26.88 7.18a1.21 1.21 0 0 0 1.13-.78c12.55-32.98-5.23-54.97-5.41-55.19z"/>
  <path class="cls-10"
        d="M542.62 143.23c-2.53.47-5.08.83-7.59 1.13-.75.09-1.51.16-2.26.23-1 1.51-1.9 3-2.89 4.51a45.64 45.64 0 0 0 15.79 0 50 50 0 0 0-3.05-5.87zm-.02 21.23a12.32 12.32 0 0 1-3.44 1.53c-2.15.57-4.74.35-6.3-1.35a13.65 13.65 0 0 0-3.27-3.12 11.82 11.82 0 0 1-2.48 4.25 5.62 5.62 0 0 1-4.41 1.74 158.27 158.27 0 0 1-5 20.36 1.21 1.21 0 0 0 .22 1.16c3.06 3.62 9.77 5.41 15.72 6.3 6.06-8.84 8.77-19.77 8.96-30.87z"/>
  <path class="cls-5"
        d="M537 150.89h-.13a5.88 5.88 0 0 0-6 5.72c-.06 2.93-1.44 11.77-6.76 14.72-4.56 2.52-12.16.73-22-5.15a6 6 0 0 0-1.45-.61l-4.9 10.88.13.1c8.86 5.3 16.71 8 23.48 8a21.42 21.42 0 0 0 10.54-2.55c12.48-6.9 13-24.36 13-25.1a5.83 5.83 0 0 0-5.91-6.01zm6.11-15.89s15.29 12.6-14.78 15.29l-.34-5.54z"/>
  <ellipse class="cls-7" cx="525.84" cy="124.27" rx="18.43" ry="22.84" transform="rotate(-25.07 525.773 124.261)"/>
  <path class="cls-12"
        d="M544 120.37a52.68 52.68 0 0 1-3.77 9.88 79.45 79.45 0 0 1-7.32 15.64 14.82 14.82 0 0 0 2.59-.93c8.2-3.83 11.59-14.3 8.5-24.59z"/>
  <path class="cls-7" d="M511.75 135.4s.31 11.41 5.55 5.86"/>
  <path class="cls-13" d="M514.88 135.76a4.72 4.72 0 0 0 6.42-1"/>
  <path class="cls-9"
        d="M542.77 118.94a3.56 3.56 0 0 0-1.11.19 3.68 3.68 0 0 0-1.88-1.3c-1.77-.59-3.17.31-4.77.95a49.87 49.87 0 0 1-7 1.84c-3.37.8-8.34 2.51-8.7 6.59-.33 3.74 2.81 5 5.7 4.38a9 9 0 0 0 6.73 1.61 4.93 4.93 0 0 0 2.48-1 7.32 7.32 0 0 0 5.36-.29 5.22 5.22 0 0 0 2.4-2.22 7.15 7.15 0 0 0 6.69-1.74c4.33-4.33-1.45-9.09-5.9-9.01z"/>
  <path class="cls-14" d="M543.76 116s-7.9 10.37-36.28 14.56c0 0-9.13-22 8.64-28.38S543.76 116 543.76 116z"/>
  <path class="cls-15"
        d="M508 134a2.69 2.69 0 0 1-.39-5.35c26.57-3.93 34.16-14.09 34.23-14.19a2.69 2.69 0 0 1 4.41 3.07c-.34.49-8.65 12.12-37.85 16.44z"/>
  <circle class="cls-15" cx="514.26" cy="101.58" r="4.07"/>
  <path class="cls-16" d="M511.65 111s-3.75 4.06-1.87 12.5"/>
  <path class="cls-17"
        d="M304.84 224.35l8.35-5.08-8.35-4.32 4.82-7.85h-10.18v-10.9l-8.08 4.8-4.69-8.35-4.48 8.35-8-4.82v10.9H264l4.82 7.72-8.35 4.5 8.35 5.19-4.82 8.74h10.17v8.58l8.13-4.81 4.69 8.35 4.48-8.35 8 4.82v-8.58h10.17z"/>
  <circle class="cls-18" cx="287.04" cy="219" r="14.47"/>
  <ellipse class="cls-8" cx="178.79" cy="435.04" rx="9.59" ry="107.68" transform="rotate(-89.9 178.78 435.04)"/>
  <rect class="cls-11" x="52.57" y="370.67" width="222.75" height="16.12" rx="5" ry="5"
        transform="rotate(.1 166.493 383.737)"/>
  <path class="cls-11" transform="rotate(.1 166.513 406.655)" d="M152.29 387.67h25.76v23.5h-25.76z"/>
  <rect class="cls-9" x="62.85" y="412.34" width="15.96" height="24.74" rx="5" ry="5"
        transform="rotate(.1 69.13 429.658)"/>
  <rect class="cls-9" x="248.37" y="412.66" width="15.96" height="24.74" rx="5" ry="5"
        transform="rotate(.1 258.206 429.493)"/>
  <rect class="cls-11" x="65.12" y="315.31" width="99.81" height="83.94" rx="12" ry="12"
        transform="rotate(.1 114.907 360.863)"/>
  <rect class="cls-11" x="164.83" y="315.48" width="99.81" height="83.94" rx="12" ry="12"
        transform="rotate(.1 218.039 360.773)"/>
  <rect class="cls-11" x="164.83" y="315.48" width="99.81" height="83.94" rx="12" ry="12"
        transform="rotate(.1 218.039 360.773)"/>
  <circle class="cls-2" cx="61.27" cy="365.64" r="17.95" transform="rotate(-89.9 61.262 365.636)"/>
  <ellipse class="cls-12" cx="189.43" cy="382.75" rx="7.49" ry="74.57" transform="rotate(-89.9 189.424 382.744)"/>
  <rect class="cls-2" x="49" y="384.71" width="114.49" height="31.36" rx="12" ry="12"
        transform="rotate(.1 109.217 406.705)"/>
  <rect class="cls-2" x="165.5" y="384.92" width="114.49" height="31.36" rx="12" ry="12"
        transform="rotate(.1 223.808 406.605)"/>
  <path class="cls-11"
        d="M276.6 388.66a110.9 110.9 0 0 1-31.08 27.65h22.44a12 12 0 0 0 12-12V397a12 12 0 0 0-3.36-8.34z"/>
  <circle class="cls-2" cx="269.22" cy="366.01" r="17.95" transform="rotate(-89.9 269.214 366.005)"/>
  <path class="cls-11"
        d="M266.21 350.33a3.45 3.45 0 0 1 .51-2.1 18 18 0 0 0-11.42 29.11c6.96-7.16 11.37-18.08 10.91-27.01zM68.46 369.07a15.66 15.66 0 0 0 10.61-1.13 17.93 17.93 0 0 0-17.77-20.26 17.87 17.87 0 0 0-9.35 2.6 20.73 20.73 0 0 0 16.51 18.79z"/>
  <path class="cls-19"
        d="M231.57 362.66c5.59-.53 18.27-1.14 18.77 7.62 0 0 8.36 11.81-36 11.73l-33-.06s-9.26-9.75-1.52-15.92c0 0 23.73-5.6 31.45-.94s14.73-1.9 20.3-2.43z"/>
  <path class="cls-20"
        d="M210.44 364.67c-8.42-4-29.7-1.68-29.7-1.68-.46.37-.08 2.31.05 3.66 9.28 1.59 18.46 6.44 25.77 11.25q8.08-.72 16.12-1.89c5.29-.77 10.6-1.57 15.82-2.7-1.33-.25-2.66-.53-4-.84-9.28.7-18.88-.21-24.06-7.8z"/>
  <path class="cls-21" d="M246.29 371.94s-22.69 19.3-40.76-2.81"/>
  <path class="cls-2"
        d="M247.52 361.14a4.63 4.63 0 0 1 0 .77 5.07 5.07 0 0 1-1.07 2.5c1.45-.08 2.88-.22 4.28-.42.31-.95.48-1.57.51-1.72a1.07 1.07 0 0 0-2.06-.59z"/>
  <ellipse class="cls-19" cx="249.38" cy="347.18" rx="20.45" ry="16.5" transform="rotate(-68.65 249.348 347.164)"/>
  <path class="cls-20"
        d="M261.57 351.3c-4.57 7.52-12.38 11.27-20.13 14.69.17.07.33.17.5.23 8.49 3.32 18.7-2.52 22.82-13a23.62 23.62 0 0 0 1.33-12.89 41.68 41.68 0 0 1-4.52 10.97zm-4.75-23.17c-8.49-3.32-18.7 2.52-22.82 13-.14.35-.26.7-.38 1.05a76.68 76.68 0 0 0 10.08.16 52 52 0 0 0 8-2.88 5.53 5.53 0 0 1 4-.24 68.08 68.08 0 0 0 2.3-10.57c-.37-.16-.76-.36-1.18-.52z"/>
  <path class="cls-19" d="M234.16 343.21s-9.19 8.59-.67 9.06"/>
  <path class="cls-22" d="M237 346.85s3.14-2.33 4.66 1.59m-7.34 7.37s2.93 1.71 4.16.21"/>
  <path class="cls-9"
        d="M266.08 340.3s2.81 11.85-1.42 18l-3.71-5-3.73 4-2-4-3.48 2-2.47-6.46-2.49 2.23-1.65-7.18-1.8-5-7.44-3.49 7.46-7.93 10.92-1.72 8.19 2.5z"/>
  <path class="cls-5"
        d="M269.07 345.41s-18.28 1-34.48-9.37a18.36 18.36 0 0 1 .85-1.73c2.21-4 11.55-14.7 23.31-10.3.01-.01 10.35 5.19 10.32 21.4z"/>
  <path class="cls-5"
        d="M238.73 338.11a2.06 2.06 0 0 1-.43 0l-19.65-4.17a2.06 2.06 0 0 1 .86-4l19.65 4.06a2.06 2.06 0 0 1-.43 4.08z"/>
  <path class="cls-10"
        d="M258.76 324a16 16 0 0 0-5.32-1 38.08 38.08 0 0 1 5 21.73 58 58 0 0 0 10.65.72c.01-16.25-10.33-21.45-10.33-21.45z"/>
  <path class="cls-23"
        d="M72.15 359.35l3.2-5.4c-7-5.52-5.62-19.17-5.62-19.17-4.15-13-10.32-1.25-10.32-1.25s-2.19 11.78-.37 20.6 10.64 5.71 10.64 5.71z"/>
  <path class="cls-12"
        d="M72.65 350.83a22.92 22.92 0 0 0-7.14 9.51 11.29 11.29 0 0 0 4.19-.5l2.46-.49 3.2-5.4a11.7 11.7 0 0 1-2.71-3.12z"/>
  <path class="cls-9" d="M181.48 365S87.75 360 74 350.51c0 0-7.78 6.19-5.55 11.79s47.15 21.52 114.46 20.84"/>
  <rect class="cls-15" x="165.73" y="360.9" width="26.21" height="4.96" rx="2" ry="2" transform="translate(.64 -.32)"/>
  <path class="cls-24"
        d="M166.23 364a2.25 2.25 0 0 1-2-1.33l-11.26-25.08a2.25 2.25 0 1 1 4.1-1.84l11.26 25.08a2.25 2.25 0 0 1-2.05 3.17z"/>
  <path class="cls-21" d="M205.53 369.13c-8.76-10.72-17-12.61-21.95-12.52"/>
  <path class="cls-9" d="M312.33 46.34h44.1v19.25h-44.1z"/>
  <path class="cls-8"
        d="M417.05 20.55a12.55 12.55 0 0 0-5.8 1.42v-.4A12.61 12.61 0 1 0 386.88 26l-.38.28a12.62 12.62 0 1 0-3.28 15.81 12.61 12.61 0 0 0 23.18-2.22 12.61 12.61 0 1 0 10.65-19.35z"/>
  <path class="cls-25"
        d="M424.81 38.33c-6.94 5-14.5 3.9-21-.67l-.29-.12c-6.25 4.21-14.12 5.28-21.58.45a28 28 0 0 1-13.53 4.8 12.57 12.57 0 0 0 14.78-.66 12.61 12.61 0 0 0 23.18-2.22A12.6 12.6 0 0 0 429.08 37h-2.58c-.55.43-1.1.91-1.69 1.33z"/>
  <ellipse class="cls-8" cx="353.98" cy="173.74" rx="72.21" ry="8.64"/>
  <rect class="cls-9" x="278.71" y="137.11" width="6.2" height="37.44" rx="2" ry="2"/>
  <rect class="cls-9" x="286.53" y="97.5" width="6.2" height="38.65" rx="2" ry="2"/>
  <rect class="cls-9" x="394.21" y="97.5" width="6.2" height="38.65" rx="2" ry="2"/>
  <rect class="cls-9" x="401.91" y="137.11" width="6.2" height="37.44" rx="2" ry="2"/>
  <rect class="cls-5" x="271.51" y="93.86" width="143.05" height="17.82" rx="2" ry="2"/>
  <rect class="cls-5" x="271.51" y="114.52" width="143.05" height="17.82" rx="2" ry="2"/>
  <rect class="cls-5" x="264.31" y="135.18" width="157.46" height="7.01" rx="2" ry="2"/>
  <path class="cls-10"
        d="M377.91 103.35a19.59 19.59 0 0 0-4.76-9.48h-17.57a54.18 54.18 0 0 1 4.14 17.82h17a13.58 13.58 0 0 0 1.19-8.34zm-3.38 12.16l.62-1h-15.37a38 38 0 0 1-4.23 17.82h14.07a33.08 33.08 0 0 1 4.91-16.82zm12.31 7.96c0 .12-.08.23-.11.35a38.19 38.19 0 0 0-1.33 8.52h10.94c-.26-5.96-3.92-8.75-9.5-8.87z"/>
  <rect class="cls-9" x="309.73" y="117.36" width="52.42" height="19.11" rx="9" ry="9"/>
  <path class="cls-11"
        d="M336.23 59s-25.1.24-27.47 18.47-.95 39.78-.95 39.78 38.36 9.95 54.46.95c0 0 2.28-29.67-4.26-48.31C353.28 56.41 336.23 59 336.23 59z"/>
  <path class="cls-26"
        d="M321.53 80.73v-.63a34.34 34.34 0 0 1-3.53-1.17 3.68 3.68 0 0 1-2.52-4.43 3.36 3.36 0 0 1 .35-.78 3.6 3.6 0 0 1 .32-.68 4 4 0 0 1 3.23-1.81l-.12-.14a30.74 30.74 0 0 0-3.14-.53 37.13 37.13 0 0 0-7.66 15.59 3.57 3.57 0 0 1-.61 1.36c-.67 10.62-.41 20.86-.19 26.11l1.52.57a82.7 82.7 0 0 0 12.22 3.18c2.33.45 4.66.86 7 1.2-3.38-4.43-5.27-10.21-6.39-15.46-1.62-7.47-1.3-14.93-.48-22.38zm40.63 11.64l-.14-.59a54.38 54.38 0 0 0-5.69-14.5 33.16 33.16 0 0 0-7.57 1.79 63.67 63.67 0 0 1 1.64 12.58 3.42 3.42 0 0 1 .58 1.09 69.06 69.06 0 0 1 2.81 12.26 72.7 72.7 0 0 1 3 10.2 4.73 4.73 0 0 1 .08.85 12.26 12.26 0 0 0 4.12-4.21 16.67 16.67 0 0 0 1.7-4.18c-.01-4.34-.1-9.66-.53-15.29zM341 116.88a11.14 11.14 0 0 1-1.27 1.84 2.72 2.72 0 0 1-.94.69h3.67c-.53-.86-1.02-1.68-1.46-2.53z"/>
  <path class="cls-27" d="M329.07 65.28s-1 5 6.59 5.44 7.66-5.82 7.66-5.82z"/>
  <path class="cls-28"
        d="M336.13 72.76c-3.48 0-6.09-1-7.74-2.88a7.91 7.91 0 0 1-1.75-5.88l3.14.45-1.57-.22 1.57.21a4.73 4.73 0 0 0 1 3.38c1 1.17 2.82 1.76 5.33 1.76s4.35-.62 5.47-1.83a5.27 5.27 0 0 0 1.27-3.58l3.16-.26a8.49 8.49 0 0 1-2.1 6c-1.72 1.89-4.35 2.85-7.78 2.85z"/>
  <path class="cls-19"
        d="M360.33 39.31c0 12.86-10.44 27.93-23.3 27.92s-23.28-15.08-23.28-27.94a23.29 23.29 0 0 1 46.58 0z"/>
  <path class="cls-20"
        d="M351.63 21.15a44.06 44.06 0 0 1 .14 8.71 60 60 0 0 1-5.82 20.79C343.43 56 339.86 63 334.86 67.08a16.55 16.55 0 0 0 2.17.15c12.86 0 23.29-15.06 23.3-27.92a23.24 23.24 0 0 0-8.7-18.16z"/>
  <path class="cls-29" d="M335.43 44.09l-1.8 9.36h4.32"/>
  <path class="cls-11"
        d="M315.93 121.83a5.78 5.78 0 0 1-1.19-.12c-7-1.46-11.88-4.63-14.6-9.43a18.16 18.16 0 0 1-1.29-14.11q.07-.22.17-.43l12.14-27.63a5.76 5.76 0 1 1 10.55 4.63l-12 27.29a6.57 6.57 0 0 0 .48 4.63c1.29 2.19 4.46 3.25 6.89 3.76a5.76 5.76 0 0 1-1.18 11.4zm37.31 0a5.76 5.76 0 0 1-1.18-11.4c2.44-.51 5.61-1.58 6.89-3.76a6.57 6.57 0 0 0 .48-4.63l-12-27.29A5.76 5.76 0 1 1 358 70.11l12.14 27.63q.09.21.17.43a18.16 18.16 0 0 1-1.31 14.11c-2.72 4.8-7.63 8-14.6 9.43a5.78 5.78 0 0 1-1.16.12z"/>
  <rect class="cls-15" x="301.94" y="119" width="68.43" height="6.48" rx="2.08" ry="2.08"/>
  <rect class="cls-24" x="305.31" y="83.5" width="60.31" height="38.82" rx="9" ry="9"/>
  <path class="cls-30" d="M360.95 83.5a4.69 4.69 0 0 1 4.68 4.68v29.46a4.69 4.69 0 0 1-4.68 4.68h-24.57z"/>
  <path class="cls-31"
        d="M338.8 103.62a.59.59 0 0 1-.57.56H332a.56.56 0 0 1-.54-.56v-4.1A.52.52 0 0 1 332 99h6.27a.54.54 0 0 1 .57.5z"/>
  <g class="cls-32">
    <path class="cls-2" d="M298.95 90.8h374.29v603.02H298.95z"/>
    <g class="cls-33">
      <path class="cls-2" d="M330.12 97.71h9.97v7.76h-9.97z"/>
    </g>
  </g>
  <path class="cls-34"
        d="M337.14 100.06h-6.27a.55.55 0 0 0-.57.52v4.1a.57.57 0 0 0 .57.54h1.83l2.63 1.58v-1.58h1.81a.55.55 0 0 0 .54-.54v-4.1a.53.53 0 0 0-.54-.52z"/>
  <g class="cls-35">
    <path class="cls-5" d="M298.95 90.8h374.29v603.02H298.95z"/>
    <g class="cls-36">
      <path class="cls-5" d="M329.52 98.63h9.97v9.34h-9.97z"/>
    </g>
  </g>
  <g class="cls-37">
    <g class="cls-38">
      <path class="cls-2" d="M338.02 97.76h3.9v7.61h-3.9z"/>
    </g>
  </g>
  <rect class="cls-39" x="305.31" y="83.5" width="60.31" height="38.82" rx="9" ry="9"/>
  <rect class="cls-14" x="313.08" y="124.07" width="21.17" height="57.07" rx="10" ry="10"/>
  <path class="cls-40"
        d="M332.67 137.63c-2.74 14.7-7.29 30-15.07 43a7.13 7.13 0 0 0 2.69.53h6.77a7.22 7.22 0 0 0 7.2-7.2v-42.68a7.13 7.13 0 0 0-.28-1.95c-.36 2.82-.81 5.6-1.31 8.3z"/>
  <rect class="cls-14" x="336.06" y="124.07" width="21.17" height="57.07" rx="10" ry="10"/>
  <path class="cls-40"
        d="M353.39 124.91c.42 4.51.68 9 .7 13.57a149.29 149.29 0 0 1-2.23 24.33c-1 6.16-1.59 12.41-5 17.79a4 4 0 0 1-.42.54H350a7.22 7.22 0 0 0 7.2-7.2v-42.66a7.22 7.22 0 0 0-3.81-6.37z"/>
  <rect class="cls-28" x="337.61" y="177.53" width="17.56" height="11.62" rx="5.81" ry="5.81"/>
  <path class="cls-2"
        d="M352.1 177.93a35.36 35.36 0 0 1-8.9 11.22h6.94a5.06 5.06 0 0 0 5-5v-1.54a5.06 5.06 0 0 0-3.04-4.68z"/>
  <rect class="cls-28" x="315.65" y="177.53" width="17.56" height="11.62" rx="5.81" ry="5.81"/>
  <path class="cls-2"
        d="M330.13 177.93a35.36 35.36 0 0 1-8.9 11.22h6.94a5.06 5.06 0 0 0 5-5v-1.54a5.06 5.06 0 0 0-3.04-4.68z"/>
  <path class="cls-15" d="M380.3 122.21l1.18 13.32a11 11 0 0 0 7.81.24l1-13.54z"/>
  <rect class="cls-24" x="379" y="120.19" width="13.22" height="2.74" rx="1.37" ry="1.37"/>
  <path class="cls-24" d="M390.23 120.52v-.75a1.44 1.44 0 0 0-1.44-1.44h-6.64a1.44 1.44 0 0 0-1.44 1.44v.75z"/>
  <g class="cls-41">
    <circle class="cls-24" cx="328.33" cy="43.86" r="6.03"/>
  </g>
  <g class="cls-42">
    <path class="cls-24" d="M324.21 48.25c2.5-3.13 5-6.23 7.55-9.34a6 6 0 0 0-7.55 9.34z"/>
  </g>
  <g class="cls-41">
    <circle class="cls-24" cx="344.13" cy="43.86" r="6.03"/>
  </g>
  <g class="cls-42">
    <path class="cls-24" d="M340 48.25c2.5-3.13 5-6.23 7.55-9.34a6 6 0 0 0-7.55 9.34z"/>
  </g>
  <path class="cls-14"
        d="M328.35 50.81a7 7 0 1 1 7-7 7 7 0 0 1-7 7zm0-12.49a5.52 5.52 0 1 0 5.52 5.52 5.53 5.53 0 0 0-5.52-5.52zm15.84 12.49a7 7 0 1 1 7-7 7 7 0 0 1-7 7zm0-12.49a5.52 5.52 0 1 0 5.52 5.52 5.53 5.53 0 0 0-5.52-5.52z"/>
  <path class="cls-14"
        d="M338.68 40.07c-1.22-1.08-1.61-1.56-2.48-1.38a6.4 6.4 0 0 0-2.2 1.14l-1.3-.61a6.8 6.8 0 0 1 3.15-1.95c1.35-.28 2.13.29 3.74 1.71zm-24.5.42h8.64v1.44h-8.64zm35.3-.72h8.64v1.44h-8.64z"/>
  <path class="cls-29" d="M333.25 59s2.5 1.47 6.48-.15"/>
  <path class="cls-43"
        d="M353.49 33.83l.22 38.34 2.29-2.94.77 3.13 2.89-2.89 2.52 3.25 2.4-3.37 2.2 2.89c0-.09.93-19 0-29.91C366 32.24 363.44 18 355.73 9.46a24.86 24.86 0 0 0-19-8.59 27.45 27.45 0 0 0-21.57 9.64c-7.59 8.79-9.78 22.51-10.29 32.32-.54 10.58.71 29.25.72 29.33L308 69.7l1.8 3.13 2.89-3 2.52 2.89 3.13-3.37L320 73l.78-39.31s2.68-11 14.87-11c.02-.01 17.84-1.43 17.84 11.14z"/>
  <path class="cls-43" d="M337.17 22.25S342 28 342.29 35.08c0 0 5.45-6.09 3.85-13.46z"/>
  <path class="cls-44"
        d="M366.87 42.33a81.61 81.61 0 0 0-4.14-20.52 131.48 131.48 0 0 1-7.81 48.83l1.08-1.41.77 3.13 2.89-2.89 2.52 3.25 2.4-3.37 2.2 2.89c.05-.09.98-19.02.09-29.91z"/>
  <path class="cls-16" d="M314.3 20.83s4.11-12.34 16-14.32"/>
  <ellipse class="cls-8" cx="117.79" cy="221.6" rx="47.62" ry="14.99"/>
  <ellipse class="cls-8" cx="211.68" cy="226.28" rx="28.74" ry="7.52"/>
  <ellipse class="cls-8" cx="51.93" cy="239.64" rx="11.24" ry="4.8"/>
  <path class="cls-14"
        d="M55.26 139.26l-8.66-9.38a.92.92 0 0 0-.7-.29.9.9 0 0 0-.67.35l-8.11 8.47a.9.9 0 0 0 .18 1.27l9.2 7a.9.9 0 0 0 1.1 0l7.57-6.13a.9.9 0 0 0 .1-1.31z"/>
  <path class="cls-8"
        d="M203.26 105.73a9 9 0 0 0-4.14 1v-.28a9 9 0 1 0-17.44 3.2l-.27.2a9 9 0 1 0-2.35 11.3 9 9 0 0 0 16.57-1.59 9 9 0 1 0 7.61-13.83z"/>
  <path class="cls-25"
        d="M208.8 118.44c-5 3.58-10.37 2.79-15-.48l-.21-.09c-4.47 3-10.09 3.77-15.43.32a20 20 0 0 1-9.67 3.43 9 9 0 0 0 10.57-.47 9 9 0 0 0 16.57-1.59 9 9 0 0 0 16.21-2.11H210c-.38.35-.78.69-1.2.99z"/>
  <path class="cls-8"
        d="M475.26 84.07a9 9 0 0 0-4.14 1v-.28A9 9 0 1 0 453.69 88l-.27.2a9 9 0 1 0-2.35 11.3 9 9 0 0 0 16.57-1.59 9 9 0 1 0 7.61-13.83z"/>
  <path class="cls-25"
        d="M480.8 96.78c-5 3.58-10.37 2.79-15-.48l-.21-.09c-4.47 3-10.09 3.77-15.43.32a20 20 0 0 1-9.67 3.43 9 9 0 0 0 10.57-.47 9 9 0 0 0 16.57-1.59 9 9 0 0 0 16.21-2.11H482c-.38.34-.78.68-1.2.99z"/>
  <path class="cls-9" d="M90.33 112.35h45.87v38.23H90.33z"/>
  <path class="cls-15"
        d="M34.33 127.5a.89.89 0 0 0-.69-.28.9.9 0 0 0-.67.34l-23 28.58a.9.9 0 0 0-.11 1 4.64 4.64 0 0 1 .4 1.27 8.68 8.68 0 0 1 .11.89.93.93 0 0 0 .68.82 7 7 0 0 0 1.41.36 7.58 7.58 0 0 1 .83.18 13.3 13.3 0 0 1 4.88 2.4 12 12 0 0 1 1.46 1.54c1 1.25 2.13 2.55 4.5 2.7 2.56.16 5.23-1 7.38-2h.09a4.61 4.61 0 0 1 4.1.06 5.5 5.5 0 0 1 2.81 3.61.9.9 0 0 0 .88.72H47a.9.9 0 0 0 .9-.89l.29-25.25c.02-.55.02-1.29-13.86-16.05zM158.32 138a1 1 0 0 1 .76-.31 1 1 0 0 1 .73.37l25.35 31.44a1 1 0 0 1 .12 1.06 5.1 5.1 0 0 0-.44 1.39 9.55 9.55 0 0 0-.12 1 1 1 0 0 1-.75.9 7.66 7.66 0 0 1-1.55.39 8.33 8.33 0 0 0-.91.19 14.63 14.63 0 0 0-5.36 2.64 13.17 13.17 0 0 0-1.61 1.7c-1.15 1.38-2.35 2.8-4.95 3-2.81.18-5.75-1.14-8.12-2.2h-.1a5.07 5.07 0 0 0-4.51.07 6 6 0 0 0-3.09 4 1 1 0 0 1-1 .79h-8.43a1 1 0 0 1-1-1l-.34-27.84c0-.46 0-1.32 15.32-17.59z"/>
  <path class="cls-30"
        d="M91.89 138.75l-11-7.29-14.7-18.89a.93.93 0 0 0-.72-.35.9.9 0 0 0-.71.36L11 183.88a.9.9 0 0 0 .45 1.4 16.09 16.09 0 0 1 8.4 6.1c.55.76 1 1.61 1.58 2.51 1.2 2 2.44 4.16 4.46 5.48 4 2.6 7.75.67 11.09-1 .6-.31 1.2-.61 1.79-.89 8.18-3.82 15-4 21.43-.63 7 3.69 15 6.9 21-1.74a4.53 4.53 0 0 1 4.23-2 5.11 5.11 0 0 1 4.14 2.7 3.58 3.58 0 0 1-.5 3.71 25.94 25.94 0 0 1-7.75 7.39.9.9 0 0 0 .47 1.67h9.53a.9.9 0 0 0 .9-.9v-68.16a.9.9 0 0 0-.33-.77z"/>
  <path class="cls-14" d="M91.41 204.09h40.96v19.89H91.41z"/>
  <path class="cls-14"
        d="M80.73 205.94s-18.61 32.63 16.11 30.49c0 0 4.68-1 12.92-5.59l19-11.53s.17-7.58-5.6-9.56l-23.61 9.55s-3.92-5.89-1-9.39z"/>
  <path class="cls-45"
        d="M102.78 218l-3.23 1.31a15.46 15.46 0 0 1-1.55-3.15c-7 6.34 3.54 12.45 9.24 16 .77-.38 1.59-.8 2.48-1.3l5.67-3.45a47.33 47.33 0 0 1-12.61-9.41z"/>
  <path class="cls-2"
        d="M105 212.08l-2-4.24-.08-.14c-1-1.42-3.85-1.21-4.7-1.11a.89.89 0 0 0-.32.1l-6.61 3.46c-11.13 5.5-17 8.69-17.51 9.48-.83 1.34-1.56 4.5 1 7.84 1.79 2.34 3.59 2.76 4.65 2.76a3.13 3.13 0 0 0 1-.13l.15-.07 17.14-9.76a.93.93 0 0 0 .19-.15l7-7a.9.9 0 0 0 .09-1.04z"/>
  <path class="cls-45" d="M115.44 212.9c.17.06 6 2.76 10.33 4.37a23.78 23.78 0 0 0 5.09 1.39l-4.92 2.64-10-4z"/>
  <path class="cls-14"
        d="M154 217.39c-.72-4.31-5.13-9.84-6.47-9.84a.91.91 0 0 0-.26 0l-12.69 3.79a.9.9 0 0 0-.61.6c-1 3.41-2.56 5.69-4.43 6.59a4.32 4.32 0 0 1-3.22.26l-18.89-10.68a.89.89 0 0 0-.61-.1c-2.85.54-12 3-10.28 12.42a9.49 9.49 0 0 0 .38 1.46.9.9 0 0 0 .33.42l12.82 9a34 34 0 0 0 20.85 7.33 25.21 25.21 0 0 0 6.51-.76C151.72 233 155.08 224 154 217.39z"/>
  <path class="cls-45"
        d="M154 217.39c-.72-4.31-5.13-9.84-6.47-9.84a.91.91 0 0 0-.26 0l-4.2 1.25c3.91 7.22.27 17.13-5.9 22.82a26.52 26.52 0 0 1-13 6.35 32.54 32.54 0 0 0 6.74.71 25.21 25.21 0 0 0 6.51-.76C151.72 233 155.08 224 154 217.39z"/>
  <path class="cls-2"
        d="M135.31 220.14l6.59 2.31s4.12 1.65 5.77-3.29c0 0 1.48-3.62-1.65-4.78s-.66-.16-.66-.16L131 208.6s-4.12-1-5.44 2.14l2 7.25z"/>
  <path class="cls-5"
        d="M146.14 159.47l-14.91-16.23a.9.9 0 0 0-.66-.29H95.45a.9.9 0 0 0-.77.43l-15.5 24.92a.91.91 0 0 0-.13.43l-2 37.82a.9.9 0 0 0 .49.85 80.18 80.18 0 0 0 33.28 7 76.4 76.4 0 0 0 35.06-8.4.9.9 0 0 0 .49-.8v-45.12a.9.9 0 0 0-.23-.61z"/>
  <path class="cls-10"
        d="M122.08 150.05a98.8 98.8 0 0 0 14.5-1l-5.35-5.82a.9.9 0 0 0-.66-.29H95.45a.9.9 0 0 0-.54.19 50.16 50.16 0 0 0 27.17 6.92zM78.2 201.12l.18.13c7 4.5 19.27 2.23 27 4.92 1.32.46 1.9 2.14 2.35 3.47-1.58 1.3-4.21 1.34-15.09.49s-15.33-2.08-14.66-9"/>
  <path class="cls-46" d="M111.93 150.43l-.17 28.06"/>
  <path class="cls-14"
        d="M116.21 160H116a1.08 1.08 0 0 1-.75-.49l-4.12-6.43a1.08 1.08 0 0 1 .35-1.51l3-1.81a1.08 1.08 0 0 1 1.44.29l4.12 5.77a1.08 1.08 0 0 1-.19 1.46l-3 2.47a1.08 1.08 0 0 1-.64.25zm-1.53-5l1.78 2.3 1.25-1-1.87-2z"/>
  <path class="cls-10"
        d="M105.44 195.39v-7.64a36.93 36.93 0 0 1-10.74-.31c-3.74-.76-8.53-2.53-9.66-6.13-3.3-10.48.89-15.37.89-15.37L83.22 167l-3.64 8.44-.47 7.09 9.3 8.11 6.67 1.36z"/>
  <path class="cls-19" d="M105.26 190.12l-4.61 2.37.6 2.67 4.05-.09-.04-4.95z"/>
  <path class="cls-20" d="M105.43 192.88l-4.44 1.17.26 1.11 4.05-.09.13-2.19z"/>
  <rect class="cls-9" x="104.68" y="178.29" width="20.5" height="37.25" rx="2" ry="2"/>
  <circle class="cls-14" cx="109.6" cy="183.61" r="2.3"/>
  <path class="cls-10"
        d="M144.43 173.19l-8.5-6.38a.9.9 0 0 0-1.42.93 54.18 54.18 0 0 1 .11 19.76c-1.78 10.55-4.08 14.51-4.1 14.55a.9.9 0 0 0 .07 1l5.52 6.84a.9.9 0 0 0 .7.34h.22a.9.9 0 0 0 .67-.7l7.06-35.45a.9.9 0 0 0-.33-.89z"/>
  <path class="cls-19"
        d="M134.56 202.34l-4.83 3.76s-2.51 3.4.71 4.47l2.61-.74a16.42 16.42 0 0 0-3 3.06c-1.09 1.59-2.12 4.71-.33 6.85s4.93 2.17 8.7-.34 7.2-11 7.2-11"/>
  <path class="cls-5"
        d="M156.25 176.81c-.54-15.8-9-24.39-16.46-28.92-1.79 3.25-3.74 6.41-5.81 9.49a4.79 4.79 0 0 1-1.16 1.21l2.52 8.49c7.24 22.91-2.32 35.1-2.32 35.1 3.62 8.08 12.69 7.25 12.69 7.25 12.34-7.24 10.54-32.62 10.54-32.62z"/>
  <path class="cls-10"
        d="M128.75 144.89l-.63-3.1s27.15 6.35 28.13 35a67.89 67.89 0 0 1-1.25 16.89s-4.25-37.09-26.25-48.79"/>
  <path class="cls-19"
        d="M100 194.48s4.47.3 11.67-2.22c0 0 6-1.71 7.68 4.21.89 3.07 1.31 7.5-3.29 8.81a42.41 42.41 0 0 1-16.71 1.47"/>
  <path class="cls-20"
        d="M102.57 194.37h-.24a16.76 16.76 0 0 1-2.35.08l-.65 12.27a28.9 28.9 0 0 0 3.54.25h.44a65 65 0 0 0-.74-12.6z"/>
  <path class="cls-5"
        d="M89.63 141s-30.88 7.6-24.56 49c0 0 4.45 18.81 35.95 18.37a32.73 32.73 0 0 0-.73-18.76S74.18 191 85.48 168.25l4.59-8.54 8.17-16.41s-2.24-3.05-8.61-2.3z"/>
  <path class="cls-19"
        d="M140 118.66c0 15.9-12.9 34.53-28.8 34.52s-28.78-18.64-28.78-34.54a28.79 28.79 0 0 1 57.58 0z"/>
  <path class="cls-20"
        d="M119.39 91c4.12 5.39 2.45 12.1 5.16 18.42 3.78 8.8 5.94 20.55 2.21 29.35-3.29 7.75-4.9 10.28-12.09 14.05 14.25-2.46 25.29-19.49 25.3-34.21A28.8 28.8 0 0 0 119.39 91z"/>
  <path class="cls-47" d="M106 144.09s4.65 4.58 11 0"/>
  <path class="cls-9"
        d="M152.93 128.37c-1.09-13.33-4.53-31.61-14.72-42.93-6.47-7.19-14.93-10.84-25.14-10.85-11.9 0-21.48 4.11-28.49 12.23-10 11.61-12.93 29.49-13.59 42.45a145.32 145.32 0 0 0 1 25.51.9.9 0 0 0 .89.77h19.59a.9.9 0 0 0 .9-.89l.6-37.76 3.13 5.73a.9.9 0 0 0 .79.47h31.38a.9.9 0 0 0 .83-.55l2.3-5.42.28 37.54a.9.9 0 0 0 .9.89H152a.9.9 0 0 0 .9-.81 159.21 159.21 0 0 0 .03-26.38z"/>
  <path
    d="M152.93 128.37a114.59 114.59 0 0 0-3.34-20 168.93 168.93 0 0 1-5.39 24.13 171.69 171.69 0 0 1-8.33 23.11H152a.9.9 0 0 0 .9-.81 159.22 159.22 0 0 0 .03-26.43z"/>
  <path class="cls-47"
        d="M95.8 128.57s5.7-4.48 10.18 0m11.46.01s5.7-4.48 10.18 0m-17.09 5.51l-1.25 4.3a4.88 4.88 0 0 0 3.4 0"/>
  <path class="cls-48" d="M82.08 123.23s-1.34-22.51 17.12-33.76"/>
  <path class="cls-44"
        d="M53.84 226.25a.9.9 0 0 0-.64-.26h-8.74a.9.9 0 0 0-.9.9v13a.9.9 0 0 0 .9.9h8.74a.9.9 0 0 0 .9-.9v-13a.9.9 0 0 0-.26-.64z"/>
  <path class="cls-2"
        d="M69.32 228.52L61 219.3h6.29a.9.9 0 0 0 .67-1.5l-9.4-10.48h7.24a.91.91 0 0 0 .67-1.52l-8.18-9.13h6.1a.92.92 0 0 0 .82-.55.93.93 0 0 0-.15-1l-15.5-17.37a1 1 0 0 0-.67-.37 1 1 0 0 0-.67.38l-15.36 17.4a.9.9 0 0 0 .67 1.5h5.77l-8.1 9.15a.9.9 0 0 0 .67 1.5h6.8l-9.29 10.48a.9.9 0 0 0 .67 1.5h6.47l-8.17 9.15a.9.9 0 0 0 .67 1.5h39.63a.87.87 0 0 0 .82-.5.84.84 0 0 0-.15-.92z"/>
  <path class="cls-11"
        d="M69.32 228.52L61 219.3h6.29a.9.9 0 0 0 .67-1.5l-9.4-10.48h7.24a.91.91 0 0 0 .67-1.52l-8.18-9.13h6.1a.92.92 0 0 0 .82-.55.93.93 0 0 0-.15-1l-9.73-10.88v45.7h13.32a.87.87 0 0 0 .82-.5.84.84 0 0 0-.15-.92z"/>
  <ellipse class="cls-8" cx="184.59" cy="201.8" rx="8.43" ry="3.6"/>
  <path class="cls-44"
        d="M186 191.76a.68.68 0 0 0-.48-.2H179a.68.68 0 0 0-.68.68V202a.68.68 0 0 0 .68.68h6.55a.68.68 0 0 0 .68-.68v-9.73a.68.68 0 0 0-.23-.51z"/>
  <path class="cls-2"
        d="M198 193.31l-5.55-6h3.7a1.28 1.28 0 0 0 1-.81 1.39 1.39 0 0 0-.19-1.36L190.6 178h4.4a1.12 1.12 0 0 0 1-.66 1.07 1.07 0 0 0-.19-1.18l-5.46-6H194a1.21 1.21 0 0 0 1-.75 1.28 1.28 0 0 0-.19-1.3l-11.65-12.94a1.21 1.21 0 0 0-1.68 0l-11.52 13a1.1 1.1 0 0 0-.18 1.19 1.13 1.13 0 0 0 1 .66h3.33l-5.41 6.14a1.25 1.25 0 0 0-.18 1.28 1.27 1.27 0 0 0 1 .8h4.1l-6.31 7a.91.91 0 0 0-.18 1.07 1.13 1.13 0 0 0 1 .66H172l-5.46 6.11a1.13 1.13 0 0 0 .84 1.88h29.71a1 1 0 0 0 1-.56 1 1 0 0 0-.09-1.09zm-15.62-37.58z"/>
  <path class="cls-11"
        d="M198 193.31l-5.55-6h3.7a1.28 1.28 0 0 0 1-.81 1.39 1.39 0 0 0-.19-1.36L190.6 178h4.4a1.12 1.12 0 0 0 1-.66 1.07 1.07 0 0 0-.19-1.18l-5.46-6H194a1.21 1.21 0 0 0 1-.75 1.3 1.3 0 0 0-.25-1.3l-5.94-6.54V195h8.28a1.08 1.08 0 0 0 1.06-.56 1 1 0 0 0-.15-1.13z"/>
  <path class="cls-49" d="M48.21 184.76l-6.01 6.01m139.54-30.76l-5.59 5.58"/>
  <path class="cls-44"
        d="M179.74 212.15c-.91.47-4.9 2.13-5.19 3.94a1.84 1.84 0 0 0 .55 1.62.9.9 0 0 0 .64.26h.22l8.95-2.27a.9.9 0 0 0 .48-.31l5-6.25a.9.9 0 0 0 .1-1 .92.92 0 0 0-.83-.5l-5.11.14a.9.9 0 0 0-.64.29z"/>
  <ellipse class="cls-5" cx="173.01" cy="220.98" rx="3.07" ry="3.72" transform="rotate(-20.03 173.023 221.001)"/>
  <path class="cls-50" d="M169.24 215.71l2.81-1s1.84.12 3.34 3.55l-6 2.19a18.35 18.35 0 0 1-.15-4.74z"/>
  <path class="cls-51" d="M247.92 187.77a12 12 0 1 1-12.05-11.95 12 12 0 0 1 12.05 11.95z"/>
  <path class="cls-51"
        d="M241.29 197.81s-11.05 5.44-13.57 14.54c0 0-2.07 13.21-10.05 6.29l3.08-10.52s-2.48-14.61 5-25.58m-44.26 6.6l-2.4-2.55a11.23 11.23 0 0 0-1.09 8.71z"/>
  <path class="cls-43"
        d="M213.93 215.34a50.94 50.94 0 0 1 6.17 6.27 25.36 25.36 0 0 0-.47-7.84.9.9 0 0 0-.56-.67l-15-5.71a.91.91 0 0 0-.25-.06h-.86a123.24 123.24 0 0 1 10.97 8.01z"/>
  <path class="cls-52" d="M187.35 206.12s.9 5-8.26 8.41c0 0-7.51 1.2-6.61 3.91a27.8 27.8 0 0 0 23-9.47"/>
  <path class="cls-43"
        d="M221.51 201.13c-4.4-8.8-12.46-11.58-23.32-8-5.72 1.86-10.64-1.16-12.49-2.3l-.29-.17c-1.78-1.07-5.29.69-6.41 1.31a16.42 16.42 0 0 0-5 3.46 18.18 18.18 0 0 0-5.26 12.81.9.9 0 0 0 .09.42 6 6 0 0 0 3.84 2.93c2.56.62 5.61-.33 9.05-2.82l10.11 2 19.84 13a.91.91 0 0 0 .49.15.89.89 0 0 0 .26 0l6.91-2.1a.91.91 0 0 0 .41-.27 18.8 18.8 0 0 0 1.77-20.42z"/>
  <path class="cls-44"
        d="M207.29 211.36a7.55 7.55 0 0 1-4.68.06 4.42 4.42 0 0 1-3-3.51 21.89 21.89 0 0 0-6.14 3.89l18.2 11.91a.91.91 0 0 0 .49.15.89.89 0 0 0 .26 0l4.39-1.34a43.87 43.87 0 0 0-9.52-11.16z"/>
  <path class="cls-52" d="M179.38 193.65s-.45-4.81 2-7.06c0 0 3 .15 3.76 6.16z"/>
  <path class="cls-53" d="M175.26 199.55a3.27 3.27 0 0 1 6.53 0"/>
  <path class="cls-51" d="M181.49 189.14s1.87.18 2.44 4.73"/>
  <path class="cls-43"
        d="M219.64 213.76a.9.9 0 0 0-.56-.67l-15-5.71a.91.91 0 0 0-.25-.06c-.21 0-5.17-.39-7.47 3.19-2.14 3.35-1.08 8.84 3.15 16.33a.9.9 0 0 0 .4.37 28.94 28.94 0 0 0 10.73 2.6 10 10 0 0 0 6.27-1.85c3.15-2.46 4.09-7.24 2.73-14.2z"/>
  <path class="cls-44"
        d="M201.68 224.79c1.44.25 2.79.86 4.22 1.12a12.18 12.18 0 0 0 2.67.12 4.68 4.68 0 0 1 .47-1.13c-.78-.08-1.54-.19-2.26-.29-3-.43-6-.91-9.07-1.19.18.39.39.8.59 1.2a11.61 11.61 0 0 1 3.38.17z"/>
  <path class="cls-43"
        d="M211.69 229.41l-20.47-.15a.86.86 0 0 1-.88-.6 2.1 2.1 0 0 1 .38-2c1.91-2.38 9.43-2.18 10.93-2.12l10 .24z"/>
  <path class="cls-53" d="M171 207.22l5.68-3.84m.29 4.26l-5.97.14m-2.23-.28l-3.87-1.28m.57 3.41l3.4-2.56"/>
  <circle class="cls-54" cx="170.15" cy="207.5" r="1.38"/>
  <path class="cls-16" d="M206.43 195.1s12.49 1.64 13.52 12.08"/>
  <circle class="cls-55" cx="332.99" cy="264.19" r="61.52" transform="rotate(-5.87 332.984 264.16)"/>
  <path class="cls-55"
        d="M384.23 235.11a7.16 7.16 0 0 1 3.25 5.88c1 .71 2.16 1.37 3.27 2A61.27 61.27 0 0 0 386 233a5.32 5.32 0 0 1-1.31 1.69z"/>
  <path class="cls-2"
        d="M390.75 243c-1.11-.65-2.24-1.31-3.27-2a7.16 7.16 0 0 0-3.25-5.88l.48-.41A5.32 5.32 0 0 0 386 233a61.74 61.74 0 0 0-7.46-10.11 8.37 8.37 0 0 0-3.66 1.79 23.75 23.75 0 0 0-4.91 5.18 16.94 16.94 0 0 0-1 1.8 6.78 6.78 0 0 0-3.78 6.08v.16a40.27 40.27 0 0 0-5.8 1.19c-3.63 1.33-7 3.5-8.74 7.08a7.45 7.45 0 0 0 .85 8.29c-9.87.51-19.13 4.55-21.15 15-1.26 6.48 1.62 13 6.06 17.69 1.29 1.36 8.44 5.49 10.28 7.5-.31.26-.7 1.24-1 1.51a23.94 23.94 0 0 0-4.57 6.44c-2.86 5.43-3.46 13.38 3 16.54s13.42-.84 17.62-5.68c3.07-3.53 4.94-7.72 8.5-10.85 2.74-2.41 6-4.21 8.81-6.55 5.63-4.68 10.21-11.59 9.47-19.22s-6.46-12.5-13.57-15.07a7.15 7.15 0 0 0-4.1-4.13 44.19 44.19 0 0 0-9.48-2.59 5.38 5.38 0 0 0 1.32-1.66c.38-.78-.1-.61.82-.91.37-.12 2-.55 2.83-.7l1.31-.27a6.71 6.71 0 0 0 5.46 3.07 17.2 17.2 0 0 1 15 11c1.16 3.14 1.35 6.66 4.5 8.6a8.08 8.08 0 0 0 1 .48 61.55 61.55 0 0 0-2.86-31.66zm-47.46-14.59c-9.61-.1-9.76 13.92-.15 14 7.68.1 7.86-13.92.15-14z"/>
  <path class="cls-55" d="M300.51 211.94l-1.07.69c.3-.06.61-.13.91-.17.04-.18.11-.35.16-.52z"/>
  <path class="cls-2"
        d="M277.14 250.54c2.42 1.09 4.85.92 7.38.51 3.47-.57 6 .14 9.47.3 5 .23 9.11-2.13 12.09-6 1.62-2.08 2.5-4.4 3.82-6.64 1.42-2.4 2.3-2.65 4.69-4a11.18 11.18 0 0 0 5.52-11.94c-.87-5.32-5.18-8.21-7.13-12.92a6 6 0 0 0-2.49-3 61.08 61.08 0 0 0-10 5c-.05.17-.12.34-.16.52-.3 0-.61.12-.91.17a61.72 61.72 0 0 0-25.7 35 8.16 8.16 0 0 0 3.42 3zm20.25 14.33l-1.08-1.43a7 7 0 0 0-3.07-1.84l-2.82-1.17a7 7 0 0 0-5.41.65 7 7 0 0 0-2.62 9.56l1.08 1.43a7 7 0 0 0 3.07 1.84l2.83 1.17a7 7 0 0 0 5.41-.65 7 7 0 0 0 2.62-9.56zm12.27 48.5c-2.08-7.67-3.12-18-8.33-24.34s-15.1-9-22.43-12.15a5.43 5.43 0 0 0-6 .62 61.62 61.62 0 0 0 34.6 42.7 7.22 7.22 0 0 0 2.16-6.83z"/>
  <path class="cls-12"
        d="M394.19 257.9a61.32 61.32 0 0 0-7.31-23.41 126.85 126.85 0 0 1-34.11 51.59 202.88 202.88 0 0 1-31.35 23 107.08 107.08 0 0 1-18.1 9 61.51 61.51 0 0 0 90.87-60.18z"/>
  <path class="cls-15"
        d="M438.67 439.34h-2a5 5 0 0 1-5-5V409.6a5 5 0 0 1 5-5h2a5 5 0 0 1 5 5v24.74a5 5 0 0 1-5 5zm40.87 0h-2a5 5 0 0 1-5-5V409.6a5 5 0 0 1 5-5h2a5 5 0 0 1 5 5v24.74a5 5 0 0 1-5 5z"/>
  <path class="cls-14" d="M404.86 331.09v37.2c0 23.65 19.35 41 43 41h25.26c23.65 0 43-17.35 43-41v-37.2"/>
  <path class="cls-9" d="M404.86 340.56v20.2a43.13 43.13 0 0 0 43 43h25.26a43.13 43.13 0 0 0 43-43v-20.2"/>
  <path class="cls-9" d="M516.12 353.05V331a43.13 43.13 0 0 0-43-43h-25.26a43.13 43.13 0 0 0-43 43v22"/>
  <path class="cls-30" d="M478 334.07l1.6 12.53c0 1.38 2.41 2.49 5.37 2.49s5.37-1.12 5.37-2.49l1.6-12.53"/>
  <path class="cls-15"
        d="M482.71 348.87a10.76 10.76 0 0 0 2.22.23c3 0 5.37-1.12 5.37-2.49l1.35-10.61a85.51 85.51 0 0 1-8.94 12.87z"/>
  <ellipse class="cls-56" cx="484.93" cy="334.07" rx="5.97" ry="2.77"/>
  <path class="cls-30"
        d="M484.93 337.84c-4 0-7-1.62-7-3.77s3-3.77 7-3.77 7 1.62 7 3.77-3.03 3.77-7 3.77zm0-5.54c-3.08 0-5 1.15-5 1.77s1.89 1.77 5 1.77 5-1.15 5-1.77-1.93-1.77-5-1.77z"/>
  <ellipse class="cls-15" cx="484.93" cy="334.07" rx="5.97" ry="2.77"/>
  <path class="cls-9" d="M489.89 335.6a10.6 10.6 0 0 0-9.94 0 10.6 10.6 0 0 0 9.94 0z"/>
  <path class="cls-30" d="M415.77 323.2l1.2 9.4c0 1 1.8 1.87 4 1.87s4-.84 4-1.87l1.2-9.4"/>
  <path class="cls-15"
        d="M419.34 334.3a8.07 8.07 0 0 0 1.66.17c2.22 0 4-.84 4-1.87l1-7.94a64.13 64.13 0 0 1-6.66 9.64z"/>
  <ellipse class="cls-56" cx="421" cy="323.2" rx="4.48" ry="2.08"/>
  <path class="cls-30"
        d="M421 326c-3 0-5.23-1.22-5.23-2.83s2.25-2.83 5.23-2.83 5.23 1.22 5.23 2.83S424 326 421 326zm0-4.16c-2.31 0-3.73.86-3.73 1.33s1.42 1.33 3.73 1.33 3.73-.86 3.73-1.33-1.42-1.3-3.73-1.3z"/>
  <ellipse class="cls-15" cx="421" cy="323.2" rx="4.48" ry="2.08"/>
  <path class="cls-9" d="M424.73 324.35a8 8 0 0 0-7.45 0 8 8 0 0 0 7.45 0z"/>
  <path class="cls-30" d="M426 354.07l1.6 12.53c0 1.38 2.41 2.49 5.37 2.49s5.37-1.12 5.37-2.49l1.6-12.53"/>
  <path class="cls-15"
        d="M430.71 368.87a10.76 10.76 0 0 0 2.22.23c3 0 5.37-1.12 5.37-2.49l1.35-10.61a85.51 85.51 0 0 1-8.94 12.87z"/>
  <ellipse class="cls-56" cx="432.93" cy="354.07" rx="5.97" ry="2.77"/>
  <path class="cls-30"
        d="M432.93 357.84c-4 0-7-1.62-7-3.77s3-3.77 7-3.77 7 1.62 7 3.77-3.03 3.77-7 3.77zm0-5.54c-3.08 0-5 1.15-5 1.77s1.89 1.77 5 1.77 5-1.15 5-1.77-1.93-1.77-5-1.77z"/>
  <ellipse class="cls-15" cx="432.93" cy="354.07" rx="5.97" ry="2.77"/>
  <path class="cls-9" d="M437.89 355.6a10.6 10.6 0 0 0-9.94 0 10.6 10.6 0 0 0 9.94 0z"/>
  <path class="cls-19" d="M356 308.84c-.08 12.7 10.12 27.65 22.82 27.73s23.09-14.73 23.18-27.43a23 23 0 0 0-46-.3z"/>
  <path class="cls-20"
        d="M366.41 289.75A23 23 0 0 0 356 308.84c-.08 12.7 10.12 27.65 22.82 27.73a16.57 16.57 0 0 0 4.08-.49c-10.46-13.02-16.65-29.91-16.49-46.33z"/>
  <path class="cls-20"
        d="M368.93 288.31A23 23 0 0 0 356 308.84a31.42 31.42 0 0 0 9 21.3 61.23 61.23 0 0 1 3.93-41.83z"/>
  <path class="cls-2" d="M400.57 374.17s3-47.61-26.09-47.81-24.41 47.31-24.41 47.31z"/>
  <path class="cls-9" d="M384.57 377.17v-25.5a12.2 12.2 0 0 0-12.5-12.5h-9c-7.15 0-13.5 5.35-13.5 12.5v25.5z"/>
  <path class="cls-11" d="M384.17 383.48h11.57v16.77h-11.57z"/>
  <rect class="cls-9" x="349.47" y="371.33" width="54.08" height="12.43" rx="6.22" ry="6.22"/>
  <path class="cls-19" d="M410.57 358.1c0 14.36-11.65 31.17-26 31.17s-26-16.83-26-31.18a26 26 0 0 1 52 0z"/>
  <path class="cls-44"
        d="M412.49 352.36c-1.84-10-6.24-17-13.1-20.73-12.65-6.87-28.91-.23-29.61.06-6.71 3-11.24 7.59-13.46 13.75-4.88 13.5 2.92 29.5 3.25 30.17a1 1 0 0 0 .9.56h36a1 1 0 0 0 .87-.5l6.32-11a1 1 0 0 0 .08-.83c-1.69-4.79-1.75-8.17-.19-9.77 1.92-2 6.2-1.11 7.68-.62a1 1 0 0 0 1.3-1.13z"/>
  <path class="cls-57"
        d="M359 340.29a22.44 22.44 0 0 0-2.68 5.15c-4.88 13.5 2.92 29.5 3.25 30.17a1 1 0 0 0 .9.56h20c-9.77-10.27-17.42-22.4-21.47-35.88z"/>
  <path class="cls-5" d="M355.82 401.17s1.7-20.82 24.22-20.82 27.19 20.82 27.19 20.82z"/>
  <path class="cls-16" d="M367.57 342s-7 3.5-7 15M515 330s-7 3.5-7 15m-132.93-51.83s-13 0-13 16.5"/>
  <path class="cls-19"
        d="M539.07 348.66c.09 14.62-11.65 31.83-26.27 31.93s-26.59-17-26.68-31.59a26.48 26.48 0 0 1 53-.34z"/>
  <path class="cls-2" d="M492.81 405.39s-1.29-34.84 27.82-35S556 404.94 556 404.94z"/>
  <path class="cls-2" d="M549.06 405.75s3.13 34.1-26.57 34.1c-34.52 0-27.9-38.53-27.9-38.53z"/>
  <path class="cls-11" d="M499.86 401.75l-5.28-.43s-1.94 11.31 1.77 21.67a64.24 64.24 0 0 1 3.51-21.24z"/>
  <path class="cls-2"
        d="M487 411.55a12.24 12.24 0 0 1-1.27-.07c-10.5-1.09-14.59-14.12-16.76-23.82a7 7 0 0 1 13.66-3.05c1.88 8.42 3.81 11.58 4.68 12.65 2.14-1.44 5.88-6.71 8.09-11.58a7 7 0 0 1 12.75 5.79c-2.23 4.82-10.06 20.08-21.15 20.08z"/>
  <path class="cls-58" d="M509.07 319.92s-26.5-8.75-26.5 38.25v20s32.82 24.26 66.5-1.5c0 0 .5-69-40-56.75z"/>
  <path class="cls-9"
        d="M561.46 413.15v-8.07a13 13 0 0 0-13-13h-25a13 13 0 0 0-13 13v21.07a13 13 0 0 0 13 13h25a13 13 0 0 0 13-13v-13z"/>
  <path class="cls-59"
        d="M535.17 326.33c3.31 11.71 1.85 25.27-1.58 36.3-2.68 8.61-6.23 16.88-9.61 25.22a55.66 55.66 0 0 0 25.09-11.18s.24-34.45-13.9-50.34z"/>
  <ellipse class="cls-5" cx="380.62" cy="410.4" rx="27.9" ry="27.24"/>
  <path class="cls-10"
        d="M404.87 418.57c.38.41.78.79 1.16 1.19.23.09.46.19.69.28a26.71 26.71 0 0 0-5.36-27.85 4.07 4.07 0 0 1-2.86 1.56c-1.54.21-3.05.44-4.55.73-.6.2-1.2.38-1.81.56 1.86 8.58 6.92 17.29 12.73 23.53z"/>
  <path class="cls-9" d="M346.58 409.28v8.5a12.2 12.2 0 0 0 12.49 12.51h19c7.15 0 13.5-5.34 13.51-12.49v-8.5z"/>
  <path class="cls-14"
        d="M434.07 313.48a1.21 1.21 0 0 1-1.21-1.21v-34.1a1.21 1.21 0 0 1 1.21-1.21h52.2a1.21 1.21 0 0 1 1.21 1.21v34.11a1.21 1.21 0 0 1-1.21 1.21"/>
  <rect class="cls-30" x="435.86" y="280.85" width="48.68" height="30.01" rx="2" ry="2"/>
  <path class="cls-24"
        d="M460.84 284.86h20.6v10.52h-20.6zm-22.01 12.25h20.67v10.52h-20.67zm22.01 0h20.6v10.52h-20.6zm-21.94-12.23h20.54v10.52H438.9z"/>
  <g class="cls-60">
    <path class="cls-24"
          d="M458.86 310.55a.14.14 0 0 1-.14-.11 1.16 1.16 0 0 1 .43-1.14.14.14 0 1 1 .17.23.88.88 0 0 0-.33.86.14.14 0 0 1-.11.17z"/>
    <ellipse class="cls-8" cx="478.32" cy="312.07" rx="1.58" ry=".86"/>
    <ellipse class="cls-8" cx="461.8" cy="312.95" rx="4.1" ry="1.21"/>
    <ellipse class="cls-8" cx="472.15" cy="314.51" rx="7.01" ry="1.44"/>
    <path class="cls-14" d="M468.42 304.4s-3.78.92-3.6 9h10.8s.85-6.61-3.62-9.13z"/>
    <path class="cls-61"
          d="M471.58 305.77a.6.6 0 0 1 0 .15 4.42 4.42 0 0 0 1.85-1l-.36-.35c-.27.12-.55.21-.85.33s-.62.31-.94.43a.82.82 0 0 1 .3.44zm-1.88.02a.65.65 0 0 1 .1-.22 3.47 3.47 0 0 1-2.31-1 5 5 0 0 0-.9.91l.09.06a4.21 4.21 0 0 0 3 .64.86.86 0 0 1 .02-.39z"/>
    <path class="cls-19"
          d="M468.6 304.19a5 5 0 0 0 0 1c.06.25.17.3.44.41a4.82 4.82 0 0 0 1.66.36 2.08 2.08 0 0 0 1.57-.63 4.34 4.34 0 0 0 .21-.87v-.13a5.86 5.86 0 0 0-.6-.39l-3.26.25s-.02-.01-.02 0z"/>
    <path class="cls-20"
          d="M468.56 304.65a4.3 4.3 0 0 0 3.78.06h.05v-.39a5.86 5.86 0 0 0-.6-.39l-3.26.25a3.94 3.94 0 0 1 .03.47z"/>
    <path class="cls-14"
          d="M472.07 303.15l-.44.08a1.23 1.23 0 0 1 0 1 1.92 1.92 0 0 1-1.63 1.26 1.74 1.74 0 0 1-1.65-1.52.48.48 0 0 1 0-.14l-.62-.29s-1 .52-.84 1.2c0 0 .2.87 2 1.49a3.13 3.13 0 0 0 2.55-.31s1.77-.86 1.82-1.66c-.04.01-.08-.62-1.19-1.11z"/>
    <path class="cls-19" d="M473.63 300.53c0 2.07-1.68 4.49-3.74 4.49s-3.74-2.42-3.74-4.49a3.74 3.74 0 1 1 7.48 0z"/>
    <path class="cls-20"
          d="M471.1 297c2.06 2.58 1.83 4.49.95 6.5a5.36 5.36 0 0 1-.64 1.08 5 5 0 0 0 2.22-4 3.74 3.74 0 0 0-2.53-3.58z"/>
    <path class="cls-44"
          d="M471.85 298.94c.06 0 .57 1.77.57 1.77l1.39-.09s.24-4.18-3.73-4.18c0 0-4.08.14-4.08 3.68a1.48 1.48 0 0 0 2 .42s2.2-2.54 3.85-1.6z"/>
    <path class="cls-9" d="M473.72 298.93c.81 0 1.48.5 1.48 1.1v1c0 .61-.67 1.1-1.48 1.1z"/>
    <path class="cls-9"
          d="M473.72 302.33a.14.14 0 0 1-.14-.14v-3.26a.14.14 0 0 1 .14-.14 1.47 1.47 0 0 1 1.62 1.25v1a1.47 1.47 0 0 1-1.62 1.29zm.14-3.25v3c.67-.05 1.2-.46 1.2-1v-1c0-.54-.53-.95-1.2-1zm-7.59-.15c-.81 0-1.48.5-1.48 1.1v1c0 .61.67 1.1 1.48 1.1z"/>
    <path class="cls-9"
          d="M466.27 302.33a1.47 1.47 0 0 1-1.62-1.25v-1a1.47 1.47 0 0 1 1.62-1.25.14.14 0 0 1 .14.14v3.26a.14.14 0 0 1-.14.1zm-.14-3.25c-.67.05-1.2.46-1.2 1v1c0 .5.53.91 1.2 1z"/>
    <path class="cls-9"
          d="M474.22 300.21a.21.21 0 0 1-.22-.21 4.07 4.07 0 0 0-8.12 0 .21.21 0 0 1-.42 0 4.49 4.49 0 0 1 9 0 .21.21 0 0 1-.24.21z"/>
    <path class="cls-44" d="M471.09 298.5s-1.53 1.07-1.58 2a2.12 2.12 0 0 1-.36-2.15z"/>
    <path class="cls-44" d="M472 298.88a9.43 9.43 0 0 0-1.39 1.34 2.91 2.91 0 0 1 .4-2z"/>
    <path class="cls-9"
          d="M473.35 307.65a.14.14 0 0 1-.14-.12 1.54 1.54 0 0 1 .31-1.09 2.64 2.64 0 0 1 .85-.72l.18-.1a1.64 1.64 0 0 0 .76-.63.72.72 0 0 0 0-.62 1.57 1.57 0 0 0-.63-.55 2.07 2.07 0 0 1-.69-.57 1.73 1.73 0 0 1-.22-1.09.14.14 0 0 1 .15-.13.14.14 0 0 1 .13.15 1.42 1.42 0 0 0 .17.91 1.83 1.83 0 0 0 .6.49 1.8 1.8 0 0 1 .74.66 1 1 0 0 1 0 .87 1.84 1.84 0 0 1-.88.76l-.17.1a2.37 2.37 0 0 0-.76.64 1.26 1.26 0 0 0-.26.89.14.14 0 0 1-.12.16z"/>
    <ellipse class="cls-30" cx="460.84" cy="312.4" rx="3.35" ry="1.3"/>
    <ellipse class="cls-14" cx="460.86" cy="312.33" rx="2.27" ry=".81"/>
    <path class="cls-24" d="M459.12 310.75l.13 1.14s.28.8 1.54.8c0 0 1.56 0 1.69-.88l.13-1.34-3.46-.06z"/>
    <path class="cls-30"
          d="M459.41 312.13c-.08 0-.39-.06-.39-.14v-1.41c0-.08.31-.14.39-.14s.39.06.39.14V312c0 .07-.31.13-.39.13zm.78.28c-.08 0-.39-.06-.39-.14v-1.41c0-.08.31-.14.39-.14s.39.06.39.14v1.41c0 .08-.31.14-.39.14zm.81 0c-.08 0-.39-.06-.39-.14v-1.41c0-.08.31-.14.39-.14s.39.06.39.14v1.41c-.03.08-.34.14-.39.14z"/>
    <path class="cls-30"
          d="M461.76 312.13c-.08 0-.39-.06-.39-.14v-1.41c0-.08.31-.14.39-.14s.39.06.39.14V312c0 .07-.32.13-.39.13z"/>
    <path class="cls-20"
          d="M462.75 309.4c-.33-.25-.35-.68-.78-.69a1.05 1.05 0 0 0-.28 0l-.06-.05a1 1 0 0 0-1.26-.06h-.06a.9.9 0 0 0-.74-.06.89.89 0 0 0-.52.84.74.74 0 0 0-.09 1.26c1.13.73 2.43.38 3.64.05a.74.74 0 0 0 .15-1.29z"/>
    <path class="cls-44"
          d="M462.75 309.4c-.33-.25-.35-.68-.78-.69h-.18a3.17 3.17 0 0 1-.19 2.21c.33-.07.67-.16 1-.25a.74.74 0 0 0 .15-1.27z"/>
    <circle class="cls-9" cx="459.73" cy="308.76" r=".28"/>
    <circle class="cls-9" cx="460.3" cy="309.85" r=".28"/>
    <circle class="cls-9" cx="460.74" cy="308.66" r=".28"/>
    <circle class="cls-9" cx="461.73" cy="309.26" r=".28"/>
    <circle class="cls-9" cx="462.55" cy="309.81" r=".28"/>
    <circle class="cls-9" cx="459.73" cy="308.76" r=".28"/>
    <circle class="cls-9" cx="460.3" cy="309.85" r=".28"/>
    <circle class="cls-9" cx="460.74" cy="308.66" r=".28"/>
    <circle class="cls-9" cx="461.73" cy="309.26" r=".28"/>
    <circle class="cls-9" cx="462.55" cy="309.81" r=".28"/>
    <ellipse class="cls-15" cx="477.12" cy="312.02" rx="1.88" ry=".82"/>
    <path class="cls-14"
          d="M477.76 311.25h-.25c-.92 0-1.67.26-1.67.59s.63.67 1.56.67a3.29 3.29 0 0 0 1.61-.41.36.36 0 0 0 0-.08c-.01-.36-.53-.66-1.25-.77z"/>
    <path class="cls-30" d="M477.09 312s-1.9.23-1.9-2.08h3.74c0 2.33-1.84 2.08-1.84 2.08z"/>
    <ellipse class="cls-24" cx="477.06" cy="310.14" rx="1.73" ry=".97"/>
    <ellipse class="cls-15" cx="477.06" cy="310.14" rx="1.73" ry=".97"/>
    <path class="cls-9" d="M477.06 311.11a.95.95 0 1 0-1.64-.65 2 2 0 0 0 1.64.65z"/>
    <path class="cls-24"
          d="M477.06 311.25c-1.05 0-1.87-.49-1.87-1.12s.81-1.13 1.87-1.13 1.87.49 1.87 1.12-.81 1.13-1.87 1.13zm0-1.95c-.86 0-1.59.38-1.59.83s.73.83 1.59.83 1.59-.38 1.59-.83-.72-.82-1.59-.82z"/>
  </g>
  <path class="cls-23"
        d="M459.54 307.78h-20.68a.15.15 0 0 1-.15-.15v-10.52a.15.15 0 0 1 .15-.15h20.67a.15.15 0 0 1 .15.15v10.52a.15.15 0 0 1-.14.15zm-20.52-.3h20.37v-10.21H439zm42.53.3h-20.67a.15.15 0 0 1-.15-.15v-10.52a.15.15 0 0 1 .15-.15h20.67a.15.15 0 0 1 .15.15v10.52a.15.15 0 0 1-.15.15zm-20.52-.3h20.37v-10.21H461z"/>
  <g class="cls-62">
    <path class="cls-44" d="M446.38 305.32s-3.27 0-3.27 4.62h10a4.32 4.32 0 0 0-2.74-4.62z"/>
    <path class="cls-19" d="M452 302.43c0 2.07-1.68 4.49-3.74 4.49s-3.74-2.42-3.74-4.49a3.74 3.74 0 1 1 7.48 0z"/>
    <path class="cls-20"
          d="M451.37 300.28v.27a6.5 6.5 0 0 1-.54 3.11 5.66 5.66 0 0 1-2 2.2 15.69 15.69 0 0 1-1.41.9 2.74 2.74 0 0 0 .9.15c2.07 0 3.74-2.42 3.74-4.49a3.72 3.72 0 0 0-.69-2.14z"/>
    <path class="cls-9"
          d="M452.31 301.81a1.56 1.56 0 0 1-.4-2 .85.85 0 0 0-.85-.85h-.14a2.91 2.91 0 0 0-4.87.11v.07a.85.85 0 0 0-.32-.06 1 1 0 0 0-.85 1c0 .14 0 .55.09.55-.47 0-.85.21-.85.68a.68.68 0 0 0 .31.57.77.77 0 0 0-.36.65.83.83 0 0 0 .85.83.86.86 0 0 0 .76-.49.84.84 0 0 0 .64.28.85.85 0 0 1 1.4 0 .85.85 0 0 1 1.4 0 .85.85 0 0 1 1.4 0 .85.85 0 0 1 1.4.19.85.85 0 0 0 .4-1.6z"/>
  </g>
  <g class="cls-63">
    <path class="cls-2" d="M443.17 297.6s-.56-5 3.28-5h2.71s3.36.24 3.36 4.64v2.29h-9.38z"/>
    <path class="cls-2" d="M443.17 297.6s-.56-5 3.28-5h2.71s3.36.24 3.36 4.64v2.29h-9.38z"/>
    <path class="cls-64" d="M445.86 291.52l.31 2.13 1.64-.55-1.95-1.58z"/>
    <path class="cls-64"
          d="M446.17 293.75a.09.09 0 0 1 0-.07l-.31-2.13a.09.09 0 0 1 .15-.09l1.94 1.58a.09.09 0 0 1 0 .16l-1.64.56zm-.18-2l.26 1.78 1.37-.46z"/>
    <path class="cls-64" d="M447.81 293.1l1.61.56a9.79 9.79 0 0 0 .46-1.87 22.8 22.8 0 0 0-2.07 1.31z"/>
    <path class="cls-64"
          d="M449.41 293.75l-1.61-.56a.09.09 0 0 1 0-.17c2-1.36 2.1-1.34 2.14-1.33a.13.13 0 0 1 .07.05 6.06 6.06 0 0 1-.46 1.94.09.09 0 0 1 0 .06zm-1.4-.68l1.34.46a15.44 15.44 0 0 0 .44-1.62c-.27.15-1.05.66-1.79 1.16zm1.87-1.19"/>
    <path class="cls-19" d="M451.71 288.73c0 2-1.62 4.33-3.61 4.33s-3.61-2.34-3.61-4.33a3.61 3.61 0 0 1 7.22 0z"/>
    <path class="cls-20"
          d="M448.76 285.19a5.93 5.93 0 0 1 1.86 4.11c-.11 1.3 0 2.3-1.81 3.67a4.59 4.59 0 0 0 2.9-4.23 3.61 3.61 0 0 0-2.95-3.55zm-3.19 3.36a1.36 1.36 0 0 0 .27-.11l.21-.12a.32.32 0 0 0-.32-.56l-.2.13a1.35 1.35 0 0 0-.22.19.28.28 0 0 0 .27.47zm1.52.12l.14-.05a1 1 0 0 0 .26-.17h.06a1.88 1.88 0 0 0 .17-.16.45.45 0 0 0-.64-.64 2.09 2.09 0 0 0-.27.33 1 1 0 0 0-.15.37.33.33 0 0 0 .08.31.31.31 0 0 0 .31.08z"/>
    <path class="cls-20"
          d="M448.56 288.66a4.64 4.64 0 0 0 .51-.3.48.48 0 0 0 .13-.71.45.45 0 0 0-.31-.18.49.49 0 0 0-.4.13 4.61 4.61 0 0 0-.43.41.41.41 0 0 0 .5.64z"/>
    <path class="cls-65"
          d="M444.27 288l.63.58.9-.79.85.79.76-.79.77.79.95-.79.73.79 1.07-.79.66 1 .41-.79a3.73 3.73 0 0 0-3.87-3.43s-3.21-.25-3.86 3.43z"/>
    <path class="cls-65"
          d="M451.58 289.15s-.06-.13-.08-.16l-.6-1-1 .7a.1.1 0 0 1-.12 0l-.67-.73-.88.73a.09.09 0 0 1-.13 0l-.7-.72-.7.72a.09.09 0 0 1-.13 0l-.79-.73-.83.73a.09.09 0 0 1-.12 0l-.63-.58a.09.09 0 0 1 0-.09 3.78 3.78 0 0 1 3.93-3.5 3.84 3.84 0 0 1 4 3.51l-.39.9s0 .17-.08.17zm-.66-1.42a.09.09 0 0 1 .06 0l.57.86.31-.62a3.59 3.59 0 0 0-3.78-3.31c-.13 0-3.08-.24-3.73 3.3l.53.49.84-.73a.09.09 0 0 1 .13 0l.78.72.7-.72a.09.09 0 0 1 .07 0 .09.09 0 0 1 .07 0l.71.72.88-.73a.09.09 0 0 1 .13 0l.67.72 1-.74z"/>
  </g>
  <path class="cls-23"
        d="M459.54 295.55h-20.68a.15.15 0 0 1-.15-.15v-10.52a.15.15 0 0 1 .15-.15h20.67a.15.15 0 0 1 .15.15v10.52a.15.15 0 0 1-.14.15zm-20.52-.3h20.37V285H439z"/>
  <g class="cls-66">
    <ellipse class="cls-8" cx="470.83" cy="301.55" rx="5.86" ry="1.68"/>
    <ellipse class="cls-8" cx="478.93" cy="295.44" rx="1.46" ry=".62"/>
    <ellipse class="cls-8" cx="462.75" cy="303.59" rx="1.46" ry=".62"/>
    <circle class="cls-23" cx="475.52" cy="285.45" r="1.45"/>
    <circle class="cls-23" cx="477.6" cy="284.12" r="1.45"/>
    <circle class="cls-23" cx="477.57" cy="285.79" r="1.45"/>
    <circle class="cls-23" cx="479.66" cy="285.03" r="1.45"/>
    <path class="cls-14" d="M460.88 290.66l.94-1.22 1.12 1.22-.98.8-1.08-.8z"/>
    <circle class="cls-23" cx="462.55" cy="287.1" r="1.17"/>
    <circle class="cls-23" cx="460.44" cy="287.38" r="1.17"/>
    <circle class="cls-23" cx="460.84" cy="286.02" r="1.17"/>
    <circle class="cls-23" cx="458.68" cy="287.01" r="1.17"/>
    <path class="cls-9" d="M467.59 287.08h5.96v4.97h-5.96z"/>
    <path class="cls-15"
          d="M460.22 289.13l-3 3.72a.72.72 0 0 1 .06.2 1.21 1.21 0 0 1 0 .13 2.89 2.89 0 0 0 .29.07 1.86 1.86 0 0 1 .68.33c.26.22.33.5.71.52a2.09 2.09 0 0 0 .92-.26.77.77 0 0 1 1.06.56h1v-3.28c.06-.12-1.72-1.99-1.72-1.99z"/>
    <path class="cls-30"
          d="M466.28 289.65l-1.92-2.47-7 9.27a2.21 2.21 0 0 1 1.15.84c.24.33.4.78.75 1 .55.36 1.06 0 1.56-.26a3.06 3.06 0 0 1 2.89-.08c.92.48 1.85.85 2.58-.19.52-.74 1.74 0 1.21.71a3.5 3.5 0 0 1-1 1h1.24v-8.86z"/>
    <path class="cls-14" d="M467.73 299.01h5.32v2.59h-5.32z"/>
    <path class="cls-14"
          d="M466.34 299.25s-1.91 4 2.09 4a6.73 6.73 0 0 0 1.68-.73l2.46-1.5s0-1-.73-1.24l-3.05 1.22s-.51-.77-.13-1.22z"/>
    <path class="cls-45"
          d="M469.21 300.81l-.42.17a2 2 0 0 1-.2-.41c-.91.82.46 1.62 1.2 2.08l.32-.17.74-.45a6.15 6.15 0 0 1-1.64-1.22z"/>
    <path class="cls-2"
          d="M468.49 301l-2.23 1.27s-.29.1-.6-.3a1 1 0 0 1-.12-.89l2.23-1.19.86-.45s.4 0 .5.1l.26.55-.9.91"/>
    <path class="cls-45" d="M470.85 300.15a10.88 10.88 0 0 0 1.32.66 1.29 1.29 0 0 0 .69.09l-.64.34-1.3-.52z"/>
    <path class="cls-14"
          d="M475 299.57a2.29 2.29 0 0 1-1.35 3.73 4.14 4.14 0 0 1-3.45-.84l-1.67-1.18a1.12 1.12 0 0 1 0-.17c-.07-.37-.07-1.23 1.24-1.48l2.46 1.39s.77.32 1.16-1z"/>
    <path class="cls-2"
          d="M473.44 301.09l.86.3a.56.56 0 0 0 .7-.39s.19-.47-.21-.62-.09 0-.09 0l-1.86-.73s-.54-.13-.71.28l.26.94z"/>
    <path class="cls-5" d="M468.25 291.17l-2 3.24-.27 4.92a10.21 10.21 0 0 0 8.78-.18v-5.86l-1.94-2.11z"/>
    <path class="cls-10"
          d="M467.75 299.93a5.76 5.76 0 0 0 2.1-.26.54.54 0 0 0-.3-.39c-1-.35-2.61-.05-3.51-.64v.71a8.68 8.68 0 0 0 1.75.6z"/>
    <path class="cls-67" transform="rotate(-89.64 470.363 293.863)" d="M468.56 293.72h3.65v.28h-3.65z"/>
    <path class="cls-14"
          d="M471 293.28a.14.14 0 0 1-.1-.06l-.54-.84a.14.14 0 0 1 0-.2l.39-.24a.14.14 0 0 1 .19 0l.54.75a.14.14 0 0 1 0 .19l-.39.32a.14.14 0 0 1-.09.08zm-.2-.65l.23.3.16-.14-.24-.26z"/>
    <path class="cls-10"
          d="M469.86 297.88v-1a6 6 0 0 1-1.55 0c-.49-.1-1.09-.22-1.23-.69a2.83 2.83 0 0 1 0-2.1l-.37.14-.48 1.1-.07.92 1.21 1.05 1 .18z"/>
    <path class="cls-19" d="M469.53 297.19l-.6.31.08.35.52-.02v-.64z"/>
    <path class="cls-20" d="M469.55 297.55l-.57.15.03.15.52-.02.02-.28z"/>
    <path class="cls-10" d="M473.45 294.26a7.11 7.11 0 0 1 0 2.62 6.19 6.19 0 0 1-.55 1.93l.72.89.92-4.61z"/>
    <path class="cls-19"
          d="M473.34 298.78l-.63.49s-.33.44.09.58h.32l-.37.32a1.17 1.17 0 0 0 .14.81c.23.28.53.22.95 0s.94-1.43.94-1.43"/>
    <path class="cls-5"
          d="M472.52 291.09a4.57 4.57 0 0 1 3.64 4.37s.23 3.3-1.37 4.24a1.7 1.7 0 0 1-1.65-.94s1.24-1.58.3-4.56"/>
    <path class="cls-10"
          d="M475.69 296.58a6.59 6.59 0 0 1 .3 1.07 8.82 8.82 0 0 0 .16-2.19 4.57 4.57 0 0 0-3.64-4.37l.07.22a6.72 6.72 0 0 1 3.11 5.27z"/>
    <path class="cls-19"
          d="M468.84 297.76a4.21 4.21 0 0 0 1.52-.29.79.79 0 0 1 1 .55c.12.4.17 1-.43 1.15a5.51 5.51 0 0 1-2.17.19"/>
    <path class="cls-5"
          d="M467.56 291.25s-4.07.55-3.25 5.93c0 0 .58 2.44 4.67 2.39a4.25 4.25 0 0 0-.09-2.44s-3.39.17-1.93-2.78l.6-1.11 1.06-2.13s-.24.04-1.06.14z"/>
    <path class="cls-19" d="M474 287.9c0 2.07-1.68 4.49-3.74 4.49s-3.74-2.42-3.74-4.49a3.74 3.74 0 1 1 7.48 0z"/>
    <path class="cls-20"
          d="M471.37 284.31c.54.7.32 1.57.67 2.39a5.19 5.19 0 0 1 .29 3.81 2.82 2.82 0 0 1-1.57 1.83c1.85-.32 3.29-2.53 3.29-4.45a3.74 3.74 0 0 0-2.68-3.58z"/>
    <path class="cls-9"
          d="M473.17 287.14l-.52 1.23h-4.08l-.62-1.11-.08 5.37h-2.2s-1.68-10 5.07-10c6.14 0 4.87 9.94 4.87 9.94h-2.39z"/>
    <path class="cls-44" d="M477.97 294.19h.92v1.37h-.92z"/>
    <path class="cls-2" d="M478.49 289.63l-1.62 1.83h3.26l-1.64-1.83z"/>
    <path class="cls-2" d="M478.42 289.45l-1.78 2.01h3.59l-1.81-2.01z"/>
    <path class="cls-2" d="M478.4 291.08l-1.95 2.21h3.93l-1.98-2.21z"/>
    <path class="cls-2" d="M478.42 292.07l-2.08 2.34h4.18l-2.1-2.34z"/>
    <path class="cls-30" d="M461 300.94l-.61.27h3.05l-.25-.14a2.06 2.06 0 0 0-2.19-.13z"/>
    <path class="cls-44" d="M461.63 301.97h1.14v1.69h-1.14z"/>
    <path class="cls-2" d="M462.27 295.67l-2 2.25 4.02.01-2.02-2.26z"/>
    <path class="cls-2" d="M462.19 296.83l-2.2 2.48h4.41l-2.21-2.48z"/>
    <path class="cls-2" d="M462.16 298.15l-2.41 2.72h4.85l-2.44-2.72z"/>
    <path class="cls-2" d="M462.18 299.36l-2.56 2.89h5.15l-2.59-2.89z"/>
  </g>
  <path class="cls-23"
        d="M481.55 295.53h-20.67a.15.15 0 0 1-.15-.15v-10.52a.15.15 0 0 1 .15-.15h20.67a.15.15 0 0 1 .15.15v10.52a.15.15 0 0 1-.15.15zm-20.52-.3h20.37V285H461z"/>
  <rect class="cls-30" x="429.73" y="313.57" width="61.07" height="3.21" rx="1.46" ry="1.46"/>
  <path class="cls-30"
        d="M489.6 316.92h-58.66a1.34 1.34 0 0 1-1.34-1.34v-.8a1.34 1.34 0 0 1 1.34-1.34h58.66a1.34 1.34 0 0 1 1.34 1.34v.8a1.34 1.34 0 0 1-1.34 1.34z"/>
  <circle class="cls-5" cx="460.14" cy="278.45" r=".58"/>
  <path class="cls-16" d="M499.23 333.58s-7 3.5-7 15"/>
  <path class="cls-5"
        d="M398.75 408.17s9.19 7.76 20 7.76c18.6 0 23.52-7.76 23.52-7.76a74.76 74.76 0 0 0 12.54-11.37 7 7 0 1 0-10.42-9.35c-9.21 10.28-17.93 15.13-25.92 14.43-10.79-.95-17.76-11.92-17.9-12.14a7 7 0 0 0-12 7.29 46.16 46.16 0 0 0 10.18 11.14z"/>
  <path class="cls-9" d="M391.57 410.17v-8.5a12.2 12.2 0 0 0-12.5-12.5h-19c-7.15 0-13.5 5.35-13.5 12.5v8.5z"/>
</svg>