<svg width="320" height="320" xmlns="http://www.w3.org/2000/svg">
  <defs>
    <style>
      .cls-1{fill:#ededed}.cls-2,.cls-6{fill:none;stroke-linecap:round;stroke-linejoin:round;stroke-width:2px}.cls-2{stroke:#222}.cls-3{fill:#fff}.cls-4{fill:#8e8e8e}.cls-5{fill:#ff2e63}.cls-6{stroke:#828282}.cls-7{fill:#e5dfda}.cls-8{fill:#828282}.cls-9{fill:#e5dcd6}.cls-10{fill:#222}.cls-11{fill:#bcbcbc}.cls-12{fill:#666}.cls-13{fill:#41cc8d}.cls-14{fill:#d6184f}.cls-15{fill:#ff80aa}.cls-16{fill:#ffdbc0}.cls-17{fill:#edc9b0}.cls-18{fill:#b28d74}.cls-19{fill:#ce926a}.cls-20{fill:#686868}.cls-21{fill:#c49a6c}.cls-22{fill:#b7885a}.cls-23{fill:#6eedb0}.cls-24{fill:#2ea069}.cls-25{fill:#7c5b3a}
    </style>
  </defs>
  <title>Send</title>
  <g>
    <title>background</title>
    <rect fill="none" id="canvas_background" height="402" width="582" y="-1" x="-1"/>
  </g>
  <g>
    <title>Layer 1</title>
    <path id="svg_1" d="m10.87,39.48l209.81,0l0,77.55l-209.81,0l0,-77.55z"
          transform="rotate(-12.350000381469727 115.80599975585943,78.26599884033199) " class="cls-1"/>
    <path id="svg_2" d="m21.59,138.58l68.39,-49.23m136.4,4.38l-82.71,-16.13" class="cls-2"/>
    <path id="svg_3" d="m10.87,39.48l209.81,0l0,77.55l-209.81,0l0,-77.55z"
          transform="rotate(-12.350000381469727 115.80599975585943,78.26599884033199) " class="cls-2"/>
    <path id="svg_4" d="m196.8,27.97l-5.68,-25.97l-175.67,38.47l5.86,26.75l98.75,30.64l76.74,-69.89z" class="cls-3"/>
    <path id="svg_7" d="m120.06,97.86l76.74,-69.89l-1.04,-4.77l-76.79,69.68l-107.89,-29.93l-3.55,1.19l112.53,33.72z"
          class="cls-1"/>
    <path id="svg_8" d="m196.438565,28.93l-5.89,-26.93l-175.67,38.47l5.86,26.75" class="cls-6"/>
    <path id="svg_9" d="m208.945553,18.078413l-89.89,79.92l-114.93,-34.44" class="cls-2"/>
    <ellipse id="svg_10" ry="9.27" rx="32.41" cy="254.97" cx="125.53" class="cls-7"/>
    <ellipse id="svg_11" ry="3.45" rx="8.07" cy="225.06" cx="172.6" class="cls-7"/>
    <ellipse id="svg_12" ry="3.45" rx="8.07" cy="266.22" cx="80.89" class="cls-7"/>
    <path id="svg_13" d="m70.54,194.78l5.18,-6.74l6.22,6.74l-5.44,4.4l-5.96,-4.4z" class="cls-8"/>
    <circle id="svg_14" r="6.48" cy="175.09" cx="79.77" class="cls-9"/>
    <circle id="svg_15" r="6.48" cy="176.64" cx="68.11" class="cls-9"/>
    <circle id="svg_16" r="6.48" cy="169.13" cx="70.32" class="cls-9"/>
    <circle id="svg_17" r="6.48" cy="174.62" cx="58.37" class="cls-9"/>
    <path id="svg_18" d="m107.61,175.01l32.95,0l0,27.46l-32.95,0l0,-27.46z" class="cls-10"/>
    <path id="svg_19"
          d="m66.91,186.34l-16.55,20.53a4,4 0 0 1 0.34,1.09a6.69,6.69 0 0 1 0.09,0.71l0.06,0a16,16 0 0 0 1.58,0.37a10.29,10.29 0 0 1 3.73,1.85c1.42,1.19 1.82,2.76 3.91,2.9c1.69,0.11 3.56,-0.74 5.06,-1.41a4.27,4.27 0 0 1 5.86,3.1l5.51,0l0.21,-18.13c0,-0.6 -9.8,-11.01 -9.8,-11.01z"
          class="cls-11"/>
    <path id="svg_20"
          d="m100.38,189.22l-10.62,-13.65l-38.6,51.21a12.22,12.22 0 0 1 6.36,4.62c1.31,1.81 2.23,4.31 4.17,5.58c3,2 5.85,-0.13 8.62,-1.43c5.36,-2.5 10.58,-3.28 16,-0.44c5.08,2.68 10.23,4.7 14.28,-1c2.86,-4.06 9.59,-0.17 6.71,3.92a19.36,19.36 0 0 1 -5.76,5.49l6.85,0l0,-49l-8.01,-5.3z"
          class="cls-1"/>
    <path id="svg_21" d="m108.38,240.91l29.42,0l0,14.29l-29.42,0l0,-14.29z" class="cls-8"/>
    <path id="svg_22"
          d="m100.71,242.24s-10.56,22 11.57,21.9c0,0 3.36,-0.7 9.28,-4l13.61,-8.28s0.12,-5.44 -4,-6.87l-16.93,6.86s-2.82,-4.23 -0.71,-6.75l-12.82,-2.86z"
          class="cls-8"/>
    <path id="svg_23"
          d="m116.55,250.89l-2.32,0.94a11.1,11.1 0 0 1 -1.08,-2.26c-5,4.55 2.54,8.95 6.64,11.48c0.55,-0.27 1.14,-0.57 1.78,-0.93l4.07,-2.48a34,34 0 0 1 -9.09,-6.75z"
          class="cls-12"/>
    <path id="svg_24"
          d="m112.58,252l-12.31,7s-1.6,0.56 -3.3,-1.67a5.43,5.43 0 0 1 -0.68,-4.9l12.31,-6.57l4.76,-2.5s2.22,-0.26 2.78,0.53l1.44,3l-5,5"
          class="cls-13"/>
    <path id="svg_25"
          d="m125.64,247.24a60.1,60.1 0 0 0 7.27,3.66a7.12,7.12 0 0 0 3.8,0.48l-3.53,1.9l-7.18,-2.88l-0.36,-3.16z"
          class="cls-12"/>
    <path id="svg_26"
          d="m148.67,244c0.36,0 10.06,14.56 -7.46,20.59c0,0 -9.47,2.72 -19.05,-4.62l-9.23,-6.51a6.18,6.18 0 0 1 -0.24,-0.94c-0.37,-2 -0.4,-6.79 6.87,-8.17l13.61,7.7s4.26,1.78 6.39,-5.32l9.11,-2.73z"
          class="cls-8"/>
    <path id="svg_27"
          d="m139.91,252.43l4.73,1.66s3,1.18 4.14,-2.37c0,0 1.07,-2.6 -1.18,-3.43s-0.47,-0.12 -0.47,-0.12l-10.3,-4s-3,-0.71 -3.91,1.54l1.42,5.21l5.57,1.51z"
          class="cls-13"/>
    <path id="svg_28" d="m111.28,197.63l-11.13,17.9l-1.47,27.17s23.2,12 48.53,-1l0,-32.4l-10.71,-11.66l-25.22,-0.01z"
          class="cls-5"/>
    <path id="svg_29"
          d="m108.5,246c3.85,0.07 7.94,-0.09 11.61,-1.46a3,3 0 0 0 -1.66,-2.17c-5.58,-1.93 -14.42,-0.3 -19.42,-3.53l-0.13,-0.09l-0.21,3.92a48,48 0 0 0 9.64,3.34l0.17,-0.01z"
          class="cls-14"/>
    <path id="svg_30" d="m112.98,211.66l20.16,0l0,1.55l-20.16,0l0,-1.55z"
          transform="rotate(-89.63999938964844 123.04799652099611,212.44000244140628) " class="cls-15"/>
    <path id="svg_31"
          d="m126.2,209.25l-0.12,0a0.78,0.78 0 0 1 -0.54,-0.35l-3,-4.62a0.78,0.78 0 0 1 0.25,-1.08l2.13,-1.3a0.78,0.78 0 0 1 1,0.21l3,4.14a0.78,0.78 0 0 1 -0.13,1l-2.13,1.77a0.78,0.78 0 0 1 -0.46,0.23zm-1.1,-3.59l1.28,1.65l0.9,-0.75l-1.34,-1.41l-0.84,0.51z"
          class="cls-8"/>
    <path id="svg_32"
          d="m118.46,234.66l0,-5.49a26.52,26.52 0 0 1 -7.71,-0.22c-2.68,-0.55 -5.58,-1.24 -6.4,-3.83c-2.37,-7.53 0.1,-11.62 0.1,-11.62l-2,0.77l-2.62,6.06l-0.34,5.09l6.68,5.82l4.79,1l7.5,2.42z"
          class="cls-14"/>
    <path id="svg_33" d="m118.33,230.87l-3.31,1.7l0.43,1.92l2.91,-0.06l-0.03,-3.56z" class="cls-16"/>
    <path id="svg_34" d="m118.45,232.85l-3.18,0.84l0.18,0.8l2.91,-0.06l0.09,-1.58z" class="cls-17"/>
    <rect id="svg_35" ry="2" rx="2" height="26.76" width="14.73" y="222.37" x="117.92" class="cls-10"/>
    <circle id="svg_36" r="1.65" cy="226.2" cx="121.45" class="cls-8"/>
    <path id="svg_37"
          d="m140,214.65a39.27,39.27 0 0 1 0.09,14.46c-1.33,7.84 -3,10.68 -3,10.68l4,4.91l5.07,-25.46l-6.16,-4.59z"
          class="cls-14"/>
    <path id="svg_38"
          d="m139.38,239.65l-3.47,2.7s-1.8,2.44 0.51,3.21l1.78,-0.11l-2,1.78s-0.52,2.92 0.77,4.46s2.93,1.24 5.24,0.22s5.17,-7.89 5.17,-7.89"
          class="cls-16"/>
    <path id="svg_39"
          d="m134.84,197.16s19.41,3.56 20.11,24.15c0,0 1.3,18.23 -7.58,23.43c0,0 -6.51,0.59 -9.11,-5.21c0,0 6.87,-8.76 1.66,-25.21"
          class="cls-5"/>
    <path id="svg_40"
          d="m152.38,227.49a36.4,36.4 0 0 1 1.68,5.93a48.76,48.76 0 0 0 0.9,-12.12c-0.7,-20.59 -20.11,-24.15 -20.11,-24.15l0.36,1.22c9.79,5.82 16.66,17.75 17.17,29.12z"
          class="cls-14"/>
    <path id="svg_41"
          d="m114.54,234a23.27,23.27 0 0 0 8.39,-1.6s4.29,-1.23 5.52,3c0.64,2.21 0.94,5.39 -2.36,6.33a30.46,30.46 0 0 1 -12,1.06"
          class="cls-16"/>
    <path id="svg_42"
          d="m107.42,198s-22.5,3 -18,32.78c0,0 3.2,13.51 25.82,13.2a23.51,23.51 0 0 0 -0.52,-13.47s-18.76,1 -10.64,-15.38l3.3,-6.13l5.86,-11.79s-1.24,0.28 -5.82,0.79z"
          class="cls-5"/>
    <path id="svg_43"
          d="m143.26,179.54c0,11.42 -9.27,24.8 -20.69,24.8s-20.68,-13.39 -20.67,-24.81a20.68,20.68 0 0 1 41.36,0l0,0.01z"
          class="cls-16"/>
    <path id="svg_44"
          d="m128.48,159.71c3,3.87 1.76,8.69 3.71,13.23c2.72,6.32 4.27,14.76 1.59,21.08c-2.36,5.57 -3.52,7.38 -8.68,10.09c10.23,-1.77 18.17,-14 18.17,-24.57a20.68,20.68 0 0 0 -14.79,-19.83z"
          class="cls-17"/>
    <path id="svg_45"
          d="m122.71,200a6.78,6.78 0 0 1 -4.4,-1.68a0.78,0.78 0 0 1 1.09,-1.11c0.13,0.12 3,2.77 6.9,-0.07a0.78,0.78 0 1 1 0.91,1.26a7.63,7.63 0 0 1 -4.5,1.6z"
          class="cls-18"/>
    <path id="svg_46"
          d="m138.44,175.32l-2.87,6.77l-22.57,0l-3.43,-6.26l-0.47,29.58l-12.1,0s-9.31,-55 28,-54.94c33.93,0 26.92,55 26.92,55l-13.25,0l-0.23,-30.15z"
          class="cls-10"/>
    <path id="svg_47"
          d="m118.85,187.44a0.77,0.77 0 0 1 -0.55,-0.23c-2.68,-2.68 -6.14,-0.05 -6.28,0.06a0.78,0.78 0 0 1 -1,-1.22c1.6,-1.26 5.41,-2.87 8.34,0.06a0.78,0.78 0 0 1 -0.55,1.33l0.04,0zm15.5,0a0.77,0.77 0 0 1 -0.55,-0.23c-2.68,-2.68 -6.14,-0.05 -6.28,0.06a0.78,0.78 0 0 1 -1,-1.22c1.6,-1.26 5.41,-2.87 8.34,0.06a0.78,0.78 0 0 1 -0.55,1.33l0.04,0zm-11.88,7.28a4.66,4.66 0 0 1 -1.59,-0.28a0.78,0.78 0 0 1 -0.46,-0.94l0.9,-3.09a0.78,0.78 0 0 1 1.49,0.44l-0.67,2.3a2.23,2.23 0 0 0 1.15,-0.14a0.78,0.78 0 0 1 0.63,1.42a3.59,3.59 0 0 1 -1.45,0.29z"
          class="cls-18"/>
    <path id="svg_48"
          d="m101.68,184.25a0.78,0.78 0 0 1 -0.77,-0.73c0,-0.17 -0.84,-16.73 12.67,-25a0.78,0.78 0 0 1 0.81,1.33c-12.69,7.73 -11.93,23.38 -11.92,23.54a0.78,0.78 0 0 1 -0.73,0.82l-0.06,0.04z"
          class="cls-3"/>
    <path id="svg_49" d="m167.3,218.15l5.1,0l0,7.57l-5.1,0l0,-7.57z" class="cls-19"/>
    <path id="svg_50" d="m170.19,189.86l-8.96,10.11l18.03,0.01l-9.07,-10.12z" class="cls-13"/>
    <path id="svg_51" d="m169.8,195.08l-9.84,11.11l19.81,0.01l-9.97,-11.12z" class="cls-13"/>
    <path id="svg_52" d="m169.7,200.99l-10.81,12.19l21.74,0.01l-10.93,-12.2z" class="cls-13"/>
    <path id="svg_53" d="m169.79,206.44l-11.49,12.96l23.11,0.01l-11.62,-12.97z" class="cls-13"/>
    <path id="svg_54"
          d="m71.08,251.6c-1.14,0.51 -2.27,1 -3.39,1.49l16.86,0c-0.46,-0.24 -0.91,-0.49 -1.35,-0.75c-4.39,-2.57 -7.44,-2.85 -12.12,-0.74z"
          class="cls-1"/>
    <path id="svg_55" d="m74.66,257.28l6.28,0l0,9.32l-6.28,0l0,-9.32z" class="cls-19"/>
    <path id="svg_56" d="m78.22,222.47l-11.03,12.45l22.19,0l-11.16,-12.45z" class="cls-13"/>
    <path id="svg_57" d="m77.75,228.89l-12.13,13.68l24.39,0l-12.26,-13.68z" class="cls-13"/>
    <path id="svg_58" d="m77.62,236.17l-13.3,15l26.75,0.01l-13.45,-15.01z" class="cls-13"/>
    <path id="svg_59" d="m77.73,242.87l-14.15,15.95l28.46,0.01l-14.31,-15.96z" class="cls-13"/>
    <path id="svg_60"
          d="m166.93,290.21a0.74,0.74 0 0 1 -0.72,-0.58a6.05,6.05 0 0 1 2.27,-6a0.73,0.73 0 1 1 0.86,1.19a4.61,4.61 0 0 0 -1.7,4.47a0.74,0.74 0 0 1 -0.56,0.87l-0.15,0.05z"
          class="cls-3"/>
    <ellipse id="svg_61" ry="4.49" rx="8.26" cy="298.15" cx="279.64" class="cls-7"/>
    <ellipse id="svg_62" ry="6.34" rx="21.44" cy="302.76" cx="180.82" class="cls-7"/>
    <ellipse id="svg_63" ry="7.51" rx="36.63" cy="310.91" cx="234.93" class="cls-7"/>
    <path id="svg_64" d="m215.43,256.42s-19.76,5.26 -18.81,45.44l56.45,0s4.45,-33.7 -18.94,-46.88l-18.7,1.44z"
          class="cls-8"/>
    <path id="svg_65"
          d="m232,265.22a3.13,3.13 0 0 1 0.14,0.81c3.56,-1.08 7.13,-2.55 9.69,-5.09c-0.6,-0.63 -1.23,-1.24 -1.89,-1.83c-1.42,0.6 -2.9,1.09 -4.45,1.73c-1.72,0.71 -3.26,1.6 -4.92,2.27a4.28,4.28 0 0 1 1.43,2.11zm-9.92,0.1a3.41,3.41 0 0 1 0.54,-1.16a18.14,18.14 0 0 1 -12.09,-5a26.13,26.13 0 0 0 -4.71,4.77a4.61,4.61 0 0 1 0.48,0.33c4.31,3.46 10.22,3.78 15.82,3.32a4.51,4.51 0 0 1 -0.04,-2.26z"
          class="cls-20"/>
    <path id="svg_66"
          d="m216.34,257c0,1.48 -0.55,3.53 -0.21,5s0.91,1.57 2.3,2.15a25.19,25.19 0 0 0 8.66,1.89a10.87,10.87 0 0 0 8.22,-3.29a22.66,22.66 0 0 0 1.08,-4.54c0,-0.22 0.07,-0.45 0.11,-0.67a30.65,30.65 0 0 0 -3.14,-2l-17,1.31c-0.02,-0.02 -0.02,0.05 -0.02,0.15z"
          class="cls-16"/>
    <path id="svg_67"
          d="m216.14,259.35c5.41,3.46 13.54,3 19.75,0.32l0.27,-0.16c0.09,-0.52 0.17,-1 0.24,-1.36s0.07,-0.45 0.11,-0.67a30.65,30.65 0 0 0 -3.14,-2l-17,1.31l0,0.21a20.58,20.58 0 0 1 -0.23,2.35z"
          class="cls-17"/>
    <path id="svg_68"
          d="m234.48,251.51l-2.28,0.42a6.44,6.44 0 0 1 -0.12,5.35c-1.52,3.34 -4.63,6.65 -8.54,6.57a9.09,9.09 0 0 1 -8.61,-8a2.52,2.52 0 0 1 0,-0.75l-3.25,-1.52s-5.26,2.7 -4.39,6.28c0,0 1,4.56 10.4,7.77a16.38,16.38 0 0 0 13.32,-1.6s9.26,-4.5 9.5,-8.7c0.02,0.04 -0.23,-3.23 -6.03,-5.82z"
          class="cls-8"/>
    <path id="svg_69"
          d="m242.67,237.84c0,10.8 -8.76,23.46 -19.57,23.45s-19.55,-12.66 -19.55,-23.46a19.56,19.56 0 0 1 39.12,0l0,0.01z"
          class="cls-16"/>
    <path id="svg_70"
          d="m229.42,219.32c10.79,13.48 9.54,23.47 5,34a28,28 0 0 1 -3.32,5.63c6.84,-4.16 11.6,-13.13 11.61,-21.1a19.56,19.56 0 0 0 -13.29,-18.53z"
          class="cls-17"/>
    <path id="svg_71"
          d="m233.37,229.55c0.32,0.19 3,9.25 3,9.25l7.28,-0.49s1.23,-21.83 -19.49,-21.83c0,0 -21.34,0.74 -21.34,19.24c0,0 3.21,5.3 10.24,2.22c-0.06,0 11.68,-13.57 20.31,-8.39z"
          class="cls-19"/>
    <path id="svg_72" d="m243.13,229.49c4.25,0 7.73,2.6 7.73,5.77l0,5.48c0,3.18 -3.48,5.77 -7.73,5.77l0,-17.02z"
          class="cls-10"/>
    <path id="svg_73"
          d="m243.13,247.24a0.73,0.73 0 0 1 -0.73,-0.74l0,-17a0.73,0.73 0 0 1 0.73,-0.74c4.67,0 8.47,2.92 8.47,6.51l0,5.48c-0.01,3.58 -3.8,6.49 -8.47,6.49zm0.74,-17l0,15.5c3.51,-0.27 6.26,-2.41 6.26,-5l0,-5.48c-0.01,-2.6 -2.75,-4.74 -6.27,-5.01l0.01,-0.01zm-39.67,-0.75c-4.25,0 -7.73,2.6 -7.73,5.77l0,5.48c0,3.18 3.48,5.77 7.73,5.77l0,-17.02z"
          class="cls-10"/>
    <path id="svg_74"
          d="m204.2,247.24c-4.67,0 -8.47,-2.92 -8.47,-6.51l0,-5.48c0,-3.59 3.8,-6.51 8.47,-6.51a0.73,0.73 0 0 1 0.73,0.74l0,17a0.73,0.73 0 0 1 -0.73,0.76zm-0.74,-17c-3.51,0.27 -6.26,2.41 -6.26,5l0,5.48c0,2.6 2.75,4.75 6.26,5l0,-15.48z"
          class="cls-10"/>
    <path id="svg_75"
          d="m245.75,236.16a1.1,1.1 0 0 1 -1.1,-1.1c0,-11 -9.52,-19.93 -21.22,-19.93s-21.22,8.94 -21.22,19.93a1.1,1.1 0 0 1 -2.2,0c0,-12.2 10.51,-22.13 23.43,-22.13s23.43,9.93 23.43,22.13a1.1,1.1 0 0 1 -1.12,1.1z"
          class="cls-10"/>
    <path id="svg_76"
          d="m223.38,248.79a1.58,1.58 0 0 1 -1.29,-0.54c-0.82,-1 0,-2.74 0.28,-3.25a0.73,0.73 0 0 1 1.3,0.69a3,3 0 0 0 -0.44,1.63l0.13,0a2.7,2.7 0 0 0 0.77,-0.14a0.73,0.73 0 1 1 0.43,1.4a4.07,4.07 0 0 1 -1.18,0.21zm-0.15,-1.8zm-8.13,-4.13a0.73,0.73 0 0 1 -0.62,-1.12a4.07,4.07 0 0 1 2.82,-1.91a3.21,3.21 0 0 1 2.7,1.43a0.74,0.74 0 0 1 -1.14,0.93a1.88,1.88 0 0 0 -1.46,-0.89a2.67,2.67 0 0 0 -1.66,1.22a0.73,0.73 0 0 1 -0.64,0.34zm11.76,0a0.73,0.73 0 0 1 -0.62,-1.12a4.07,4.07 0 0 1 2.82,-1.91a3.21,3.21 0 0 1 2.7,1.43a0.74,0.74 0 0 1 -1.14,0.93a1.88,1.88 0 0 0 -1.46,-0.89a2.67,2.67 0 0 0 -1.66,1.22a0.73,0.73 0 0 1 -0.64,0.34zm-3.35,11.85a14.46,14.46 0 0 1 -7.62,-2.41a0.73,0.73 0 0 1 0.86,-1.19c0.28,0.21 7,5 13.12,-0.36a0.73,0.73 0 1 1 1,1.1a10.85,10.85 0 0 1 -7.36,2.86z"
          class="cls-18"/>
    <path id="svg_77" d="m229.39,227.2s-8,5.61 -8.28,10.42c0,0 -4,-3.74 -1.87,-11.22l10.15,0.8z" class="cls-19"/>
    <path id="svg_78" d="m234.39,229.2a49.28,49.28 0 0 0 -7.24,7s-1,-6.17 2.09,-10.21l5.15,3.21z" class="cls-19"/>
    <path id="svg_79"
          d="m241.17,275a0.74,0.74 0 0 1 -0.73,-0.64a8.06,8.06 0 0 1 1.61,-5.72a13.8,13.8 0 0 1 4.42,-3.74l0.92,-0.51c1.6,-0.88 3.26,-1.78 4,-3.29a3.76,3.76 0 0 0 -0.06,-3.25a8.21,8.21 0 0 0 -3.33,-2.85a10.81,10.81 0 0 1 -3.6,-3a9,9 0 0 1 -1.14,-5.68a0.72,0.72 0 0 1 0.78,-0.68a0.74,0.74 0 0 1 0.68,0.78a7.4,7.4 0 0 0 0.89,4.75a9.59,9.59 0 0 0 3.14,2.54a9.4,9.4 0 0 1 3.85,3.45a5.25,5.25 0 0 1 0.09,4.55c-0.91,1.94 -2.78,3 -4.59,4l-0.89,0.5a12.37,12.37 0 0 0 -4,3.33a6.58,6.58 0 0 0 -1.34,4.65a0.74,0.74 0 0 1 -0.63,0.83l-0.07,-0.02z"
          class="cls-10"/>
    <circle id="svg_80" r="0.93" cy="267.12" cx="219.47" class="cls-10"/>
    <circle id="svg_81" r="0.93" cy="267.12" cx="227.69" class="cls-10"/>
    <path id="svg_82"
          d="m218.06,281.32l0,-0.38c-0.76,-6.94 -0.42,-11.7 1,-13.79l0.19,-0.26l0.57,0.46l-0.15,0.21c-0.91,1.35 -1.79,4.74 -0.86,13.28l0,0.45l-0.37,0l-0.38,0.03zm13.21,-0.77l-0.72,-0.12c1,-6.26 -2.52,-12.7 -2.56,-12.76l0.64,-0.36c0.15,0.27 3.75,6.73 2.64,13.24z"
          class="cls-20"/>
    <ellipse id="svg_83" ry="6.81" rx="17.49" cy="299.85" cx="175.78" class="cls-1"/>
    <ellipse id="svg_84" ry="4.21" rx="11.87" cy="299.49" cx="175.93" class="cls-8"/>
    <path id="svg_85" d="m166.8,291.26l0.67,6s1.47,4.17 8,4.17c0,0 8.17,0.15 8.84,-4.62l0.67,-7l-18.08,-0.3l-0.1,1.75z"
          class="cls-3"/>
    <path id="svg_86"
          d="m170.08,298.46c-0.41,0 -0.49,-0.33 -0.49,-0.73l0,-7.35c0,-0.41 0.08,-0.74 0.49,-0.74s0.49,0.33 0.49,0.74l0,7.35c0,0.4 -0.08,0.73 -0.49,0.73zm3.43,1.47c-0.41,0 -1,-0.33 -1,-0.74l0,-7.35c0,-0.41 0.57,-0.73 1,-0.73s1,0.33 1,0.73l0,7.35c-0.02,0.41 -0.59,0.74 -1,0.74zm3.92,0c-0.41,0 -1,-0.33 -1,-0.74l0,-7.35c0,-0.41 0.57,-0.73 1,-0.73s1,0.33 1,0.73l0,7.35c-0.02,0.41 -0.59,0.74 -1,0.74zm3.43,-1.47c-0.41,0 -0.49,-0.33 -0.49,-0.73l0,-7.35c0,-0.41 0.08,-0.74 0.49,-0.74s0.49,0.33 0.49,0.74l0,7.35c0,0.4 -0.08,0.73 -0.49,0.73z"
          class="cls-1"/>
    <path id="svg_87"
          d="m185.77,284.19c-1.75,-1.31 -1.82,-3.53 -4.08,-3.62a5.5,5.5 0 0 0 -1.46,0.18a3.13,3.13 0 0 0 -0.29,-0.28a5.46,5.46 0 0 0 -6.6,-0.3a2.06,2.06 0 0 0 -0.34,-0.17a4.73,4.73 0 0 0 -3.87,-0.31a4.66,4.66 0 0 0 -2.73,4.4c-2.18,1.09 -3.18,4.85 -0.48,6.59c5.91,3.79 12.72,2 19,0.26c3.08,-0.85 3.13,-5.04 0.85,-6.75z"
          class="cls-17"/>
    <path id="svg_88"
          d="m185.77,284.19c-1.75,-1.31 -1.82,-3.53 -4.08,-3.62a4.74,4.74 0 0 0 -0.93,0.08a16.56,16.56 0 0 1 -1,11.55c1.75,-0.36 3.49,-0.83 5.19,-1.29c3.05,-0.82 3.1,-5.01 0.82,-6.72z"
          class="cls-19"/>
    <circle id="svg_89" r="1.48" cy="280.86" cx="170.01" class="cls-10"/>
    <circle id="svg_90" r="1.48" cy="286.53" cx="172.97" class="cls-10"/>
    <circle id="svg_91" r="1.48" cy="280.35" cx="175.29" class="cls-10"/>
    <circle id="svg_92" r="1.48" cy="283.44" cx="180.45" class="cls-10"/>
    <circle id="svg_93" r="1.48" cy="286.34" cx="184.76" class="cls-10"/>
    <circle id="svg_94" r="1.48" cy="280.86" cx="170.01" class="cls-10"/>
    <circle id="svg_95" r="1.48" cy="286.53" cx="172.97" class="cls-10"/>
    <circle id="svg_96" r="1.48" cy="280.35" cx="175.29" class="cls-10"/>
    <circle id="svg_97" r="1.48" cy="283.44" cx="180.45" class="cls-10"/>
    <circle id="svg_98" r="1.48" cy="286.34" cx="184.76" class="cls-10"/>
    <rect id="svg_99" ry="1.69" rx="1.69" height="5.44" width="72.12" y="306.56" x="189.71" class="cls-11"/>
    <path id="svg_100"
          d="m260.14,312.74l-68.73,0a2.43,2.43 0 0 1 -2.43,-2.43l0,-2.06a2.43,2.43 0 0 1 2.43,-2.43l68.74,0a2.43,2.43 0 0 1 2.43,2.43l0,2.06a2.43,2.43 0 0 1 -2.44,2.43zm-68.74,-5.44a1,1 0 0 0 -1,1l0,2.06a1,1 0 0 0 1,1l68.74,0a1,1 0 0 0 1,-1l0,-2.06a1,1 0 0 0 -1,-1l-68.74,0z"
          class="cls-11"/>
    <rect id="svg_101" ry="9" rx="9" height="38.81" width="69.11" y="270.96" x="190.84" class="cls-1"/>
    <path id="svg_102"
          d="m253.34,310.51l-55.89,0a7.36,7.36 0 0 1 -7.35,-7.35l0,-25.58a7.36,7.36 0 0 1 7.35,-7.35l55.88,0a7.36,7.36 0 0 1 7.35,7.35l0,25.58a7.36,7.36 0 0 1 -7.34,7.35zm-55.89,-38.81a5.89,5.89 0 0 0 -5.88,5.88l0,25.58a5.89,5.89 0 0 0 5.88,5.88l55.88,0a5.89,5.89 0 0 0 5.88,-5.88l0,-25.58a5.89,5.89 0 0 0 -5.88,-5.88l-55.88,0z"
          class="cls-11"/>
    <ellipse id="svg_103" ry="4.26" rx="9.84" cy="297.88" cx="273.4" class="cls-11"/>
    <path id="svg_104"
          d="m276.71,293.87l-1.33,0c-4.83,0 -8.75,1.38 -8.75,3.08s3.3,3.51 8.13,3.51a17.18,17.18 0 0 0 8.43,-2.12a1.9,1.9 0 0 0 0,-0.42c0.05,-1.92 -2.68,-3.46 -6.48,-4.05z"
          class="cls-8"/>
    <path id="svg_105" d="m273.23,299s-9.94,0.92 -9.94,-10.84l19.57,0c0,10.77 -9.63,10.84 -9.63,10.84z" class="cls-1"/>
    <ellipse id="svg_106" ry="5.09" rx="9.06" cy="288.06" cx="273.09" class="cls-3"/>
    <ellipse id="svg_107" ry="5.09" rx="9.06" cy="288.06" cx="273.09" class="cls-11"/>
    <path id="svg_108"
          d="m273.09,293.15c4,0 7.31,-1.43 8.55,-3.42c-1.24,-2 -4.59,-3.42 -8.55,-3.42s-7.31,1.43 -8.55,3.42c1.24,1.99 4.59,3.42 8.55,3.42z"
          class="cls-10"/>
    <path id="svg_109"
          d="m273.09,293.89c-5.49,0 -9.8,-2.56 -9.8,-5.83s4.3,-5.83 9.8,-5.83s9.8,2.56 9.8,5.83s-4.3,5.83 -9.8,5.83zm0,-10.19c-4.51,0 -8.33,2 -8.33,4.36s3.81,4.36 8.33,4.36s8.33,-2 8.33,-4.36s-3.81,-4.36 -8.33,-4.36z"
          class="cls-3"/>
    <path id="svg_110"
          d="m270.6,256.27a7.36,7.36 0 0 0 -3.26,8.07a6.63,6.63 0 0 0 1.9,3.28c1.26,1.13 4.73,1.6 3.45,3.75c-0.51,0.85 -3.13,1.62 -4,2.48a8.52,8.52 0 0 0 -2.51,4.32c-0.75,3.52 1.27,7.33 3.88,9.57s7.34,-0.68 5.14,-4c-0.73,-1.09 -2.1,-2.22 -2.52,-3.45c-0.7,-2 1.17,-2.93 2.61,-3.8c2.11,-1.27 3.72,-2.55 3.83,-5.23a6.68,6.68 0 0 0 -2.9,-5.61c-0.91,-0.66 -2.48,-0.88 -3.25,-1.61c-1.17,-1.12 0,-3.41 0.71,-4.74c1,-1.85 -1.12,-4.4 -3.06,-3.06l-0.02,0.03z"
          class="cls-7"/>
    <path id="svg_111"
          d="m207.14,231.31c-0.41,0 -0.72,-0.1 -0.71,-0.5a9,9 0 0 1 7,-8.9a0.78,0.78 0 0 1 0.86,0.64a0.77,0.77 0 0 1 -0.57,0.9c-0.23,0 -5.56,1 -5.78,7.39c-0.08,0.4 -0.41,0.47 -0.8,0.47z"
          class="cls-3"/>
    <ellipse id="svg_112" ry="4.23" rx="8.27" cy="176.76" cx="213.45" class="cls-7"/>
    <ellipse id="svg_113" ry="6.9" rx="35.09" cy="184.47" cx="283.36" class="cls-7"/>
    <path id="svg_114"
          d="m283.46,110.07c0,10.8 -8.76,23.46 -19.57,23.45s-19.55,-12.66 -19.55,-23.46a19.56,19.56 0 0 1 39.12,0l0,0.01z"
          class="cls-21"/>
    <path id="svg_115"
          d="m279.9,98.82l0.09,1.41a34,34 0 0 1 -2.82,16.25c-2.26,5 -6.22,8.42 -10.6,11.52a82,82 0 0 1 -7.36,4.7a14.33,14.33 0 0 0 4.68,0.81c10.8,0 19.56,-12.65 19.57,-23.45a19.46,19.46 0 0 0 -3.56,-11.24z"
          class="cls-22"/>
    <rect id="svg_116" ry="2" rx="2" height="9.18" width="9.89" y="173.24" x="261.67" class="cls-10"/>
    <rect id="svg_117" ry="2" rx="2" height="5.65" width="42.15" y="181.01" x="245.54" class="cls-10"/>
    <rect id="svg_118" ry="2" rx="2" height="47.56" width="84.53" y="128.62" x="224.35" class="cls-10"/>
    <path id="svg_119"
          d="m303.75,152c-3.61,7.45 -9.68,13.54 -16.56,18a75.73,75.73 0 0 1 -11.51,6.14l31.73,0a1.47,1.47 0 0 0 1.47,-1.47l0,-39.33a55.16,55.16 0 0 1 -5.13,16.66z"/>
    <ellipse id="svg_120" ry="6.12" rx="10.61" cy="193.43" cx="232.76" class="cls-7"/>
    <path id="svg_121" d="m224.88,180.81l-11.37,15.24l19.26,1.83l10.57,-15.65l-18.46,-1.42z" class="cls-3"/>
    <path id="svg_122"
          d="m233.12,198.29l-0.07,0l-19.8,-1.8a0.73,0.73 0 0 1 -0.53,-1.16l10.83,-15a0.73,0.73 0 0 1 0.66,-0.3l18.89,1.65a0.74,0.74 0 0 1 0.55,1.14l-9.91,15.18a0.73,0.73 0 0 1 -0.62,0.29zm-18.45,-3.15l18.08,1.64l9,-13.7l-17.25,-1.5l-9.83,13.56z"
          class="cls-11"/>
    <path id="svg_123" d="m218.27,183.01l-11.37,15.24l19.26,1.83l10.56,-15.65l-18.45,-1.42z" class="cls-3"/>
    <path id="svg_124"
          d="m226.51,200.49l-0.07,0l-19.8,-1.8a0.73,0.73 0 0 1 -0.53,-1.16l10.83,-15a0.72,0.72 0 0 1 0.66,-0.3l18.89,1.65a0.74,0.74 0 0 1 0.55,1.14l-9.92,15.1a0.73,0.73 0 0 1 -0.61,0.37zm-18.45,-3.15l18.07,1.66l9,-13.7l-17.25,-1.5l-9.82,13.54z"
          class="cls-11"/>
    <path id="svg_125"
          d="m224,196.66l-11.19,-0.9a0.73,0.73 0 1 1 0.12,-1.46l11.19,0.9a0.73,0.73 0 0 1 -0.06,1.47l-0.06,-0.01zm2.31,-2.93l-0.06,0l-11.19,-0.9a0.74,0.74 0 0 1 -0.67,-0.79a0.73,0.73 0 0 1 0.79,-0.67l11.19,0.9a0.73,0.73 0 0 1 -0.06,1.47l0,-0.01zm2.2,-2.94l-0.06,0l-11.19,-0.9a0.73,0.73 0 1 1 0.12,-1.46l11.19,0.9a0.73,0.73 0 0 1 -0.06,1.47l0,-0.01zm2.21,-2.94l-0.06,0l-11.19,-0.9a0.73,0.73 0 1 1 0.12,-1.46l11.19,0.9a0.73,0.73 0 0 1 -0.06,1.47l0,-0.01z"
          class="cls-11"/>
    <path id="svg_126" d="m310.63,196.25l-12.63,-14.33a1.46,1.46 0 1 0 -2.12,1.87l12.65,14.33l3,1.37l-0.9,-3.24z"
          class="cls-23"/>
    <path id="svg_127" d="m308.51,198.12l3,1.37l-0.9,-3.24a1.58,1.58 0 0 0 -1.42,0.52c-0.8,0.72 -0.68,1.35 -0.68,1.35z"
          class="cls-24"/>
    <path id="svg_128" d="m215.74,174.9c0,2.37 -3,4.29 -6.74,4.29s-6.74,-1.92 -6.74,-4.29l0,-15l13.47,0l0,14.92"
          class="cls-5"/>
    <path id="svg_129"
          d="m212.15,159.95c0.25,6.53 0.64,13.24 -1.74,19.15c3,-0.41 5.32,-2.13 5.32,-4.19l0,-15l-3.58,0.04z"
          class="cls-14"/>
    <ellipse id="svg_130" ry="4.29" rx="6.74" cy="160.11" cx="209" class="cls-15"/>
    <ellipse id="svg_131" ry="4.29" rx="6.74" cy="160.11" cx="209" class="cls-14"/>
    <path id="svg_132"
          d="m204.38,175.47c-0.41,0 -0.49,-0.33 -0.49,-0.74l0,-8.82c0,-0.41 0.08,-0.73 0.49,-0.73s0.49,0.33 0.49,0.73l0,8.82c0,0.41 -0.08,0.74 -0.49,0.74z"
          class="cls-3"/>
    <ellipse id="svg_133" ry="1.73" rx="2.67" cy="159.6" cx="210.99" class="cls-10"/>
    <path id="svg_134"
          d="m219.29,156.68a0.74,0.74 0 0 1 -0.32,0.63l-4.26,3a0.73,0.73 0 0 1 -1,-0.2l-1.3,-2a0.73,0.73 0 0 1 0.16,-1l3.82,-2.94a0.73,0.73 0 0 1 1,0.09l1.75,2a0.74,0.74 0 0 1 0.15,0.42zm-3.36,1.16l1.52,-1.26l-0.74,-0.82l-1.29,1.32l0.51,0.76z"
          class="cls-8"/>
    <path id="svg_135"
          d="m284.83,106.83a4.44,4.44 0 0 0 -3,-7.58a4.43,4.43 0 0 0 -4.31,-7a4.44,4.44 0 0 0 -6.61,-5.25a4.44,4.44 0 0 0 -8.12,-1.22a4.44,4.44 0 0 0 -6.47,2.59a4.44,4.44 0 0 0 -4.23,4.43l0,0.35a4.44,4.44 0 0 0 -5.66,6.09l-0.07,0a4.44,4.44 0 0 0 -2.82,7.88a4.44,4.44 0 1 0 6.55,5.58a4.44,4.44 0 0 0 7,-0.42a4.44,4.44 0 0 0 7.32,0a4.44,4.44 0 0 0 7.32,0a4.44,4.44 0 0 0 7,0.42a4.44,4.44 0 1 0 6.09,-5.87l0.01,0z"
          class="cls-10"/>
    <path id="svg_136"
          d="m265.63,125.47l-4.41,-0.36a0.84,0.84 0 0 1 -0.57,-0.4a0.83,0.83 0 0 1 -0.1,-0.69l2.57,-7.92a0.74,0.74 0 0 1 0.93,-0.48a0.73,0.73 0 0 1 0.47,0.92l-2.27,7l3.44,0.14c0.41,0 0.72,0.53 0.7,0.94s-0.39,0.85 -0.76,0.85zm-12.97,-6.88a0.73,0.73 0 0 1 -0.47,-1.3c1.4,-1.18 4.8,-2.7 7.68,0a0.74,0.74 0 0 1 -1,1.08c-2.65,-2.46 -5.61,0 -5.73,0.08a0.73,0.73 0 0 1 -0.48,0.14zm16.17,0a0.73,0.73 0 0 1 -0.47,-1.3c1.4,-1.18 4.8,-2.7 7.68,0a0.74,0.74 0 0 1 -1,1.08c-2.65,-2.46 -5.61,0 -5.73,0.08a0.73,0.73 0 0 1 -0.48,0.14z"
          class="cls-25"/>
    <path id="svg_137"
          d="m249.77,104.89c-0.41,0 -0.72,-0.22 -0.71,-0.63a9.11,9.11 0 0 1 7,-9a0.76,0.76 0 0 1 0.29,1.49c-0.23,0 -5.56,1.1 -5.78,7.51c-0.08,0.44 -0.41,0.63 -0.8,0.63z"
          class="cls-3"/>
    <ellipse id="svg_138" ry="0.8" rx="3.34" cy="194.15" cx="287.34" class="cls-7"/>
    <path id="svg_139"
          d="m286.7,194.07a6.93,6.93 0 0 1 -2.52,-0.52a4.63,4.63 0 0 0 -4.24,0.07a0.73,0.73 0 1 1 -0.62,-1.31a6.26,6.26 0 0 1 5.38,-0.39a5.44,5.44 0 0 0 2,0.18c2.08,0 4.44,-0.74 4.72,-2.65a5.34,5.34 0 0 0 -0.51,-2.52a5.41,5.41 0 0 1 0.81,-6.2a10.38,10.38 0 0 0 0.89,-1.46a4.66,4.66 0 0 0 -3.57,-6.56a0.73,0.73 0 1 1 0.21,-1.45a6.14,6.14 0 0 1 4.69,8.64a11.94,11.94 0 0 1 -1,1.69a5.88,5.88 0 0 0 -1.14,2.41a6,6 0 0 0 0.51,2.66a6.88,6.88 0 0 1 0.57,3.31c-0.4,2.75 -3.41,4.15 -6.17,4.15l-0.01,-0.05z"
          class="cls-5"/>
    <circle id="svg_140" r="10.25" cy="89.37" cx="284.46" class="cls-5"/>
    <path id="svg_141"
          d="m283,93.66a0.91,0.91 0 0 1 1,-1a1,1 0 0 1 0.73,0.27a1,1 0 0 1 0.25,0.74a1.06,1.06 0 0 1 -0.26,0.75a0.94,0.94 0 0 1 -0.73,0.28a1,1 0 0 1 -0.74,-0.27a1,1 0 0 1 -0.25,-0.77zm1.59,-2.14l-1.17,0l-0.35,-6.82l1.93,0l-0.41,6.82z"
          class="cls-3"/>
    <circle id="svg_142" r="10.25" cy="153.02" cx="146.8" class="cls-5"/>
    <path id="svg_143"
          d="m145.36,157.31a0.91,0.91 0 0 1 1,-1a1,1 0 0 1 0.73,0.27a1,1 0 0 1 0.25,0.74a1.06,1.06 0 0 1 -0.26,0.75a0.94,0.94 0 0 1 -0.73,0.28a1,1 0 0 1 -0.74,-0.27a1,1 0 0 1 -0.25,-0.77zm1.59,-2.14l-1.17,0l-0.35,-6.82l1.86,0l-0.34,6.82z"
          class="cls-3"/>
    <circle id="svg_144" r="10.25" cy="228.95" cx="257.24" class="cls-5"/>
    <path id="svg_145"
          d="m255.8,233.24a0.91,0.91 0 0 1 1,-1a1,1 0 0 1 0.73,0.27a1,1 0 0 1 0.25,0.74a1.06,1.06 0 0 1 -0.26,0.75a0.94,0.94 0 0 1 -0.73,0.28a1,1 0 0 1 -0.74,-0.27a1,1 0 0 1 -0.25,-0.77zm1.59,-2.14l-1.17,0l-0.35,-6.82l1.86,0l-0.34,6.82z"
          class="cls-3"/>
    <text stroke="null" transform="rotate(-12.812514305114746 75.13169860839837,41.42075729370119) " xml:space="preserve" text-anchor="start" font-family="Helvetica, Arial, sans-serif" font-size="14" id="svg_146" y="46.285714" x="23.714287" stroke-opacity="null" stroke-width="0" fill="#70d6ff">https://rtconn.io/</text>
  <text transform="rotate(-11.637666702270508 151.9837646484375,23.429647445678796) " xml:space="preserve" text-anchor="start" font-family="Helvetica, Arial, sans-serif" font-size="14" id="svg_147" y="28.294604" x="120.566355" stroke-width="0" fill="#ff9770">eul_comp</text>
  </g>
</svg>